<?xml version="1.0" encoding="UTF-8" standalone="no"?>
<!-- Created with Inkscape (http://www.inkscape.org/) -->

<svg
   xmlns:dc="http://purl.org/dc/elements/1.1/"
   xmlns:cc="http://creativecommons.org/ns#"
   xmlns:rdf="http://www.w3.org/1999/02/22-rdf-syntax-ns#"
   xmlns:svg="http://www.w3.org/2000/svg"
   xmlns="http://www.w3.org/2000/svg"
   xmlns:sodipodi="http://sodipodi.sourceforge.net/DTD/sodipodi-0.dtd"
   xmlns:inkscape="http://www.inkscape.org/namespaces/inkscape"
   width="512"
   height="512"
   viewBox="0 0 512 512"
   version="1.1"
   id="svg8"
   inkscape:version="0.92.4 (5da689c313, 2019-01-14)"
   sodipodi:docname="U+5169.svg">
  <defs
     id="defs2">
    <inkscape:path-effect
       effect="bspline"
       id="path-effect3742"
       is_visible="true"
       weight="33.333333"
       steps="2"
       helper_size="0"
       apply_no_weight="true"
       apply_with_weight="true"
       only_selected="false" />
    <inkscape:path-effect
       effect="bspline"
       id="path-effect3738"
       is_visible="true"
       weight="33.333333"
       steps="2"
       helper_size="0"
       apply_no_weight="true"
       apply_with_weight="true"
       only_selected="false" />
  </defs>
  <sodipodi:namedview
     id="base"
     pagecolor="#ffffff"
     bordercolor="#666666"
     borderopacity="1.0"
     inkscape:pageopacity="0.0"
     inkscape:pageshadow="2"
     inkscape:zoom="1.979899"
     inkscape:cx="249.74661"
     inkscape:cy="263.93155"
     inkscape:document-units="px"
     inkscape:current-layer="layer1"
     showgrid="false"
     units="px"
     inkscape:window-width="1920"
     inkscape:window-height="1001"
     inkscape:window-x="-9"
     inkscape:window-y="-9"
     inkscape:window-maximized="1">
    <inkscape:grid
       type="xygrid"
       id="grid21" />
  </sodipodi:namedview>
  <metadata
     id="metadata5">
    <rdf:RDF>
      <cc:Work
         rdf:about="">
        <dc:format>image/svg+xml</dc:format>
        <dc:type
           rdf:resource="http://purl.org/dc/dcmitype/StillImage" />
        <dc:title></dc:title>
      </cc:Work>
    </rdf:RDF>
  </metadata>
  <g
     inkscape:label="圖層 1"
     inkscape:groupmode="layer"
     id="layer1"
     transform="translate(0,-161.53331)">
    <path
       style="fill:#000000;stroke:none;stroke-width:1px;stroke-linecap:butt;stroke-linejoin:miter;stroke-opacity:1;fill-opacity:1"
       d="M 140.60968,233.65061 C 142.73337,230.1006 151.31705,237.02194 161.22126,240.45856 168.96302,243.14484 177.16627,244.13758 189.64286,242.64045 216.78572,236.92616 298.10345,219.19833 305,217.81902 310.89484,216.01864 318.7377,213.25736 322.67857,212.2833 331.16891,213.01807 336.9748,216.36118 343.92856,218.89045 348.40881,222.00154 361.91352,224.72747 362.5,229.78331 361.02499,234.37219 355.48997,236.10489 351.25,237.99759 343.91562,241.27162 338.03571,240.14045 327.67857,242.9976 317.32143,245.85474 234.99508,260.98089 220.71428,266.56903 216.84704,268.32686 204.35218,272.74011 196.42857,274.42616 189.38272,276.77112 182.98461,270.1176 176.07143,265.67617 172.04941,261.99761 161.80675,257.49716 157.14285,252.99759 154.17239,251.09465 144.02749,244.2176 140.60968,233.65061 Z"
       id="path4602"
       inkscape:connector-curvature="0"
       sodipodi:nodetypes="cscccccacccccc" />
    <path
       style="fill:#000000;stroke:none;stroke-width:1px;stroke-linecap:butt;stroke-linejoin:miter;stroke-opacity:1;fill-opacity:1"
       d="M 69.642857,330.67617 C 73.201042,329.96453 74.462255,337.62363 81.450071,345.82627 85.948089,351.10626 91.838446,355.11762 98.571429,357.81902 110.9339,363.09408 117.75602,396.71525 118.02302,405.10982 118.09378,414.89531 121.1101,452.59382 119.64286,452.10474 119.10724,460.67468 116.719,484.60061 111.78571,484.96188 106.78571,486.39045 89.155729,468.59459 91.655729,461.45173 96.116,458.84613 100.72837,465.47492 102.85714,461.39045 106.42857,458.89045 102.85714,429.2476 102.85714,429.2476 102.85714,429.2476 99.894982,403.06555 95.714286,390.67617 94.299712,386.48412 92.685017,382.12148 89.729515,378.82917 86.668313,375.41911 81.257537,374.75719 78.196339,371.34713 72.78936,365.32396 69.550197,357.73979 67.247462,349.67345 65.984771,340.59365 66.941081,337.39741 69.642857,330.67617 Z"
       id="path4604"
       inkscape:connector-curvature="0"
       sodipodi:nodetypes="cscccccccaaacc" />
    <path
       style="fill:#000000;stroke:none;stroke-width:1px;stroke-linecap:butt;stroke-linejoin:miter;stroke-opacity:1;fill-opacity:1"
       d="M 124.64286,328.53331 C 124.64286,328.53331 136.78571,333.17617 140.35714,332.46188 143.92857,331.7476 172.51445,332.73892 173.92857,327.46188 175.24952,322.53249 172.8577,324.19753 168.92857,317.46188 167.99184,315.16098 168.42608,309.63079 171.42857,310.2107 175.27487,310.9536 179.39891,313.06658 182.56499,313.93006 187.39446,316.74537 191.50252,319.82684 192.69126,324.56141 207.89035,320.67804 218.66075,318.47888 229.58165,317.65137 234.95036,317.24457 240.45119,318.22254 246.34564,317.44021 L 246.07143,308.17617 C 246.07143,308.17617 243.57143,299.2476 237.5,295.67617 231.42857,292.10474 223.67975,286.05498 224.97833,280.90704 226.41105,275.22738 231.7461,277.69275 238.88896,278.0499 244.59364,277.22716 248.95305,273.9492 255.19126,277.62776 263.72235,282.65838 271.51151,288.06784 271.51151,288.06784 271.51151,288.06784 279.28571,290.67617 278.57143,297.46188 277.85714,304.2476 276.42857,309.60474 276.42857,309.60474 L 318.2539,305.40196 C 316.88732,302.48583 314.89653,300.81812 313.21429,298.53331 313.21429,298.53331 310.41842,292.33561 316.17603,289.97983 320.61725,290.27341 324.22555,290.78054 326.42857,292.81902 326.42857,292.81902 330.71429,297.10474 332.14286,299.60474 333.57143,302.10474 347.85714,301.03331 347.85714,301.03331 L 410.71429,295.31902 422.14286,297.10474"
       id="path4606"
       inkscape:connector-curvature="0"
       sodipodi:nodetypes="ccscsccsccsscscccccccsccc" />
    <path
       style="fill:none;stroke:#000000;stroke-width:1px;stroke-linecap:butt;stroke-linejoin:miter;stroke-opacity:1"
       d="M 422.14286,297.10474 V 297.10474"
       id="path4610"
       inkscape:connector-curvature="0" />
    <path
       style="fill:#000000;stroke:none;stroke-width:1px;stroke-linecap:butt;stroke-linejoin:miter;stroke-opacity:1;fill-opacity:1"
       d="M 422.14286,297.10474 C 422.14286,297.10474 445.71429,302.81902 460,324.2476 474.28572,345.67617 457.14286,376.03331 457.14286,376.03331 L 426.17603,478.69919 C 426.17603,478.69919 428.57143,485.67617 424.28571,494.60474 420,503.53331 414.17368,509.16094 408.81653,507.73237 403.44615,506.31173 362.41086,473.22711 362.14286,458.53331 361.99864,450.62608 386.06169,465.3385 387.14286,463.17617 387.14286,463.17617 401.42857,471.39045 410.35714,460.31902 419.28571,449.2476 427.14286,397.10474 426.78571,395.67617 426.42857,394.2476 431.46342,350.64685 431.78571,348.89045 434.9456,331.66962 430.73151,323.9316 425.28472,314.7378 419.92757,308.2913 415,307.26655 395,307.81902 374.92809,308.37347 346.42857,314.2476 346.42857,314.2476 346.42857,314.2476 345,345.31902 333.92857,365.67617 322.85714,386.03331 305.71429,411.03331 288.57143,409.60474 271.42857,408.17617 271.07143,406.39045 271.07143,406.39045 271.07143,406.39045 270,402.46188 277.14286,401.39045 284.28571,400.31902 303.21429,391.03331 306.78571,380.67617 310.35714,370.31902 326.17221,348.52778 325.35714,334.60474 324.55041,320.8241 326.45735,323.27297 323.92857,318.17617 320,315.31902 313.21429,315.67617 304.28571,317.46188 295.35714,319.2476 273.57143,318.89045 273.57143,318.89045 273.57143,318.89045 267.5,371.03331 267.5,381.03331 267.5,391.03331 265.71429,417.81902 267.14286,430.67617 268.57143,443.53331 266.42857,452.46188 263.21429,457.46188 260,462.46188 253.57143,452.81902 252.85714,450.31902 252.14286,447.81902 251.42857,438.17617 251.07143,430.31902 250.71429,422.46188 251.42857,391.39045 250.71429,379.60474 250,367.81902 252.14286,346.03331 249.64286,340.31902 247.14286,334.60474 250.35714,328.53331 245.35714,327.46188 240.35714,326.39045 242.5,326.39045 228.92857,330.67617 215.35714,334.96188 201.07143,336.39045 201.07143,336.39045 201.07143,336.39045 206.78571,349.2476 199.64286,362.81902 192.5,376.39045 176.07143,406.03331 176.07143,406.03331 176.07143,406.03331 161.42857,436.7476 146.42857,435.67617 131.42857,434.60474 122.5,430.31902 121.42857,429.2476 120.35714,428.17617 115,424.60474 127.14286,423.53331 139.28571,422.46188 151.35951,422.19259 157.14286,413.53331 163.75511,403.63294 175.69003,383.0042 180.35714,375.31902 182.5,364.60474 181.42857,349.60474 175.35714,345.31902 169.28571,341.03331 162.85714,352.10474 153.92857,349.60474 145,347.10474 134.59442,348.19579 128.96818,337.07936 L 124.64286,328.53331"
       id="path4612"
       inkscape:connector-curvature="0"
       sodipodi:nodetypes="csccscscscscscsscssscccssccssssscscscssccssc" />
    <path
       style="fill:#000000;stroke:#000000;stroke-width:1px;stroke-linecap:butt;stroke-linejoin:miter;stroke-opacity:1;fill-opacity:1"
       d="M 187.5,391.39045 C 187.5,391.39045 216.42857,391.03331 227.32143,400.14045 238.21429,409.24759 239.82143,411.03331 242.32143,419.06902 244.82143,427.10474 240,433.17616 236.60714,434.60474 233.21429,436.03331 225.89286,430.49759 222.67858,428.89045 222.67858,428.89045 217.9489,424.77183 212.67857,419.60474 209.82143,416.94674 206.42857,411.63185 202.67857,407.64045 198.92857,405.49759 185.35714,395.49759 187.5,391.39045 Z"
       id="path4616"
       inkscape:connector-curvature="0"
       sodipodi:nodetypes="cccccccc" />
    <path
       style="fill:#000000;stroke:#000000;stroke-width:1px;stroke-linecap:butt;stroke-linejoin:miter;stroke-opacity:1;fill-opacity:1"
       d="M 346.25,370.14045 C 350.3933,368.29898 375.54694,376.20689 386.96428,391.74759 392.83493,406.44706 385.02324,418.19261 378.57142,420.31902 373.09972,419.89812 365.59039,413.52378 362.32143,403.35474 358.8313,393.55074 360.49452,389.67758 357.14285,386.56903 353.92857,384.60474 348.39286,382.64045 346.42857,378.17616 344.48121,373.71188 344.99122,370.14045 346.25,370.14045 Z"
       id="path4618"
       inkscape:connector-curvature="0"
       sodipodi:nodetypes="ccccccc" />
  </g>
</svg>
