<?xml version="1.0" encoding="UTF-8" standalone="no"?>
<!-- Created with Inkscape (http://www.inkscape.org/) -->

<svg
   xmlns:dc="http://purl.org/dc/elements/1.1/"
   xmlns:cc="http://creativecommons.org/ns#"
   xmlns:rdf="http://www.w3.org/1999/02/22-rdf-syntax-ns#"
   xmlns:svg="http://www.w3.org/2000/svg"
   xmlns="http://www.w3.org/2000/svg"
   xmlns:sodipodi="http://sodipodi.sourceforge.net/DTD/sodipodi-0.dtd"
   xmlns:inkscape="http://www.inkscape.org/namespaces/inkscape"
   version="1.1"
   id="svg4542"
   width="512"
   height="512"
   viewBox="0 0 512 512"
   sodipodi:docname="U+5373.svg"
   inkscape:version="0.92.4 (5da689c313, 2019-01-14)">
  <metadata
     id="metadata4548">
    <rdf:RDF>
      <cc:Work
         rdf:about="">
        <dc:format>image/svg+xml</dc:format>
        <dc:type
           rdf:resource="http://purl.org/dc/dcmitype/StillImage" />
        <dc:title></dc:title>
      </cc:Work>
    </rdf:RDF>
  </metadata>
  <defs
     id="defs4546" />
  <sodipodi:namedview
     pagecolor="#ffffff"
     bordercolor="#666666"
     borderopacity="1"
     objecttolerance="10"
     gridtolerance="10"
     guidetolerance="10"
     inkscape:pageopacity="0"
     inkscape:pageshadow="2"
     inkscape:window-width="1920"
     inkscape:window-height="1017"
     id="namedview4544"
     showgrid="false"
     inkscape:zoom="1.3037281"
     inkscape:cx="128.63991"
     inkscape:cy="277.65438"
     inkscape:window-x="-8"
     inkscape:window-y="-8"
     inkscape:window-maximized="1"
     inkscape:current-layer="svg4542" />
  <path
     style="fill:#000000;stroke:none;stroke-width:1px;stroke-linecap:butt;stroke-linejoin:miter;stroke-opacity:1;fill-opacity:1"
     d="m 116.61017,29.288135 c 4.88136,-1.084746 6.50847,5.423729 18.44068,3.79661 11.9322,-1.627118 28.20339,-4.338983 34.16949,-4.338983 5.9661,0 14.64407,1.084746 20.61017,-3.254237 5.9661,-4.338983 8.13559,-14.101695 17.8983,-11.389831 9.76272,2.711865 20.61017,9.220339 23.86441,13.01695 3.25424,3.79661 9.22034,12.474576 4.33898,18.98305 -4.88135,6.508475 -4.33898,0 -8.67796,12.474577 -4.33899,12.474576 -16.27119,37.966101 -20.61017,60.203389 -4.33899,22.23729 -1.08475,27.11864 -5.9661,39.59322 -4.88136,12.47458 -13.01695,11.38983 -23.86441,16.81356 -10.84746,5.42373 -37.42373,15.72881 -45.01695,18.44068 -7.59322,2.71186 -13.55932,6.50847 -23.32203,1.08474 -9.762715,-5.42372 -8.1356,-5.9661 -9.220343,1.62712 -1.084745,7.59322 -7.050847,34.71187 -8.677966,38.50848 -1.627118,3.79661 -4.338983,14.10169 1.084746,17.8983 5.423729,3.79661 17.355933,-3.25423 33.084743,-7.59322 15.72882,-4.33898 34.71187,-9.76271 41.22034,-10.84746 6.50848,-1.08474 16.27119,-5.42372 -4.33898,8.67797 -20.61017,14.1017 -29.83051,22.77966 -51.52542,31.45763 -21.69492,8.67796 -22.779666,17.35593 -39.593225,18.44068 -16.81356,1.08474 -17.355933,-2.1695 -23.864407,-15.72882 -6.508475,-13.55932 -5.966102,-13.55932 8.677966,-13.01695 14.644068,0.54238 12.474576,1.62712 18.440678,-21.15254 5.966102,-22.77966 8.677966,-50.44068 9.762712,-59.66102 1.084746,-9.22034 5.423729,-24.94915 -3.254237,-52.06779 C 71.59322,104.13559 72.135593,93.830508 59.661017,80.271186 47.186441,66.711864 53.694915,57.491525 55.322034,50.98305 56.949153,44.474576 61.288136,26.033898 67.254237,35.79661 73.220339,45.559322 64,55.864406 74.305085,61.830508 84.61017,67.79661 93.288136,67.254237 95.457627,79.18644 c 2.169492,11.932204 2.169492,51.52542 2.711865,54.77966 0.542373,3.25424 -2.169492,32.54237 1.084745,39.59322 3.254233,7.05085 10.847463,5.42373 33.627123,-2.71186 22.77966,-8.1356 35.79661,-14.1017 42.84745,-14.1017 7.05085,0 14.64407,2.71187 15.72882,-7.59322 1.08474,-10.30508 9.22034,-52.610168 9.22034,-58.576269 0,-5.966102 4.88135,-36.338983 4.88135,-40.135594 0,-3.79661 1.62712,-12.474576 -11.38983,-10.847457 -13.01695,1.627118 -38.50847,3.79661 -45.01695,7.050847 -6.50847,3.254238 -11.38983,4.881356 -14.64407,7.593221 -3.25423,2.711864 -11.38983,0.542373 -12.47457,-2.169492 -1.08475,-2.711864 -18.44068,-16.813559 -5.42373,-22.779661 z"
     id="path4552"
     inkscape:connector-curvature="0" />
  <path
     style="fill:#000000;stroke:none;stroke-width:1px;stroke-linecap:butt;stroke-linejoin:miter;stroke-opacity:1;fill-opacity:1"
     d="m 120.94915,105.76271 c 0,0 29.83051,-8.677965 46.1017,-9.220338 16.27118,-0.542372 14.10169,3.254238 17.35593,8.135598 3.25424,4.88135 -11.9322,7.59322 -19.52542,10.84745 -7.59322,3.25424 -14.64407,10.84746 -23.86441,10.84746 -9.22034,0 -12.47458,3.79661 -18.44068,-6.50847 -5.9661,-10.30509 -5.9661,-8.67797 -1.62712,-14.1017 z"
     id="path4554"
     inkscape:connector-curvature="0" />
  <path
     style="fill:#000000;stroke:none;stroke-width:1px;stroke-linecap:butt;stroke-linejoin:miter;stroke-opacity:1;fill-opacity:1"
     d="m 165.42373,205.01695 c 3.25424,2.71186 23.32203,4.33898 34.71186,11.38983 11.38983,7.05085 11.93221,17.35593 14.1017,22.23729 2.16949,4.88135 7.59322,15.72881 2.16949,17.35593 -5.42373,1.62712 -23.86441,-4.88136 -27.11864,-10.30509 -3.25424,-5.42372 -6.50848,-20.61016 -13.55933,-26.57627 -7.05084,-5.9661 -16.27118,-10.84745 -10.30508,-14.10169 z"
     id="path4556"
     inkscape:connector-curvature="0" />
  <path
     style="fill:#000000;stroke:none;stroke-width:1px;stroke-linecap:butt;stroke-linejoin:miter;stroke-opacity:1;fill-opacity:1"
     d="m 267.38983,118.77966 c 0,0 13.01695,6.50848 23.86441,0.54237 10.84746,-5.9661 53.69491,-13.55932 59.66101,-14.64406 5.96611,-1.08475 39.59322,-3.25424 46.64407,-3.25424 7.05085,0 13.55932,-5.42373 29.28814,13.01695 15.72881,18.44068 11.38983,16.27118 9.76271,22.23729 -1.62712,5.9661 -12.47458,41.22033 -16.27119,58.03389 -3.79661,16.81356 -17.35593,50.44068 -22.77966,55.32204 -5.42373,4.88135 -7.59322,14.10169 -19.52542,1.62712 -11.9322,-12.47458 -34.16949,-32 -36.88136,-35.25424 -2.71186,-3.25424 -4.88135,-5.42373 12.47458,-0.54237 17.35593,4.88135 29.83051,13.01695 37.9661,4.88135 8.13559,-8.13559 9.76271,-33.08474 11.9322,-38.50847 2.1695,-5.42373 10.84746,-39.59322 10.84746,-46.64407 0,-7.05085 -1.62712,-24.40678 -16.27118,-21.15254 -14.64407,3.25423 -45.55933,9.22034 -72.1356,21.69491 -26.57627,12.47458 -30.91525,15.18644 -36.88135,11.93221 -5.96611,-3.25424 -20.0678,-15.18644 -21.69492,-19.52543 -1.62712,-4.33898 -7.59322,-9.76271 0,-9.76271 z"
     id="path4558"
     inkscape:connector-curvature="0" />
  <path
     style="fill:#000000;stroke:none;stroke-width:1px;stroke-linecap:butt;stroke-linejoin:miter;stroke-opacity:1;fill-opacity:1"
     d="m 267.9322,181.15254 c 7.59322,1.08475 20.61017,1.08475 28.20339,8.67797 7.59322,7.59322 17.35594,15.18644 15.72882,33.62712 -1.62712,18.44067 -9.22034,115.52542 -9.22034,124.20339 0,8.67796 -3.79661,48.81356 -3.79661,76.47457 0,27.66102 6.50847,28.74577 0,42.30509 -6.50848,13.55932 -8.67797,26.57627 -18.44068,-2.71187 -9.76271,-29.28813 -13.55932,-38.50847 -5.42373,-43.38983 8.13559,-4.88135 8.67797,-16.27118 9.22034,-30.91525 0.54237,-14.64407 5.9661,-56.40678 7.05085,-82.98305 1.08474,-26.57627 1.62712,-72.1356 0.54237,-78.1017 -1.08475,-5.9661 -1.08475,-18.44068 -9.76271,-26.57627 -8.67797,-8.13559 -20.61017,-16.81356 -14.1017,-20.61017 z"
     id="path4560"
     inkscape:connector-curvature="0" />
</svg>
