<?xml version="1.0" encoding="UTF-8" standalone="no"?>
<!-- Created with Inkscape (http://www.inkscape.org/) -->

<svg
   xmlns:dc="http://purl.org/dc/elements/1.1/"
   xmlns:cc="http://creativecommons.org/ns#"
   xmlns:rdf="http://www.w3.org/1999/02/22-rdf-syntax-ns#"
   xmlns:svg="http://www.w3.org/2000/svg"
   xmlns="http://www.w3.org/2000/svg"
   xmlns:sodipodi="http://sodipodi.sourceforge.net/DTD/sodipodi-0.dtd"
   xmlns:inkscape="http://www.inkscape.org/namespaces/inkscape"
   width="512"
   height="512"
   viewBox="0 0 512 512"
   version="1.1"
   id="svg8"
   inkscape:version="0.92.4 (5da689c313, 2019-01-14)"
   sodipodi:docname="U+5C45.svg">
  <defs
     id="defs2">
    <inkscape:path-effect
       effect="bspline"
       id="path-effect3742"
       is_visible="true"
       weight="33.333333"
       steps="2"
       helper_size="0"
       apply_no_weight="true"
       apply_with_weight="true"
       only_selected="false" />
    <inkscape:path-effect
       effect="bspline"
       id="path-effect3738"
       is_visible="true"
       weight="33.333333"
       steps="2"
       helper_size="0"
       apply_no_weight="true"
       apply_with_weight="true"
       only_selected="false" />
  </defs>
  <sodipodi:namedview
     id="base"
     pagecolor="#ffffff"
     bordercolor="#666666"
     borderopacity="1.0"
     inkscape:pageopacity="0.0"
     inkscape:pageshadow="2"
     inkscape:zoom="1.979899"
     inkscape:cx="219.36253"
     inkscape:cy="270.82869"
     inkscape:document-units="px"
     inkscape:current-layer="layer1"
     showgrid="false"
     units="px"
     inkscape:window-width="1920"
     inkscape:window-height="1001"
     inkscape:window-x="-9"
     inkscape:window-y="-9"
     inkscape:window-maximized="1">
    <inkscape:grid
       type="xygrid"
       id="grid21" />
  </sodipodi:namedview>
  <metadata
     id="metadata5">
    <rdf:RDF>
      <cc:Work
         rdf:about="">
        <dc:format>image/svg+xml</dc:format>
        <dc:type
           rdf:resource="http://purl.org/dc/dcmitype/StillImage" />
        <dc:title></dc:title>
      </cc:Work>
    </rdf:RDF>
  </metadata>
  <g
     inkscape:label="圖層 1"
     inkscape:groupmode="layer"
     id="layer1"
     transform="translate(0,-161.53331)">
    <path
       style="fill:none;stroke:#000000;stroke-width:1px;stroke-linecap:butt;stroke-linejoin:miter;stroke-opacity:1"
       d="M 422.14286,297.10474 V 297.10474"
       id="path4610"
       inkscape:connector-curvature="0" />
    <path
       style="fill:#000000;stroke:#000000;stroke-width:1px;stroke-linecap:butt;stroke-linejoin:miter;stroke-opacity:1;fill-opacity:1"
       d="M 194.28572,238.71188 C 194.90744,238.65536 211.59841,248.16073 218.57143,248.53331 229.64286,248.53331 270.35714,237.46188 281.78571,235.31902 293.19963,233.17757 318.19036,232.14953 325.17857,228.71188 337.14108,220.68935 335.29762,218.89045 337.5,214.96188 337.77516,215.5122 341.44836,209.82289 344.10714,209.06902 346.96429,208.71188 351.78571,213.53331 355.35714,219.24759 361.07143,224.96188 374.28571,236.56902 371.42857,242.9976 368.57143,249.42617 353.92857,251.39045 353.92857,251.39045 353.92857,251.39045 346.07143,254.24759 341.07143,260.67617 336.07143,267.10474 313.57143,303.71188 318.92858,305.85474 324.28572,307.9976 327.67858,307.28331 332.85714,308.53331 340,311.39045 328.92857,318.17617 328.92857,318.17617 328.92857,318.17617 320,317.81902 315,317.46188 310,317.10474 260.71429,331.39045 253.57143,331.03331 246.42857,330.67617 220.71429,344.96188 213.92857,343.53331 207.14286,342.10474 188.57143,330.4976 186.42857,327.28331 184.28571,324.06902 207.14286,329.96188 220,327.81902 232.85714,325.67617 293.57143,311.39045 293.57143,311.39045 293.57143,311.39045 296.96428,310.85474 300.89286,307.99759 304.82143,305.14045 315.35714,268.89045 315.35714,268.89045 315.35714,268.89045 319.64286,260.31902 315.35714,256.39045 311.07143,252.46188 272.85714,262.46188 272.85714,262.46188 272.85714,262.46188 237.14286,273.53331 226.07143,278.53331 215,283.53331 208.21429,272.81902 208.21429,272.81902 L 198.21429,257.10474 C 198.21429,257.10474 195.53571,249.96188 190.89286,246.74759 184.42116,243.21847 190.48333,238.03377 194.28572,238.71188 Z"
       id="path4631"
       inkscape:connector-curvature="0"
       sodipodi:nodetypes="cccccccccccccccccccccccccccc" />
    <path
       style="fill:#000000;stroke:#000000;stroke-width:1px;stroke-linecap:butt;stroke-linejoin:miter;stroke-opacity:1;fill-opacity:1"
       d="M 150,245.67617 C 150,245.67617 170.71429,251.03331 180.71429,269.96188 190.71429,288.89045 190.35714,284.2476 191.42857,294.96188 192.5,305.67617 188.57143,306.39045 185,304.96188 181.42857,303.53331 177.14286,288.17617 177.14286,288.17617 177.14286,288.17617 173.21429,274.2476 168.57143,267.81902 163.92857,261.39045 157.85714,254.60474 153.57143,250.31902 149.28571,246.03331 150,245.67617 150,245.67617 Z"
       id="path4633"
       inkscape:connector-curvature="0" />
    <path
       style="fill:#000000;stroke:#000000;stroke-width:1px;stroke-linecap:butt;stroke-linejoin:miter;stroke-opacity:1;fill-opacity:1"
       d="M 180.31223,314.92916 C 180.31223,314.92916 186.37314,315.43423 181.82746,329.57637 178.60127,343.7185 188.39279,359.37587 173.74624,381.59922 159.6041,403.82258 151.52288,435.13731 142.43151,458.37082 133.53215,481.86034 128.10628,477.65631 126.26907,501.3023 126.77414,528.07134 114.05006,547.54524 100.413,571.7889 86.775948,596.03256 58.491677,625.83206 40.308931,637.44881 22.126185,649.06557 20.080499,651.96297 11.999279,652.46804 3.9180582,652.97312 27.779195,628.07645 30.809653,627.06629 33.84011,626.05614 96.281385,547.12067 106.38291,523.88716 116.48443,500.65365 129.75627,467.44364 140.70707,440.84108 142.36332,431.34503 163.9241,361.31018 166.17009,353.82003 168.69548,346.74896 171.72593,313.41393 180.31223,314.92916 Z"
       id="path4637"
       inkscape:connector-curvature="0"
       sodipodi:nodetypes="ccccccccccccc" />
    <path
       style="fill:#000000;stroke:#000000;stroke-width:1px;stroke-linecap:butt;stroke-linejoin:miter;stroke-opacity:1;fill-opacity:1"
       d="M 116.60715,401.30117 C 116.93035,400.4393 123.70339,403.2112 132.32143,405.58688 149.72209,408.10037 239.46429,387.01546 239.46429,387.01546 239.46429,387.01546 329.46429,370.22974 352.32143,368.80117 375.17858,367.3726 401.60715,366.65831 412.67858,363.80117 423.75,360.94403 434.10715,357.72974 442.32143,358.08688 450.27566,359.22421 464.41502,368.23468 468.39286,373.44403 470.95414,377.22095 473.03201,379.34957 472.32143,384.8726 469.46429,391.65831 458.03572,389.51546 447.32143,385.94403 432.19033,382.95578 419.60067,381.08041 405.53572,380.22975 390.17858,381.30117 301.25,383.44403 291.60715,386.30117 281.96429,385.8355 245.89286,391.20453 229.10715,398.80117 212.32143,406.30117 165.53572,423.80117 155.17858,426.30117 145.23941,428.10454 138.68432,421.52969 133.39286,417.3726 128.30757,413.1988 115.84327,405.50247 116.60715,401.30117 Z"
       id="path4639"
       inkscape:connector-curvature="0"
       sodipodi:nodetypes="ccccccccccccccc" />
    <path
       style="fill:#000000;stroke:#000000;stroke-width:1px;stroke-linecap:butt;stroke-linejoin:miter;stroke-opacity:1;fill-opacity:1"
       d="M 251.42857,339.60474 C 257.77566,340.87416 284.67781,351.0403 292.5,367.46188 300.35714,383.89045 271.42857,435.31902 264.64286,441.7476 257.85714,448.17617 254.97462,447.56648 250.68891,448.63791 252.21157,442.89081 259.06889,424.53848 261.78571,412.10474 264.66572,398.92412 267.8169,377.49428 267.24746,372.00014 266.15809,365.36235 259.64286,352.46188 253.92857,348.17617 248.21429,343.89045 251.42857,339.60474 251.42857,339.60474 Z"
       id="path4641"
       inkscape:connector-curvature="0"
       sodipodi:nodetypes="ccccaccc" />
    <path
       style="fill:#000000;stroke:#000000;stroke-width:1px;stroke-linecap:butt;stroke-linejoin:miter;stroke-opacity:1;fill-opacity:1"
       d="M 243.92857,443.53331 C 243.92857,443.53331 264.28571,447.81902 277.5,444.60474 290.71429,441.39045 330,435.67617 333.21429,435.67617 336.42857,435.67617 346.42857,422.10474 358.92857,422.81902 371.42857,423.53331 372.14286,426.03331 374.64286,429.96188 377.14286,433.89045 387.85714,442.46188 387.14286,450.31902 386.42857,458.17617 373.92857,458.17617 370.35714,464.2476 366.78571,470.31902 344.28571,507.10474 344.64286,510.67617 345,514.2476 357.5,512.46188 362.5,516.39045 367.5,520.31902 367.14286,522.81902 363.92857,525.67617 360.71429,528.53331 353.21429,531.03331 348.92857,529.60474 344.64286,528.17617 341.07143,527.81902 331.42857,530.31902 321.78571,532.81902 255.71429,534.2476 254.28571,539.60474 252.85714,544.96188 253.57143,559.60474 248.57143,560.67617 243.57143,561.7476 237.14286,557.81902 236.42857,552.81902 235.71429,547.81902 210.35714,452.81902 210.35714,452.81902 210.35714,452.81902 207.14286,442.10474 212.5,442.81902 217.85714,443.53331 220.35714,451.39045 232.85714,458.89045 245.35714,466.39045 254.64286,468.53331 254.28571,483.53331 253.92857,498.53331 250.35714,517.46188 255,518.53331 259.64286,519.60474 315.71429,511.03331 320.35714,507.46188 325,503.89045 330.71429,497.81902 334.64286,483.89045 338.57143,469.96188 345.71429,458.17617 340.35714,453.53331 335,448.89045 330.71429,450.31902 318.21429,453.53331 305.71429,456.7476 287.14286,461.03331 281.42857,461.7476 275.71429,462.46188 270.35714,463.17616 260,456.39045 242.49397,444.92098 243.92857,443.53331 243.92857,443.53331 Z"
       id="path4643"
       inkscape:connector-curvature="0"
       sodipodi:nodetypes="csssscscsssscscccssscssscsc" />
  </g>
</svg>
