<?xml version="1.0" encoding="UTF-8" standalone="no"?>
<!-- Created with Inkscape (http://www.inkscape.org/) -->

<svg
   xmlns:dc="http://purl.org/dc/elements/1.1/"
   xmlns:cc="http://creativecommons.org/ns#"
   xmlns:rdf="http://www.w3.org/1999/02/22-rdf-syntax-ns#"
   xmlns:svg="http://www.w3.org/2000/svg"
   xmlns="http://www.w3.org/2000/svg"
   xmlns:sodipodi="http://sodipodi.sourceforge.net/DTD/sodipodi-0.dtd"
   xmlns:inkscape="http://www.inkscape.org/namespaces/inkscape"
   width="512"
   height="512"
   viewBox="0 0 512 512"
   version="1.1"
   id="svg8"
   inkscape:version="0.92.4 (5da689c313, 2019-01-14)"
   sodipodi:docname="U+5E78.svg">
  <defs
     id="defs2">
    <inkscape:path-effect
       effect="bspline"
       id="path-effect3742"
       is_visible="true"
       weight="33.333333"
       steps="2"
       helper_size="0"
       apply_no_weight="true"
       apply_with_weight="true"
       only_selected="false" />
    <inkscape:path-effect
       effect="bspline"
       id="path-effect3738"
       is_visible="true"
       weight="33.333333"
       steps="2"
       helper_size="0"
       apply_no_weight="true"
       apply_with_weight="true"
       only_selected="false" />
  </defs>
  <sodipodi:namedview
     id="base"
     pagecolor="#ffffff"
     bordercolor="#666666"
     borderopacity="1.0"
     inkscape:pageopacity="0.0"
     inkscape:pageshadow="2"
     inkscape:zoom="0.98994949"
     inkscape:cx="-112.66788"
     inkscape:cy="233.1294"
     inkscape:document-units="px"
     inkscape:current-layer="layer1"
     showgrid="false"
     units="px"
     inkscape:window-width="1920"
     inkscape:window-height="1001"
     inkscape:window-x="-9"
     inkscape:window-y="-9"
     inkscape:window-maximized="1"
     showguides="true"
     inkscape:guide-bbox="true">
    <inkscape:grid
       type="xygrid"
       id="grid21" />
  </sodipodi:namedview>
  <metadata
     id="metadata5">
    <rdf:RDF>
      <cc:Work
         rdf:about="">
        <dc:format>image/svg+xml</dc:format>
        <dc:type
           rdf:resource="http://purl.org/dc/dcmitype/StillImage" />
        <dc:title></dc:title>
      </cc:Work>
    </rdf:RDF>
  </metadata>
  <g
     inkscape:label="圖層 1"
     inkscape:groupmode="layer"
     id="layer1"
     transform="translate(0,-161.53331)">
    <path
       style="fill:#000000;stroke:none;stroke-width:1px;stroke-linecap:butt;stroke-linejoin:miter;stroke-opacity:1;fill-opacity:1"
       d="M 422.14286,297.10474 V 297.10474"
       id="path4610"
       inkscape:connector-curvature="0" />
    <path
       style="fill:#000000;fill-opacity:1;stroke:none;stroke-width:1px;stroke-linecap:butt;stroke-linejoin:miter;stroke-opacity:1"
       d="M 165,263.53331 C 165,263.53331 171.42857,266.7476 182.5,267.81902 188.47675,268.39742 198.09629,266.41769 206.52662,265.014 213.71277,263.81747 219.67769,263.2836 222.14286,262.46188 226.25,259.2476 223.57143,230.67617 221.07143,224.24759 218.57143,217.81902 217.14286,209.60474 211.07143,203.53331 205,197.46188 200.71429,194.96188 202.85714,190.31902 205,185.67617 211.43685,183.86874 227.85715,186.03331 240.02116,187.57994 249.50409,192.03024 253.21429,203.17617 257.5,213.89045 254.64286,233.17617 253.57143,239.96188 252.5,246.74759 251.42857,252.46188 255.71429,253.53331 260,254.60474 280.71429,246.39045 283.92857,245.31902 287.14286,244.24759 291.15809,242.81902 295.08666,244.60474 299.01523,246.39045 305,247.46188 306.42857,251.74759 307.85714,256.03331 296.78571,258.17617 291.42857,259.24759 288.6399,259.80533 280.9225,262.17874 272.88408,263.35956 265.4804,264.44713 258.53473,264.84203 257.67857,266.21188 255.89286,269.06902 255,282.81902 253.21429,289.96188 252.21405,297.32916 248.44308,303.49663 248.21429,306.03331 249.5419,308.02473 304.74486,302.60985 347.49066,299.30539 373.73956,297.27623 395.29109,297.15522 396.78571,296.7476 400.71429,295.67617 403.39286,293.17617 407.32143,291.7476 411.25,290.31903 416.17294,292.20746 420.17857,293.89045 426.53841,296.56257 433.51562,300.17699 437.5,305.67616 439.95812,309.06881 443.39286,313.35474 432.67857,317.28331 421.96428,321.21188 419.64286,316.03331 411.78571,315.31902 403.92857,314.60474 333.57143,314.60474 280.71429,317.10474 268.0837,317.70213 249.15223,317.47291 237.07135,318.47636 198.59554,321.6722 169.57253,328.1353 137.5,337.10474 95.357143,348.89045 90.892857,352.99759 76.964286,356.92616 63.035714,360.85474 45.240763,352.5348 38.928571,348.89045 33.641831,343.60371 33.754819,341.0251 37.142857,339.06902 45.398195,338.08624 73.24527,333.4255 98.359384,328.53982 118.87777,324.54818 142.45494,321.65641 153.21429,319.2476 177.14286,313.89045 218.75,311.92617 226.25,307.28331 229.83799,305.06217 229.15795,298.88117 229.16033,292.28307 229.16294,285.08912 229.75087,278.03617 227.14286,277.10474 222.14286,275.31902 202.85714,281.39045 197.14286,284.60474 191.42857,287.81902 176.07143,280.31902 172.14286,276.7476 168.21429,273.17617 160.71429,267.46188 165,263.53331 Z"
       id="path4656"
       inkscape:connector-curvature="0"
       sodipodi:nodetypes="ccsccccccccccccscccsccsscccsccccsccscccc" />
    <path
       style="fill:#000000;stroke:none;stroke-width:1px;stroke-linecap:butt;stroke-linejoin:miter;stroke-opacity:1;fill-opacity:1"
       d="M 177.67858,344.78331 C 177.67858,344.78331 202.32143,356.39046 211.78571,359.42616 221.42857,365.00363 218.92857,375.31902 219.10714,382.9976 219.28571,390.67617 217.5,390.14045 215.35714,389.60474 213.21429,389.06902 208.39286,389.42617 201.78571,382.10474 195.17857,374.78331 181.25,358.35474 179.46429,353.53331 177.67857,348.71188 171.25,344.06902 177.67858,344.78331 Z"
       id="path4658"
       inkscape:connector-curvature="0"
       sodipodi:nodetypes="ccccccc" />
    <path
       style="fill:#000000;stroke:none;stroke-width:1px;stroke-linecap:butt;stroke-linejoin:miter;stroke-opacity:1;fill-opacity:1"
       d="M 279.10714,319.78331 C 279.35162,319.20274 297.44352,328.7741 303.21429,336.39045 308.75,341.92617 311.78571,345.31902 313.39286,350.4976 315,355.67617 312.5,356.39045 310.71429,357.64045 308.59543,359.02371 288.29437,367.60842 284.28571,371.03331 280,374.96188 263.92857,383.89045 259.28571,385.67617 254.64286,387.46188 252.32143,389.60474 249.64286,388.89045 246.96429,388.17617 252.67857,382.9976 259.46429,376.39045 266.25,369.78331 278.75,351.92617 280.53571,348.53331 282.32143,345.14045 285.71429,341.39045 283.92857,336.7476 282.14286,332.10474 279.64286,325.67617 277.85714,323.35474 276.07143,321.03331 274.28571,318.89045 279.10714,319.78331 Z"
       id="path4660"
       inkscape:connector-curvature="0"
       sodipodi:nodetypes="cccccccscccc" />
    <path
       style="fill:#000000;stroke:none;stroke-width:1px;stroke-linecap:butt;stroke-linejoin:miter;stroke-opacity:1;fill-opacity:1"
       d="M 148.74496,411.14619 C 152.06266,410.05077 156.98412,419.13044 170.46324,417.45964 185.25832,415.62572 256.16864,403.73476 297.995,392.45836 302.939,391.12546 307.40617,387.82021 312.51223,387.43561 317.08039,387.09152 321.67635,388.49746 326.02673,389.93298 330.03091,391.25426 333.0978,392.20583 337.39095,395.48882 341.6841,398.77182 335.62318,403.06497 331.33004,403.57004 327.03689,404.07512 311.8846,403.82258 307.59145,405.59035 303.2983,407.35811 258.34651,414.68172 254.55844,414.68172 250.77037,414.68172 201.52543,424.65697 193.19167,427.93997 186.12061,431.98059 176.7767,435.38985 170.96832,438.4203 165.15994,441.45076 162.14183,433.74793 157.5838,428.19251 154.35459,424.25669 146.08398,417.21869 148.74496,411.14619 Z"
       id="path4664"
       inkscape:connector-curvature="0"
       sodipodi:nodetypes="csaaacccsccsc" />
    <path
       style="fill:#000000;fill-opacity:1;stroke:none;stroke-width:1px;stroke-linecap:butt;stroke-linejoin:miter;stroke-opacity:1"
       d="M 89.98731,475.21442 C 96.53167,474.71101 106.12173,483.70205 125.35714,479.2476 137.14778,476.92813 169.40765,469.39038 197.61311,465.12528 221.52323,461.5097 242.6619,461.16969 244.46429,458.71188 248.39286,453.35474 245,446.7476 237.5,442.46188 230,438.17617 227.98341,436.30379 227.62627,431.30379 227.26913,426.30379 235.84056,424.87895 241.55484,425.23609 247.26913,425.59323 262.12491,429.63012 268.91063,434.98726 275.69634,440.3444 268.65809,449.83561 270.80094,453.0499 272.9438,456.26418 333.21429,448.53331 341.07143,445.31902 348.92857,442.10474 353.87102,441.72593 359.08022,443.55498 364.79451,447.29943 371.72072,451.1038 372.5,454.96188 372.14286,460.67617 365.35714,464.96188 362.85714,465.67617 360.35714,466.39045 317.0562,466.18496 307.0562,465.08815 296.67739,466.89553 270.01794,463.68125 268.23223,467.60982 266.44652,471.53839 262.85714,563.89045 263.57143,583.17617 264.28571,602.46188 263.29351,621.4084 262.20414,632.00014 261.11475,640.06648 261.07143,643.89045 257.14286,644.60474 253.21429,645.31902 246.78571,637.81902 245.71429,629.60474 244.64286,621.39045 245.35714,606.7476 247.5,592.46188 249.64286,578.17617 250.71429,521.39045 249.64286,507.81902 250.08666,493.99506 252.28336,479.6914 248.21429,470.31902 243.99793,466.10267 223.81887,472.46896 203.51319,477.43053 185.97938,481.71481 168.47522,484.3093 162.35207,485.79871 156.54074,487.21228 149.3766,489.82458 143.4788,493.45509 135.96569,498.07995 129.39,503.64942 121.15065,502.81902 112.67421,501.96473 106.15561,494.36828 99.982053,488.49741 95.966714,484.67895 87.613662,483.45811 89.98731,475.21442 Z"
       id="path4666"
       inkscape:connector-curvature="0"
       sodipodi:nodetypes="ccscccccccccccccccccccscssac" />
  </g>
</svg>
