<?xml version="1.0" encoding="UTF-8" standalone="no"?>
<!-- Created with Inkscape (http://www.inkscape.org/) -->

<svg
   xmlns:dc="http://purl.org/dc/elements/1.1/"
   xmlns:cc="http://creativecommons.org/ns#"
   xmlns:rdf="http://www.w3.org/1999/02/22-rdf-syntax-ns#"
   xmlns:svg="http://www.w3.org/2000/svg"
   xmlns="http://www.w3.org/2000/svg"
   xmlns:sodipodi="http://sodipodi.sourceforge.net/DTD/sodipodi-0.dtd"
   xmlns:inkscape="http://www.inkscape.org/namespaces/inkscape"
   width="512"
   height="512"
   viewBox="0 0 512 512"
   version="1.1"
   id="svg8"
   inkscape:version="0.92.4 (5da689c313, 2019-01-14)"
   sodipodi:docname="U+6065.svg">
  <defs
     id="defs2">
    <inkscape:path-effect
       effect="bspline"
       id="path-effect3742"
       is_visible="true"
       weight="33.333333"
       steps="2"
       helper_size="0"
       apply_no_weight="true"
       apply_with_weight="true"
       only_selected="false" />
    <inkscape:path-effect
       effect="bspline"
       id="path-effect3738"
       is_visible="true"
       weight="33.333333"
       steps="2"
       helper_size="0"
       apply_no_weight="true"
       apply_with_weight="true"
       only_selected="false" />
  </defs>
  <sodipodi:namedview
     id="base"
     pagecolor="#ffffff"
     bordercolor="#666666"
     borderopacity="1.0"
     inkscape:pageopacity="0.0"
     inkscape:pageshadow="2"
     inkscape:zoom="1.4"
     inkscape:cx="202.95262"
     inkscape:cy="263.91777"
     inkscape:document-units="px"
     inkscape:current-layer="layer2"
     showgrid="false"
     units="px"
     inkscape:window-width="1920"
     inkscape:window-height="1001"
     inkscape:window-x="-9"
     inkscape:window-y="-9"
     inkscape:window-maximized="1"
     showguides="false"
     inkscape:guide-bbox="true">
    <inkscape:grid
       type="xygrid"
       id="grid21" />
  </sodipodi:namedview>
  <metadata
     id="metadata5">
    <rdf:RDF>
      <cc:Work
         rdf:about="">
        <dc:format>image/svg+xml</dc:format>
        <dc:type
           rdf:resource="http://purl.org/dc/dcmitype/StillImage" />
        <dc:title></dc:title>
      </cc:Work>
    </rdf:RDF>
  </metadata>
  <g
     inkscape:label="圖層 1"
     inkscape:groupmode="layer"
     id="layer1"
     transform="translate(0,-161.53331)" />
  <g
     inkscape:groupmode="layer"
     id="layer2"
     inkscape:label="圖層 2">
    <path
       style="fill:#000000;stroke:none;stroke-width:1px;stroke-linecap:butt;stroke-linejoin:miter;stroke-opacity:1;fill-opacity:1"
       d="M 96.339285,107.17858 C 96.339285,107.17858 101.47449,107.23522 103.19995,108.88995 106.71102,112.25711 112.99402,118.21373 130.71429,114.14286 157.14286,108.07143 185,106.28571 190.71429,104.5 196.42857,102.71429 229.28571,98.071428 243.21429,89.499999 257.14286,80.928571 257.14286,76.999999 266.07143,77.714285 275,78.428571 280.71429,79.499999 287.5,84.142856 294.28571,88.785714 298.92857,92.357142 299.64286,94.857142 300.35714,97.357142 301.42857,99.857142 290,100.21429 278.57143,100.57143 263.21429,99.499999 249.28571,102.71429 235.35714,105.92857 228.92857,105.92857 218.92857,107.35714 208.92857,108.78571 195,109.14286 175.71429,113.78571 156.42857,118.42857 141.78571,120.57143 133.92857,122.71429 126.07143,124.85714 118.57143,128.42857 110.71429,125.21429 102.85714,122 93.928572,117.35714 92.857143,113.78571 91.785714,110.21429 92.410713,108.60715 96.339285,107.17858 Z"
       id="path4823"
       inkscape:connector-curvature="0"
       sodipodi:nodetypes="csssssscsssscssc" />
    <path
       style="fill:#000000;stroke:none;stroke-width:1px;stroke-linecap:butt;stroke-linejoin:miter;stroke-opacity:1;fill-opacity:1"
       d="M 62.629458,152.38569 C 62.629458,152.38569 96.974644,148.34508 109.09647,162.9923 121.21831,177.63951 116.67262,199.86286 118.18785,204.40855 119.70308,208.95424 123.74369,294.8172 123.74369,294.8172 123.74369,294.8172 122.22846,301.38319 125.76399,301.38319 129.29953,301.38319 166.67517,289.26136 169.70563,286.73598 172.73609,284.2106 173.24116,281.18014 177.78685,281.68522 182.33253,282.1903 179.80715,280.67507 189.90868,285.22075 200.0102,289.76644 204.55589,296.83751 197.48482,297.34258 190.41375,297.84766 188.89853,297.84766 176.27162,302.39335 163.64471,306.93903 129.8046,319.56594 111.11678,328.15224 92.428958,336.73853 78.791899,340.77914 71.215754,345.82991 63.63961,350.88067 65.154839,358.96189 60.104076,360.98219 55.053314,363.0025 53.538085,362.49742 44.446712,357.95174 35.355339,353.40605 24.243661,347.85021 16.162441,343.30452 8.0812204,338.75884 6.5659915,332.69792 12.626907,332.69792 18.687822,332.69792 22.728432,337.24361 31.819805,334.21315 40.911178,331.18269 96.974644,316.03041 101.52033,311.9898 106.06602,307.94919 106.06602,271.07862 105.56094,265.52278 105.05586,259.96694 102.53048,208.44916 102.02541,200.87302 101.52033,193.29687 97.984797,183.19535 85.862966,174.10397 73.741136,165.0126 56.568543,157.43646 62.629458,152.38569 Z"
       id="path4825"
       inkscape:connector-curvature="0" />
    <path
       style="fill:#000000;stroke:none;stroke-width:1px;stroke-linecap:butt;stroke-linejoin:miter;stroke-opacity:1;fill-opacity:1"
       d="M 129.8046,166.02275 C 129.8046,166.02275 135.86552,172.08367 147.98735,166.52783 160.10918,160.97199 172.23101,154.91108 177.78685,152.89077 183.34269,150.87046 186.87822,147.84001 193.44421,152.89077 200.0102,157.94153 203.54574,158.95169 205.06097,162.9923 206.5762,167.03291 202.03051,169.05321 192.43406,170.56844 182.83761,172.08367 183.84776,177.13443 169.70563,181.17504 155.56349,185.21565 153.03811,187.74103 147.48227,186.2258 141.92643,184.71058 136.37059,183.19535 132.32998,179.15474 128.28937,175.11413 118.18785,166.52783 129.8046,166.02275 Z"
       id="path4827"
       inkscape:connector-curvature="0" />
    <path
       style="fill:#000000;stroke:none;stroke-width:1px;stroke-linecap:butt;stroke-linejoin:miter;stroke-opacity:1;fill-opacity:1"
       d="M 182.83761,84.200397 C 182.83761,84.200397 206.5762,86.725778 213.14219,96.322227 219.70818,105.91868 226.77925,118.04051 227.7894,126.6268 228.79955,135.2131 228.29448,130.16234 222.23356,140.76894 216.17264,151.37554 208.09142,171.57859 206.5762,190.26641 205.06097,208.95424 203.54574,319.06086 205.56604,339.76899 207.58635,360.47712 210.11173,404.41875 212.13203,413.51013 214.15234,422.6015 209.60665,438.76394 205.56604,440.27917 201.52543,441.7944 193.94929,434.21825 189.4036,425.63196 184.85792,417.04566 178.29192,396.33753 178.797,393.30708 179.30208,390.27662 193.94929,397.34769 195.96959,394.8223 197.9899,392.29692 196.47467,338.25376 195.46452,331.68777 194.45437,325.12178 189.90868,255.42125 191.42391,249.86541 192.93914,244.30958 197.48482,239.76389 190.91883,236.73343 184.35284,233.70297 166.67517,245.31973 160.10918,247.84511 153.54319,250.37049 151.52288,254.91618 136.87567,249.36034 122.22846,243.8045 111.11678,240.26897 122.22846,237.23851 133.34014,234.20805 153.03811,228.65221 158.59395,226.12683 164.14979,223.60145 170.71578,216.0253 176.27162,216.53038 181.82746,217.03546 189.90868,226.63191 191.92898,222.5913 193.94929,218.55069 193.94929,181.68012 193.94929,176.62935 193.94929,171.57859 189.4036,159.96184 192.93914,148.85016 196.47467,137.73848 202.03051,128.14203 201.02036,121.57604 200.0102,115.01005 200.51528,108.44406 194.95944,98.342532 189.4036,88.241007 176.7767,90.766388 182.83761,84.200397 Z"
       id="path4829"
       inkscape:connector-curvature="0" />
    <path
       style="fill:#000000;stroke:none;stroke-width:1px;stroke-linecap:butt;stroke-linejoin:miter;stroke-opacity:1;fill-opacity:1"
       d="M 260.11428,150.87046 C 260.11428,150.87046 281.83256,154.91108 290.92393,165.51768 300.01531,176.12428 303.04576,189.25626 304.56099,200.36794 306.07622,211.47962 300.01531,235.72328 300.01531,243.29942 300.01531,250.87557 293.95439,270.06847 293.44931,277.13953 292.94424,284.2106 283.85287,296.83751 289.91378,300.87812 295.9747,304.91873 386.88843,293.30197 394.46457,294.31213 402.04071,295.32228 410.62701,297.34258 414.16254,293.30197 417.69808,289.26136 422.24376,278.65476 422.24376,274.10908 422.24376,269.56339 420.72854,250.87557 418.20315,245.8248 415.67777,240.77404 418.20315,235.72328 425.7793,242.79435 433.35544,249.86541 449.01281,269.56339 455.07372,280.67507 461.13464,291.78674 465.17525,298.35274 468.20571,304.91873 471.23616,311.48472 478.30723,317.04056 464.67017,317.54563 451.03311,318.05071 436.89098,311.9898 430.83006,312.49487 424.76915,312.99995 392.94934,320.07102 378.8072,319.56594 364.66507,319.06086 345.47217,322.5964 337.39095,321.08117 329.30973,319.56594 325.7742,321.58625 312.13714,325.62686 298.50008,329.66747 302.54069,338.25376 289.91378,327.64716 277.28687,317.04056 272.23611,317.54563 270.72088,310.47457 269.20565,303.4035 272.23611,297.34258 276.7818,295.82736 281.32748,294.31213 280.82241,295.32228 282.33764,286.23091 283.85287,277.13953 286.37825,268.04816 286.37825,259.46186 286.37825,250.87557 286.88332,223.09637 282.84271,208.95424 278.8021,194.8121 284.35794,192.28672 272.23611,171.57859 260.11428,150.87046 250.51783,158.95168 260.11428,150.87046 Z"
       id="path4833"
       inkscape:connector-curvature="0" />
    <path
       style="fill:#000000;stroke:none;stroke-width:1px;stroke-linecap:butt;stroke-linejoin:miter;stroke-opacity:1;fill-opacity:1"
       d="M 344.46202,171.07352 C 344.46202,171.07352 354.56354,176.62935 358.09908,180.16489 361.63461,183.70042 365.17015,190.77149 370.22091,189.25626 375.27167,187.74103 376.28182,186.73088 379.81736,185.21565 383.35289,183.70042 380.82751,189.76134 379.31228,199.35779 377.79705,208.95424 376.28182,214.005 370.72598,217.54053 365.17015,221.07607 358.09908,222.08622 355.5737,218.04561 353.04831,214.005 344.96709,198.85271 344.46202,171.07352 Z"
       id="path4835"
       inkscape:connector-curvature="0" />
    <path
       style="fill:#000000;stroke:none;stroke-width:1px;stroke-linecap:butt;stroke-linejoin:miter;stroke-opacity:1;fill-opacity:1"
       d="M 430.83006,165.51768 C 430.83006,165.51768 457.09403,175.11413 468.20571,182.69027 479.31738,190.26641 480.83261,190.77149 481.33769,198.34763 481.84276,205.92378 482.34784,212.99485 480.83261,217.03546 479.31738,221.07607 481.84276,227.64206 471.23616,217.54053 460.62956,207.43901 448.00265,188.24611 442.95189,184.2055 437.90113,180.16489 430.32498,173.09382 430.83006,165.51768 Z"
       id="path4837"
       inkscape:connector-curvature="0" />
  </g>
</svg>
