<?xml version="1.0" encoding="UTF-8" standalone="no"?>
<!-- Created with Inkscape (http://www.inkscape.org/) -->

<svg
   xmlns:dc="http://purl.org/dc/elements/1.1/"
   xmlns:cc="http://creativecommons.org/ns#"
   xmlns:rdf="http://www.w3.org/1999/02/22-rdf-syntax-ns#"
   xmlns:svg="http://www.w3.org/2000/svg"
   xmlns="http://www.w3.org/2000/svg"
   xmlns:sodipodi="http://sodipodi.sourceforge.net/DTD/sodipodi-0.dtd"
   xmlns:inkscape="http://www.inkscape.org/namespaces/inkscape"
   version="1.1"
   id="svg5105"
   width="512"
   height="512"
   viewBox="0 0 512 512"
   sodipodi:docname="U+6797.svg"
   inkscape:version="0.92.4 (5da689c313, 2019-01-14)">
  <metadata
     id="metadata5111">
    <rdf:RDF>
      <cc:Work
         rdf:about="">
        <dc:format>image/svg+xml</dc:format>
        <dc:type
           rdf:resource="http://purl.org/dc/dcmitype/StillImage" />
        <dc:title></dc:title>
      </cc:Work>
    </rdf:RDF>
  </metadata>
  <defs
     id="defs5109" />
  <sodipodi:namedview
     pagecolor="#ffffff"
     bordercolor="#666666"
     borderopacity="1"
     objecttolerance="10"
     gridtolerance="10"
     guidetolerance="10"
     inkscape:pageopacity="0"
     inkscape:pageshadow="2"
     inkscape:window-width="1920"
     inkscape:window-height="1017"
     id="namedview5107"
     showgrid="false"
     inkscape:zoom="1.6523437"
     inkscape:cx="104.71585"
     inkscape:cy="293.628"
     inkscape:window-x="-8"
     inkscape:window-y="-8"
     inkscape:window-maximized="1"
     inkscape:current-layer="svg5105" />
  <path
     style="fill:#000000;stroke:none;stroke-width:1px;stroke-linecap:butt;stroke-linejoin:miter;stroke-opacity:1;fill-opacity:1"
     d="m 126.91525,48.813559 c 0,0 9.22034,-2.711865 16.81356,1.084746 7.59322,3.79661 22.77966,14.644067 26.57627,28.203389 3.79662,13.559323 -6.50847,20.067797 -9.76271,29.288136 -3.25423,9.22034 -14.10169,34.71186 -14.10169,79.72881 0,45.01695 -2.16949,88.94916 -1.08475,105.22034 1.08475,16.27119 0.54238,56.40678 0.54238,60.74577 0,4.33898 0.54237,33.62711 0.54237,39.59322 0,5.9661 1.62712,15.72881 -5.9661,10.84745 -7.59322,-4.88135 -15.72882,-19.52542 -16.81356,-22.77966 -1.08475,-3.25423 -7.59322,-22.77966 1.08474,-20.61017 8.67797,2.16949 10.84746,5.9661 10.30509,-5.42373 -0.54238,-11.38983 -0.54238,-25.49152 -0.54238,-29.28813 0,-3.79661 1.08475,-42.84746 1.08475,-45.55932 0,-2.71187 0,-54.77966 -0.54237,-60.74577 -0.54238,-5.9661 0.54237,-24.94915 0.54237,-28.20339 v -27.66101 c 0,-5.42373 2.16949,-42.30509 2.16949,-46.64407 0,-4.33898 1.49111,-21.577782 2.71187,-26.576272 1.13165,-4.63362 5.96451,-8.677173 4.33898,-16.813559 -1.56889,-7.852853 -12.47458,-16.271187 -15.18644,-18.983051 -2.71187,-2.711865 -3.79661,-2.711865 -2.71187,-5.423729 z"
     id="path5115"
     inkscape:connector-curvature="0"
     sodipodi:nodetypes="csssssssscsssscssssscc" />
  <path
     style="fill:#000000;stroke:none;stroke-width:1px;stroke-linecap:butt;stroke-linejoin:miter;stroke-opacity:1;fill-opacity:1"
     d="m 11.389831,182.23729 c 8.677966,2.16949 21.152542,14.64407 34.169491,9.22034 13.016949,-5.42373 57.491528,-15.72882 66.169488,-18.44068 8.67797,-2.71187 44.47458,-12.47458 48.81356,-14.1017 4.33899,-1.62711 25.49153,-13.01695 32,-11.9322 6.50848,1.08475 15.72882,3.25424 18.44068,5.9661 2.71187,2.71187 -7.59322,6.50848 -13.55932,7.59322 -5.9661,1.08475 -27.66102,7.59322 -30.91526,8.1356 -3.25423,0.54237 -30.91525,7.59322 -36.33898,9.22033 -5.42373,1.62712 -31.457625,10.30509 -41.76271,13.55933 -10.305085,3.25423 -9.762712,4.88135 -27.661017,14.10169 -17.898305,9.22034 -15.186441,16.81356 -25.491526,9.22034 -10.305084,-7.59322 -21.152542,-18.44068 -22.779661,-21.15254 -1.627118,-2.71187 -5.9661014,-7.59322 -1.084745,-11.38983 z"
     id="path5117"
     inkscape:connector-curvature="0" />
  <path
     style="fill:#000000;fill-opacity:1;stroke:none;stroke-width:1px;stroke-linecap:butt;stroke-linejoin:miter;stroke-opacity:1"
     d="m 152.40678,136.67797 c 5.42373,4.88135 9.76271,13.55932 12.47458,21.69491 2.71186,8.13559 7.05084,15.72881 7.59322,22.23729 0.54237,6.50847 4.88135,4.33898 -8.1356,18.98305 -13.01695,14.64407 -36.33898,46.10169 -39.59322,49.35593 -3.25423,3.25424 -16.81356,26.0339 -29.830506,37.42373 -13.016949,11.38983 -26.033898,18.98305 -33.084745,22.23729 -7.050848,3.25424 -24.40678,13.01695 -37.966102,14.64407 -13.559322,1.62712 -8.135593,-0.54238 22.237288,-20.61017 30.372881,-20.0678 38.508475,-32 47.728814,-41.22034 9.220341,-9.22034 27.661021,-28.74576 31.457631,-33.62712 3.79661,-4.88136 19.15999,-37.19549 20.78711,-43.70397 1.62712,-6.50847 8.17534,-21.97444 6.54822,-26.8558 -1.62712,-4.88135 -4.0133,-16.76226 -0.21669,-20.55887 z"
     id="path5119"
     inkscape:connector-curvature="0"
     sodipodi:nodetypes="cccscssssssssc" />
  <path
     style="fill:#000000;stroke:none;stroke-width:1px;stroke-linecap:butt;stroke-linejoin:miter;stroke-opacity:1;fill-opacity:1"
     d="m 163.25424,226.16949 c 0,0 18.98305,4.88136 22.77966,6.50848 3.79661,1.62711 8.67796,10.84745 10.30508,16.27118 1.62712,5.42373 6.50848,15.72882 1.08475,15.18644 -5.42373,-0.54237 -11.9322,3.25424 -18.98305,-7.59322 -7.05085,-10.84746 -17.35593,-25.49152 -15.18644,-30.37288 z"
     id="path5121"
     inkscape:connector-curvature="0" />
  <path
     style="fill:#000000;stroke:none;stroke-width:1px;stroke-linecap:butt;stroke-linejoin:miter;stroke-opacity:1;fill-opacity:1"
     d="m 290.71186,49.898305 c 0,0 22.23729,1.627118 35.25424,13.016949 13.01695,11.38983 14.1017,14.101695 10.84746,21.694915 -3.25424,7.59322 -9.22034,21.694911 -10.30509,29.288131 -1.08474,7.59323 -1.62711,36.33899 -3.25423,67.25424 -1.62712,30.91526 -0.54238,71.59322 2.71186,106.30509 3.25424,34.71186 0.54237,48.81356 5.9661,59.11864 5.42373,10.30509 10.84746,13.01695 4.33899,30.37288 -6.50848,17.35593 -6.50848,29.83051 -11.93221,30.37288 -5.42373,0.54238 -12.47457,-7.05084 -15.18644,-13.55932 -2.71186,-6.50847 -4.88135,-14.10169 -21.69491,-27.66102 -16.81356,-13.55932 -30.91526,-27.11864 -21.15254,-24.40677 9.76271,2.71186 27.11864,7.05084 39.59322,7.05084 12.47457,0 16.27118,-0.54237 16.27118,-7.05084 0,-6.50848 -1.62712,-42.84746 -2.16949,-45.01695 -0.54237,-2.1695 -3.25424,-47.18644 -2.71186,-51.52543 0.54237,-4.33898 -2.1695,-66.16949 -1.08475,-71.05085 1.08475,-4.88135 -1.08475,-53.15254 -1.08475,-56.94915 0,-3.79661 0,-28.203388 -0.54237,-32.542371 -0.54237,-4.338983 -1.08474,-8.135593 -5.9661,-14.101695 -4.88136,-5.966102 -11.38983,-10.847458 -15.18644,-14.101695 -3.79661,-3.254237 -4.88136,-2.169491 -2.71187,-6.508474 z"
     id="path5123"
     inkscape:connector-curvature="0" />
  <path
     style="fill:#000000;stroke:none;stroke-width:1px;stroke-linecap:butt;stroke-linejoin:miter;stroke-opacity:1;fill-opacity:1"
     d="m 234.84746,152.94915 c 6.50847,2.16949 18.98305,10.30509 36.33898,5.9661 17.35593,-4.33898 43.38983,-14.10169 50.98305,-16.81356 7.59322,-2.71186 32,-8.67796 35.79661,-9.76271 3.79661,-1.08474 24.94915,-11.38983 33.08475,-9.76271 8.13559,1.62712 23.8644,2.71187 23.32203,8.67797 -0.54237,5.9661 -28.20339,5.9661 -31.45763,7.59322 -3.25423,1.62712 -42.30508,16.27118 -47.72881,16.81356 -5.42373,0.54237 -27.11864,10.30508 -33.62712,13.01695 -6.50847,2.71186 -14.10169,8.67796 -23.32203,14.10169 -9.22034,5.42373 -11.38983,5.42373 -18.98305,-1.08475 -7.59322,-6.50847 -35.79661,-21.15254 -24.40678,-28.74576 z"
     id="path5125"
     inkscape:connector-curvature="0" />
  <path
     style="fill:#000000;stroke:none;stroke-width:1px;stroke-linecap:butt;stroke-linejoin:miter;stroke-opacity:1;fill-opacity:1"
     d="m 336.81356,113.35593 c 7.05085,9.76271 14.64407,20.0678 14.64407,26.57627 0,6.50848 -3.79661,22.23729 -6.50848,27.66102 -2.71186,5.42373 -23.8644,47.18644 -35.79661,61.83051 -11.9322,14.64407 -32.54237,42.84746 -59.66101,62.91525 -27.11865,20.0678 -44.47458,33.62712 -65.08475,37.42373 -20.61017,3.79661 -35.25424,-2.16949 -39.05085,-3.79661 -3.79661,-1.62712 -13.55932,-10.84746 -17.35593,-13.55932 -3.79661,-2.71186 2.71186,-1.08475 22.23729,0.54237 19.52542,1.62712 33.62712,1.62712 48.81356,-8.13559 15.18644,-9.76271 38.50847,-18.44068 59.11864,-41.22034 20.61017,-22.77966 42.84746,-49.35593 48.27119,-59.11864 5.42373,-9.76272 19.52542,-34.71187 22.77966,-45.55933 3.25424,-10.84745 9.22034,-28.20339 8.13559,-31.45762 -1.08474,-3.25424 -7.05084,-16.81356 -0.54237,-14.1017 z"
     id="path5127"
     inkscape:connector-curvature="0" />
  <path
     style="fill:#000000;stroke:none;stroke-width:1px;stroke-linecap:butt;stroke-linejoin:miter;stroke-opacity:1;fill-opacity:1"
     d="m 298.84746,174.64407 c 3.79661,1.62712 16.81356,8.13559 40.13559,27.11864 23.32204,18.98305 39.59322,37.42373 52.0678,48.81356 12.47457,11.38983 32,26.0339 62.91525,33.62712 30.91526,7.59322 35.79661,11.9322 45.55932,15.72881 9.76272,3.79661 15.18644,6.50848 -9.22033,7.05085 -24.40678,0.54237 -28.74577,-0.54237 -43.38984,4.88136 -14.64406,5.42373 -17.35593,4.88135 -40.67796,-13.55933 -23.32204,-18.44067 -53.69492,-59.66101 -59.11865,-67.79661 -5.42372,-8.13559 -14.10169,-16.81356 -21.69491,-23.8644 -7.59322,-7.05085 -36.33898,-32 -26.57627,-32 z"
     id="path5129"
     inkscape:connector-curvature="0" />
</svg>
