<?xml version="1.0" encoding="UTF-8" standalone="no"?>
<!-- Created with Inkscape (http://www.inkscape.org/) -->

<svg
   xmlns:dc="http://purl.org/dc/elements/1.1/"
   xmlns:cc="http://creativecommons.org/ns#"
   xmlns:rdf="http://www.w3.org/1999/02/22-rdf-syntax-ns#"
   xmlns:svg="http://www.w3.org/2000/svg"
   xmlns="http://www.w3.org/2000/svg"
   xmlns:sodipodi="http://sodipodi.sourceforge.net/DTD/sodipodi-0.dtd"
   xmlns:inkscape="http://www.inkscape.org/namespaces/inkscape"
   width="512"
   height="512"
   viewBox="0 0 512 512"
   version="1.1"
   id="svg8"
   inkscape:version="0.92.4 (5da689c313, 2019-01-14)"
   sodipodi:docname="U+6A5F.svg">
  <defs
     id="defs2">
    <inkscape:path-effect
       effect="bspline"
       id="path-effect3742"
       is_visible="true"
       weight="33.333333"
       steps="2"
       helper_size="0"
       apply_no_weight="true"
       apply_with_weight="true"
       only_selected="false" />
    <inkscape:path-effect
       effect="bspline"
       id="path-effect3738"
       is_visible="true"
       weight="33.333333"
       steps="2"
       helper_size="0"
       apply_no_weight="true"
       apply_with_weight="true"
       only_selected="false" />
  </defs>
  <sodipodi:namedview
     id="base"
     pagecolor="#ffffff"
     bordercolor="#666666"
     borderopacity="1.0"
     inkscape:pageopacity="0.0"
     inkscape:pageshadow="2"
     inkscape:zoom="1.4"
     inkscape:cx="296.37197"
     inkscape:cy="258.26587"
     inkscape:document-units="px"
     inkscape:current-layer="layer2"
     showgrid="false"
     units="px"
     inkscape:window-width="1920"
     inkscape:window-height="1001"
     inkscape:window-x="-9"
     inkscape:window-y="-9"
     inkscape:window-maximized="1"
     showguides="false"
     inkscape:guide-bbox="true">
    <inkscape:grid
       type="xygrid"
       id="grid21" />
  </sodipodi:namedview>
  <metadata
     id="metadata5">
    <rdf:RDF>
      <cc:Work
         rdf:about="">
        <dc:format>image/svg+xml</dc:format>
        <dc:type
           rdf:resource="http://purl.org/dc/dcmitype/StillImage" />
        <dc:title></dc:title>
      </cc:Work>
    </rdf:RDF>
  </metadata>
  <g
     inkscape:label="圖層 1"
     inkscape:groupmode="layer"
     id="layer1"
     transform="translate(0,-161.53331)" />
  <g
     inkscape:groupmode="layer"
     id="layer2"
     inkscape:label="圖層 2">
    <path
       style="fill:#000000;stroke:none;stroke-width:1px;stroke-linecap:butt;stroke-linejoin:miter;stroke-opacity:1;fill-opacity:1"
       d="M 103.54064,20.05571 C 103.54064,20.05571 119.70308,24.09632 125.76399,33.187693 131.82491,42.279066 138.89598,47.834905 138.3909,59.451659 137.88582,71.068414 130.81475,72.078566 128.28937,78.644558 125.76399,85.210549 117.1777,107.93898 116.16754,119.55574 115.15739,131.17249 111.62186,135.2131 114.65231,136.22325 117.68277,137.23341 128.79445,131.17249 135.86552,132.18264 142.93659,133.1928 146.47212,130.66741 148.49242,135.2131 150.51273,139.75879 141.92643,144.80955 138.3909,145.8197 134.85536,146.82985 112.12693,152.89077 110.6117,156.93138 109.09647,160.97199 103.54064,179.65981 104.55079,181.68012 105.56094,183.70042 115.15739,179.65981 120.20815,178.14458 125.25892,176.62935 118.18785,187.23596 114.65231,193.29687 111.11678,199.35779 103.03556,211.98469 101.52033,222.5913 100.0051,233.1979 96.974644,253.90602 97.984797,266.53293 98.994949,279.15984 98.994949,344.31468 99.500026,356.43651 100.0051,368.55834 97.479721,379.16494 95.964492,385.22586 94.449263,391.28677 94.954339,396.33753 96.469568,396.33753 97.984797,396.33753 100.0051,397.85276 95.964492,408.45936 91.923882,419.06597 94.449263,422.09642 87.883271,425.12688 81.31728,428.15734 77.781746,428.15734 70.205602,418.56089 62.629458,408.96444 50.002551,385.22586 46.972093,370.57864 43.941636,355.93143 40.406102,334.71823 42.931483,335.2233 45.456865,335.72838 49.497475,341.28422 53.538085,350.88067 57.578695,360.47712 60.609153,369.06341 65.154839,375.62941 69.700526,382.1954 74.751288,389.77154 81.31728,391.79185 87.883271,393.81215 91.418805,394.31723 91.418805,387.24616 91.418805,380.17509 90.408653,367.54819 91.418805,358.96189 92.428958,350.37559 91.923882,314.51518 91.923882,310.47457 91.923882,306.43396 89.903577,275.6243 90.408653,268.04816 90.913729,260.47202 90.913729,256.93648 87.883271,254.4111 84.852814,251.88572 84.852814,253.40095 82.327432,259.96694 79.802051,266.53293 68.690373,278.65476 66.164992,289.26136 63.63961,299.86797 53.538085,312.49487 44.951788,322.09132 36.365492,331.68777 34.850263,331.18269 30.304576,332.69792 25.75889,334.21315 19.697975,327.64716 18.182746,320.57609 16.667517,313.50502 10.606602,298.35274 14.647212,292.7969 18.687822,287.24106 17.172593,294.8172 27.274119,290.27152 37.375644,285.72583 41.416254,276.12938 45.961941,267.54308 50.507627,258.95679 59.599,241.78419 66.164992,228.65221 72.730983,215.52023 83.337585,201.88317 87.378195,189.76134 91.418805,177.63951 98.994949,168.04306 96.469568,165.51768 93.944187,162.9923 85.35789,170.06336 78.286822,173.09382 71.215754,176.12428 65.659915,177.63951 57.073619,184.71058 48.487322,191.78164 39.901026,192.28672 33.335034,185.21565 26.769042,178.14458 22.728432,165.0126 23.233509,160.46691 23.738585,155.92123 17.67767,146.82985 35.860415,148.34508 54.043161,149.86031 51.012704,151.88062 68.185297,146.82985 85.35789,141.77909 89.903577,143.7994 93.43911,140.76894 96.974644,137.73848 105.05586,128.14203 105.56094,105.91868 106.06602,83.695321 111.11678,70.058261 108.5914,60.966888 106.06602,51.875515 102.53048,38.743532 100.0051,35.713075 97.479721,32.682617 91.923882,25.611549 103.54064,20.05571 Z"
       id="path4782"
       inkscape:connector-curvature="0" />
    <path
       style="fill:#000000;stroke:none;stroke-width:1px;stroke-linecap:butt;stroke-linejoin:miter;stroke-opacity:1;fill-opacity:1"
       d="M 212.13203,68.543032 C 212.13203,68.543032 209.60665,83.190244 206.07112,89.756236 202.53559,96.322227 194.95944,113.9999 186.87822,123.09127 178.797,132.18264 177.28177,136.72833 171.22086,134.70802 165.15994,132.68772 161.62441,130.16234 161.62441,137.23341 161.62441,144.30447 156.06857,153.39585 162.12948,160.97199 168.1904,168.54813 170.71578,174.10397 178.797,167.03291 186.87822,159.96184 199.00005,150.87046 207.08127,151.88062 215.16249,152.89077 213.14219,156.4263 209.60665,159.96184 206.07112,163.49737 202.03051,168.04306 197.9899,174.10397 193.94929,180.16489 191.42391,185.72073 183.84776,187.74103 176.27162,189.76134 167.18025,191.27657 165.66502,188.75119 164.14979,186.2258 161.11933,190.26641 159.6041,194.30702 158.08887,198.34763 150.51273,201.88317 155.56349,209.45931 160.61425,217.03546 166.17009,223.60145 174.75639,216.53038 183.34269,209.45931 185.36299,204.91363 190.91883,202.89332 196.47467,200.87302 219.2031,187.23596 226.27417,185.72073 233.34524,184.2055 239.91123,179.15474 239.91123,179.15474 239.91123,179.15474 240.41631,173.5989 230.31478,177.63951 220.21326,181.68012 198.49498,188.75119 198.49498,183.70042 198.49498,178.64966 224.25387,156.4263 229.8097,148.85016 235.36554,141.27402 246.47722,132.18264 249.0026,125.61665 251.52798,119.05066 257.5889,112.98974 255.06352,106.42375 252.53814,99.857761 251.02291,91.271465 247.99245,99.352685 244.96199,107.43391 236.88077,119.05066 233.85031,123.59635 230.81986,128.14203 229.8097,137.73848 222.73864,138.74863 215.66757,139.75879 202.53559,140.26386 200.0102,133.69787 197.48482,127.13188 212.13203,115.51513 215.66757,103.3933 219.2031,91.271465 218.19295,70.563337 212.13203,68.543032 Z"
       id="path4784"
       inkscape:connector-curvature="0" />
    <path
       style="fill:#000000;stroke:none;stroke-width:1px;stroke-linecap:butt;stroke-linejoin:miter;stroke-opacity:1;fill-opacity:1"
       d="M 233.21897,154.65854 C 238.83973,153.83671 251.83774,167.65517 259.2304,175.36666 265.29131,183.44789 265.16504,187.74103 263.14474,192.7918 263.14474,192.7918 261.50324,195.44344 253.29575,191.1503 246.00229,187.33528 241.73274,180.34161 239.45362,173.36968 237.08379,166.12029 235.22449,158.76813 233.21897,154.65854 Z"
       id="path4786"
       inkscape:connector-curvature="0"
       sodipodi:nodetypes="cccssc" />
    <path
       style="fill:#000000;stroke:none;stroke-width:1px;stroke-linecap:butt;stroke-linejoin:miter;stroke-opacity:1;fill-opacity:1"
       d="M 356.60301,50.254561 C 356.60301,50.254561 364.17916,66.417 360.64363,72.98299 357.1081,79.54898 349.53195,97.22665 341.45073,106.31802 333.36951,115.40939 331.85428,119.95508 325.79337,117.93477 319.73245,115.91447 304.58017,113.89417 304.58017,120.96524 304.58017,128.0363 305.59032,132.58199 311.65123,140.15813 317.71215,147.73427 323.33123,147.16229 329.83398,147.2292 343.81437,147.37304 361.1487,131.82437 369.22992,132.83453 369.22992,132.83453 364.4317,137.88528 360.13855,140.91575 356.05372,143.79916 349.3525,147.90532 344.22865,151.77488 339.50675,155.34089 335.66433,160.09278 330.59159,163.1391 326.3836,165.66611 321.34984,166.50994 316.95453,168.69494 314.14927,170.08951 310.31048,170.70948 308.87331,173.49316 305.9052,179.24213 306.32459,182.58715 310.38854,185.61499 316.47294,190.14817 321.22198,193.2504 327.30859,192.68606 333.72506,192.09115 337.76584,185.07541 343.47103,182.07946 352.96514,177.09385 363.24011,173.75037 373.27054,169.95763 378.27585,168.06501 385.08896,169.16122 388.42282,164.65433 383.74824,162.18524 381.34993,164.76545 377.81622,164.90687 364.33702,165.4463 345.6878,170.56942 337.41013,167.17971 349.79663,155.048 360.1756,145.00651 367.71469,139.40052 377.56368,132.07691 406.60557,117.93477 409.13095,111.36878 411.65633,104.80279 412.16141,96.21649 409.63603,89.6505 407.11065,83.08451 407.11065,79.043906 404.08019,87.125126 401.04973,95.206346 397.00912,102.27741 393.97866,106.8231 390.94821,111.36878 384.38221,120.96523 377.31115,121.97538 370.24008,122.98554 349.53196,127.02614 347.00657,120.46015 344.48119,113.89416 376.80607,95.206346 380.34161,83.084516 383.87714,70.962686 362.66393,52.274861 356.60301,50.254561 Z"
       id="path4784-3"
       inkscape:connector-curvature="0"
       sodipodi:nodetypes="csscssacsaaassaaacacsssssccsc" />
    <path
       style="fill:#000000;stroke:none;stroke-width:1px;stroke-linecap:butt;stroke-linejoin:miter;stroke-opacity:1;fill-opacity:1"
       d="M 386.78133,144.95636 C 392.40209,144.13453 407.472,155.55638 412.79276,165.1594 415.00723,169.15612 414.91803,174.28698 414.18172,178.79647 413.7871,181.21328 413.57808,185.16132 411.15126,185.48873 401.77835,186.75325 397.61261,171.93318 393.01598,163.6675 389.82084,157.92199 388.78685,149.06595 386.78133,144.95636 Z"
       id="path4786-8"
       inkscape:connector-curvature="0"
       sodipodi:nodetypes="caaaac" />
    <path
       style="fill:#000000;stroke:none;stroke-width:1px;stroke-linecap:butt;stroke-linejoin:miter;stroke-opacity:1;fill-opacity:1"
       d="M 144.95689,233.1979 C 144.95689,233.1979 145.96704,243.29942 165.15994,239.25881 184.35284,235.2182 209.60665,233.1979 212.13203,230.67252 214.65742,228.14713 213.64726,226.63191 209.60665,221.58114 205.56604,216.53038 205.56604,211.98469 214.15234,216.0253 222.73864,220.06591 222.23356,224.6116 226.77925,226.63191 231.32493,228.65221 281.78571,221.64286 288.92857,218.78571 296.07143,215.92857 294.64286,214.5 289.28571,203.07143 283.92857,191.64286 277.5,165.21429 276.78571,157.71429 276.07143,150.21429 271.78571,132 273.92857,127.71429 276.07143,123.42857 276.42857,122.71429 279.64286,131.28571 282.85714,139.85714 290.35714,153.78571 294.64286,162.71429 298.92857,171.64286 305.71429,193.78571 309.28571,201.28571 312.85714,208.78571 312.14286,215.21429 318.57143,214.85714 325,214.5 352.85714,210.92857 366.42857,209.85714 380,208.78571 392.85714,209.5 405.35714,207.71429 417.85714,205.92857 418.57143,204.5 423.21429,199.85714 427.85714,195.21429 431.42857,198.78571 439.64286,202.71429 447.85714,206.64286 457.85714,209.14286 455.35714,213.07143 452.85714,217 444.28571,219.85714 440,220.21429 435.71429,220.57143 430.71429,220.92857 425.35714,218.78571 420,216.64286 410,214.14286 403.21429,213.78571 396.42857,213.42857 385,213.78571 381.78571,213.78571 378.57143,213.78571 360.35714,212 343.57143,217 326.78571,222 319.28571,219.14286 321.07143,223.07143 322.85714,227 345.35714,268.42857 353.21429,278.07143 361.07143,287.71429 375.35714,315.92857 413.21429,343.07143 451.07143,370.21429 459.28572,382 470,381.28571 480.71429,380.57143 484.28572,380.92857 483.21429,369.85714 482.14286,358.78571 478.92857,342 484.64286,350.57143 490.35714,359.14286 497.14286,376.64286 501.07143,385.21429 505,393.78571 510.71429,401.28571 508.92857,406.28571 507.14286,411.28571 505.71429,414.14286 501.78572,414.14286 497.85714,414.14286 481.07143,408.07143 473.21429,403.07143 465.35714,398.07143 421.42857,371.28571 416.42857,367.71429 411.42857,364.14286 361.07143,321.28571 345,299.5 328.92857,277.71429 307.5,248.07143 305,238.78571 302.5,229.5 303.92857,225.21429 298.21429,224.14286 292.5,223.07143 290.35714,225.92857 276.07143,229.14286 261.78571,232.35714 252.85714,233.78571 246.78571,235.21429 240.71429,236.64286 232.5,233.78571 233.57143,236.64286 234.64286,239.5 240.71429,243.07143 240.71429,249.14286 240.71429,255.21429 235,262.35714 228.57143,268.78571 222.14286,275.21429 203.92857,293.42857 200.71429,297.71429 197.5,302 194.28571,303.78571 189.28571,308.42857 184.28571,313.07143 176.07143,310.21429 175.35714,305.57143 174.64286,300.92857 173.21429,289.5 179.28571,285.92857 185.35714,282.35714 185,289.14286 189.28571,285.92857 193.57143,282.71429 207.5,271.28571 211.07143,267 214.64286,262.71429 221.78571,261.28571 221.07143,254.5 220.35714,247.71429 220.35714,243.07143 216.78571,243.07143 213.21429,243.07143 203.21429,245.92857 197.85714,247.71429 192.5,249.5 178.21429,253.42857 166.07143,259.14286 153.92857,264.85714 150.35714,263.42857 144.28571,259.14286 138.21429,254.85714 137.5,248.78571 140,242.71429 142.5,236.64286 144.95689,233.1979 144.95689,233.1979 Z"
       id="path4806"
       inkscape:connector-curvature="0" />
    <path
       style="fill:#000000;stroke:none;stroke-width:1px;stroke-linecap:butt;stroke-linejoin:miter;stroke-opacity:1;fill-opacity:1"
       d="M 246.07143,263.78571 C 248.92857,263.42857 282.14286,261.28571 292.85714,266.28571 303.57143,271.28571 300.35714,276.28571 298.21429,279.14286 296.07143,282 275.35714,306.64286 269.64286,315.57143 263.92857,324.5 237.14286,359.14286 230.71429,366.64286 224.28571,374.14286 216.78571,388.42857 210.35714,391.28571 203.92857,394.14286 200.35714,397.35714 196.78571,393.42857 193.21429,389.5 190,379.85714 191.42857,374.14286 192.85714,368.42857 196.07143,346.64286 200,346.28571 203.92857,345.92857 205,354.85714 208.57143,358.78571 212.14286,362.71429 213.21429,365.92857 217.14286,367 221.07143,368.07143 228.92857,351.64286 233.57143,347 238.21429,342.35714 263.21429,300.21429 265.71429,295.57143 268.21429,290.92857 277.14286,280.57143 275.71429,277 274.28571,273.42857 276.78571,275.21429 270.71429,272.35714 264.64286,269.5 239.64286,267.71429 246.07143,263.78571 Z"
       id="path4808"
       inkscape:connector-curvature="0" />
    <path
       style="fill:#000000;stroke:none;stroke-width:1px;stroke-linecap:butt;stroke-linejoin:miter;stroke-opacity:1;fill-opacity:1"
       d="M 380.35714,234.5 C 380.35714,234.5 403.21429,238.07143 406.78571,241.64286 410.35714,245.21429 416.78571,250.57143 417.5,255.21429 418.21429,259.85714 416.42857,263.42857 411.78571,263.78571 407.14286,264.14286 405,263.42857 399.28571,258.07143 393.57143,252.71429 381.42857,243.07143 380.35714,234.5 Z"
       id="path4810"
       inkscape:connector-curvature="0" />
  </g>
</svg>
