<?xml version="1.0" encoding="UTF-8" standalone="no"?>
<!-- Created with Inkscape (http://www.inkscape.org/) -->

<svg
   xmlns:dc="http://purl.org/dc/elements/1.1/"
   xmlns:cc="http://creativecommons.org/ns#"
   xmlns:rdf="http://www.w3.org/1999/02/22-rdf-syntax-ns#"
   xmlns:svg="http://www.w3.org/2000/svg"
   xmlns="http://www.w3.org/2000/svg"
   xmlns:sodipodi="http://sodipodi.sourceforge.net/DTD/sodipodi-0.dtd"
   xmlns:inkscape="http://www.inkscape.org/namespaces/inkscape"
   width="512"
   height="512"
   viewBox="0 0 512 512"
   version="1.1"
   id="svg8"
   inkscape:version="0.92.4 (5da689c313, 2019-01-14)"
   sodipodi:docname="U+758F.svg">
  <defs
     id="defs2">
    <inkscape:path-effect
       effect="bspline"
       id="path-effect3742"
       is_visible="true"
       weight="33.333333"
       steps="2"
       helper_size="0"
       apply_no_weight="true"
       apply_with_weight="true"
       only_selected="false" />
    <inkscape:path-effect
       effect="bspline"
       id="path-effect3738"
       is_visible="true"
       weight="33.333333"
       steps="2"
       helper_size="0"
       apply_no_weight="true"
       apply_with_weight="true"
       only_selected="false" />
  </defs>
  <sodipodi:namedview
     id="base"
     pagecolor="#ffffff"
     bordercolor="#666666"
     borderopacity="1.0"
     inkscape:pageopacity="0.0"
     inkscape:pageshadow="2"
     inkscape:zoom="0.98994949"
     inkscape:cx="99.947079"
     inkscape:cy="307.52904"
     inkscape:document-units="px"
     inkscape:current-layer="layer2"
     showgrid="false"
     units="px"
     inkscape:window-width="1920"
     inkscape:window-height="1001"
     inkscape:window-x="-9"
     inkscape:window-y="-9"
     inkscape:window-maximized="1"
     showguides="false"
     inkscape:guide-bbox="true">
    <inkscape:grid
       type="xygrid"
       id="grid21" />
  </sodipodi:namedview>
  <metadata
     id="metadata5">
    <rdf:RDF>
      <cc:Work
         rdf:about="">
        <dc:format>image/svg+xml</dc:format>
        <dc:type
           rdf:resource="http://purl.org/dc/dcmitype/StillImage" />
        <dc:title></dc:title>
      </cc:Work>
    </rdf:RDF>
  </metadata>
  <g
     inkscape:label="圖層 1"
     inkscape:groupmode="layer"
     id="layer1"
     transform="translate(0,-161.53331)" />
  <g
     inkscape:groupmode="layer"
     id="layer2"
     inkscape:label="圖層 2">
    <path
       style="fill:#000000;stroke:none;stroke-width:1px;stroke-linecap:butt;stroke-linejoin:miter;stroke-opacity:1;fill-opacity:1"
       d="M 120.20815,130.66741 C 120.20815,130.66741 138.3909,131.67757 160.61425,128.64711 182.83761,125.61665 187.88837,126.12173 191.42391,121.07096 194.95944,116.0202 203.04066,117.03035 211.62696,125.11157 220.21326,133.1928 224.25387,139.75879 221.72848,144.30447 219.2031,148.85016 213.14219,149.86031 209.60665,152.89077 206.07112,155.92123 205.06097,161.47707 202.03051,169.55829 199.00005,177.63951 189.4036,189.76134 190.91883,194.30702 192.43406,198.85271 195.96959,196.83241 200.51528,198.85271 205.06097,200.87302 213.14219,207.94408 208.09142,209.96439 203.04066,211.98469 191.92898,211.47962 187.88837,210.97454 183.84776,210.46947 149.50258,218.55069 145.46197,219.56084 141.42136,220.57099 131.82491,220.57099 123.23861,224.10652 114.65231,227.64206 110.10663,234.71313 105.56094,229.15729 101.01525,223.60145 105.05586,221.58114 105.56094,212.48977 106.06602,203.3984 108.08632,192.28672 103.54064,182.69027 98.994949,173.09382 101.52033,167.03291 88.893424,160.97199 76.266517,154.91108 68.690373,156.4263 70.205602,151.88062 71.720831,147.33493 76.771593,143.7994 85.862966,144.30447 94.954339,144.80955 102.02541,146.32478 109.09647,152.89077 116.16754,159.45676 116.67262,171.07352 117.1777,175.6192 117.68277,180.16489 116.16754,190.26641 116.16754,195.31718 116.16754,200.36794 112.12693,206.42885 114.14724,208.95424 116.16754,211.47962 112.63201,214.005 134.85536,206.93393 157.07872,199.86286 167.68532,199.35779 170.2107,197.33748 172.73609,195.31718 185.86807,152.89077 186.37314,148.34508 186.87822,143.7994 188.39345,137.73848 183.84776,137.73848 179.30208,137.73848 168.1904,136.72833 156.06857,142.28417 143.94674,147.84001 142.93659,152.38569 138.89598,153.39585 134.85536,154.406 121.72338,150.87046 120.71323,144.80955 119.70308,138.74863 113.64216,133.69787 120.20815,130.66741 Z"
       id="path4910"
       inkscape:connector-curvature="0" />
    <path
       style="fill:#000000;stroke:none;stroke-width:1px;stroke-linecap:butt;stroke-linejoin:miter;stroke-opacity:1;fill-opacity:1"
       d="M 112.12693,227.13698 C 116.67262,227.13698 135.36044,237.23851 140.91628,238.75374 146.47212,240.26897 150.00765,247.84511 151.52288,252.89587 153.03811,257.94663 148.49242,301.88827 148.49242,306.43396 148.49242,310.97964 146.47212,331.18269 146.47212,335.2233 146.47212,339.26391 145.96704,350.37559 142.93659,352.3959 139.90613,354.4162 139.90613,354.92128 136.37059,343.8096 132.83506,332.69792 132.32998,303.4035 133.34014,298.35274 134.35029,293.30197 132.83506,271.58369 132.83506,267.03801 132.83506,262.49232 132.83506,256.43141 127.27922,248.35019 121.72338,240.26897 105.56094,228.14713 112.12693,227.13698 Z"
       id="path4912"
       inkscape:connector-curvature="0" />
    <path
       style="fill:#000000;stroke:none;stroke-width:1px;stroke-linecap:butt;stroke-linejoin:miter;stroke-opacity:1;fill-opacity:1"
       d="M 168.1904,245.8248 C 168.1904,245.8248 174.75639,247.34003 177.78685,244.81465 180.81731,242.28927 188.39345,244.81465 190.91883,245.31973 193.44421,245.8248 204.55589,246.83496 206.07112,252.3908 207.58635,257.94663 209.60665,264.51263 206.5762,268.04816 203.54574,271.58369 196.97975,274.10908 191.42391,273.604 185.86807,273.09892 178.29192,257.94663 176.27162,255.92633 174.25131,253.90602 164.65486,247.84511 168.1904,245.8248 Z"
       id="path4916"
       inkscape:connector-curvature="0" />
    <path
       style="fill:#000000;stroke:none;stroke-width:1px;stroke-linecap:butt;stroke-linejoin:miter;stroke-opacity:1;fill-opacity:1"
       d="M 47.47717,270.57354 C 61.114229,278.14969 47.47717,283.70552 52.527932,288.25121 57.578695,292.7969 67.175144,297.34258 70.710678,303.90858 74.246212,310.47457 82.327432,327.64716 81.31728,337.24361 80.307127,346.84006 72.730983,367.04311 77.27667,370.57864 81.822356,374.11418 91.418805,363.0025 120.20815,358.96189 148.9975,354.92128 163.13964,350.88067 182.33253,354.4162 201.52543,357.95174 196.97975,359.97204 203.04066,366.53803 209.10158,373.10402 210.11173,375.62941 196.97975,375.62941 183.84776,375.62941 164.65486,374.11418 152.02796,372.59895 139.40105,371.08372 134.85536,372.59895 116.67262,376.63956 98.489873,380.68017 80.812204,381.69032 78.791899,384.2157 76.771593,386.74108 79.296975,396.33753 72.225907,394.31723 65.154839,392.29692 51.012704,386.23601 55.55839,380.68017 60.104076,375.12433 66.670068,381.69032 67.680221,375.12433 68.690373,368.55834 70.710678,347.85021 67.680221,340.27407 64.649763,332.69792 62.124382,321.08117 56.063466,318.05071 50.002551,315.02025 34.345187,317.04056 36.365492,301.88827 38.385797,286.73598 31.819805,280.16999 47.47717,270.57354 Z"
       id="path4918"
       inkscape:connector-curvature="0" />
    <path
       style="fill:#000000;stroke:none;stroke-width:1px;stroke-linecap:butt;stroke-linejoin:miter;stroke-opacity:1;fill-opacity:1"
       d="M 291.93409,93.29177 C 291.93409,93.29177 323.75389,95.817151 340.42141,97.33238 357.08892,98.847609 362.64476,103.3933 364.15999,111.97959 365.67522,120.56589 359.61431,127.13188 355.5737,127.13188 351.53309,127.13188 329.81481,115.01005 326.27927,115.01005 322.74374,115.01005 294.96454,94.301922 291.93409,93.29177 Z"
       id="path4920"
       inkscape:connector-curvature="0" />
    <path
       style="fill:#000000;stroke:none;stroke-width:1px;stroke-linecap:butt;stroke-linejoin:miter;stroke-opacity:1;fill-opacity:1"
       d="M 238.90108,166.02275 C 238.90108,166.02275 258.59905,176.62935 279.30718,172.08367 300.01531,167.53798 370.72598,162.9923 374.76659,160.46691 378.8072,157.94153 414.66762,155.41615 422.74884,152.38569 430.83006,149.35524 443.96204,141.27402 460.62956,141.27402 477.29708,141.27402 485.3783,142.28417 489.41891,149.86031 493.45952,157.43646 496.99505,163.49737 488.91383,161.98214 480.83261,160.46691 465.17525,161.98214 457.09403,162.48722 449.01281,162.9923 443.45697,166.52783 432.34529,164.00245 421.23361,161.47707 393.45442,165.51768 385.3732,166.52783 377.29198,167.53798 344.46202,170.06336 317.69298,175.6192 290.92393,181.17504 276.27672,190.26641 265.67012,191.27657 255.06352,192.28672 249.50768,189.25626 249.0026,184.2055 248.49753,179.15474 241.42646,176.12428 239.40615,168.04306 237.38585,159.96184 238.90108,166.02275 238.90108,166.02275 Z"
       id="path4922"
       inkscape:connector-curvature="0" />
    <path
       style="fill:#000000;stroke:none;stroke-width:1px;stroke-linecap:butt;stroke-linejoin:miter;stroke-opacity:1;fill-opacity:1"
       d="M 324.25897,181.68012 C 331.33004,181.68012 346.9874,180.16489 353.55339,189.76134 360.11938,199.35779 364.15999,205.4187 356.07877,208.44916 347.99755,211.47962 344.46202,212.48977 329.30973,220.57099 314.15744,228.65221 301.53053,235.72328 293.44931,238.75374 285.36809,241.78419 287.89348,239.25881 301.02546,226.12683 314.15744,212.99485 320.72343,207.43901 322.74374,200.87302 324.76404,194.30702 319.71328,178.64966 324.25897,181.68012 Z"
       id="path4924"
       inkscape:connector-curvature="0" />
    <path
       style="fill:#000000;stroke:none;stroke-width:1px;stroke-linecap:butt;stroke-linejoin:miter;stroke-opacity:1;fill-opacity:1"
       d="M 247.99245,244.81465 C 247.99245,244.81465 278.29703,252.3908 297.995,248.35019 317.69298,244.30958 340.92648,242.79435 351.53309,240.26897 362.13969,237.74358 363.14984,234.71313 365.67522,240.26897 368.2006,245.8248 343.95694,253.40095 324.25897,260.47202 304.56099,267.54308 300.01531,270.57354 287.89348,280.16999 275.77165,289.76644 262.63966,288.25121 256.57875,276.63446 250.51783,265.0177 242.94169,249.86541 247.99245,244.81465 Z"
       id="path4926"
       inkscape:connector-curvature="0" />
    <path
       style="fill:#000000;stroke:none;stroke-width:1px;stroke-linecap:butt;stroke-linejoin:miter;stroke-opacity:1;fill-opacity:1"
       d="M 361.12954,224.10652 C 363.65492,223.60145 391.43411,218.04561 402.54579,227.64206 413.65747,237.23851 422.74884,242.79435 419.71838,248.85526 416.68793,254.91618 409.11178,261.48217 403.05087,257.44156 396.98995,253.40095 377.29198,243.8045 369.21076,237.74358 361.12954,231.68267 357.594,226.12683 361.12954,224.10652 Z"
       id="path4928"
       inkscape:connector-curvature="0" />
    <path
       style="fill:#000000;stroke:none;stroke-width:1px;stroke-linecap:butt;stroke-linejoin:miter;stroke-opacity:1;fill-opacity:1"
       d="M 244.96199,321.08117 C 248.49753,321.08117 264.65997,319.56594 273.24626,326.13193 281.83256,332.69792 287.89348,335.72838 281.32748,350.88067 274.76149,366.03296 250.51783,410.47967 241.93153,414.0152 233.34524,417.55074 226.27417,423.10658 216.67772,420.07612 207.08127,417.04566 208.09142,419.57104 220.21326,411.48982 232.33509,403.4086 235.36554,399.36799 244.45692,383.20555 253.54829,367.04311 261.62951,357.95174 261.12443,347.85021 260.61936,337.74869 255.56859,332.19285 244.96199,321.08117 Z"
       id="path4930"
       inkscape:connector-curvature="0" />
    <path
       style="fill:#000000;stroke:none;stroke-width:1px;stroke-linecap:butt;stroke-linejoin:miter;stroke-opacity:1;fill-opacity:1"
       d="M 299.51023,309.96949 C 299.51023,309.96949 319.2082,313.50502 326.78435,319.06086 334.36049,324.6167 335.87572,332.19285 334.86557,339.76899 333.85542,347.34514 326.27927,356.43651 326.27927,372.59895 326.27927,388.76139 326.78435,407.95429 321.73359,414.0152 316.68282,420.07612 317.1879,426.13703 312.13714,423.61165 307.08637,421.08627 295.9747,408.96444 301.53053,405.93398 307.08637,402.90353 308.6016,410.98475 312.13714,394.31723 315.67267,377.64971 321.73359,355.42636 319.2082,347.85021 316.68282,340.27407 322.23866,340.77914 313.14729,330.17254 304.05592,319.56594 291.42901,313.50502 299.51023,309.96949 Z"
       id="path4932"
       inkscape:connector-curvature="0" />
    <path
       style="fill:#000000;stroke:none;stroke-width:1px;stroke-linecap:butt;stroke-linejoin:miter;stroke-opacity:1;fill-opacity:1"
       d="M 344.46202,288.75629 C 346.48232,288.75629 367.69553,300.37304 380.32243,300.37304 392.94934,300.37304 400.02041,298.35274 404.56609,308.45426 409.11178,318.55579 408.6067,326.13193 406.5864,331.68777 404.56609,337.24361 390.92904,349.87052 393.95949,364.01265 396.98995,378.15479 392.44426,386.23601 416.68793,393.30708 440.93159,400.37814 456.08387,400.88322 464.16509,401.89337 472.24632,402.90353 477.29708,400.37814 483.35799,406.94414 489.41891,413.51013 501.54074,416.54058 501.03566,423.61165 500.53059,430.68272 489.92398,425.12688 476.28693,424.6218 462.64987,424.11673 446.9925,420.07612 434.87067,416.03551 422.74884,411.9949 394.96965,405.93398 388.90873,395.32738 382.84781,384.72078 380.82751,353.40605 380.82751,345.32483 380.82751,337.24361 390.42396,325.12178 381.33259,320.07102 372.24121,315.02025 357.08892,311.9898 354.56354,306.43396 352.03816,300.87812 341.43156,292.29182 344.46202,288.75629 Z"
       id="path4938"
       inkscape:connector-curvature="0" />
  </g>
</svg>
