<?xml version="1.0" encoding="UTF-8" standalone="no"?>
<!-- Created with Inkscape (http://www.inkscape.org/) -->

<svg
   xmlns:dc="http://purl.org/dc/elements/1.1/"
   xmlns:cc="http://creativecommons.org/ns#"
   xmlns:rdf="http://www.w3.org/1999/02/22-rdf-syntax-ns#"
   xmlns:svg="http://www.w3.org/2000/svg"
   xmlns="http://www.w3.org/2000/svg"
   xmlns:sodipodi="http://sodipodi.sourceforge.net/DTD/sodipodi-0.dtd"
   xmlns:inkscape="http://www.inkscape.org/namespaces/inkscape"
   version="1.1"
   id="svg3713"
   width="512"
   height="512"
   viewBox="0 0 512 512"
   sodipodi:docname="U+768B.svg"
   inkscape:version="0.92.4 (5da689c313, 2019-01-14)">
  <metadata
     id="metadata3719">
    <rdf:RDF>
      <cc:Work
         rdf:about="">
        <dc:format>image/svg+xml</dc:format>
        <dc:type
           rdf:resource="http://purl.org/dc/dcmitype/StillImage" />
        <dc:title></dc:title>
      </cc:Work>
    </rdf:RDF>
  </metadata>
  <defs
     id="defs3717" />
  <sodipodi:namedview
     pagecolor="#ffffff"
     bordercolor="#666666"
     borderopacity="1"
     objecttolerance="10"
     gridtolerance="10"
     guidetolerance="10"
     inkscape:pageopacity="0"
     inkscape:pageshadow="2"
     inkscape:window-width="1920"
     inkscape:window-height="1017"
     id="namedview3715"
     showgrid="false"
     inkscape:zoom="1.6523438"
     inkscape:cx="256"
     inkscape:cy="256"
     inkscape:window-x="-8"
     inkscape:window-y="-8"
     inkscape:window-maximized="1"
     inkscape:current-layer="svg3713" />
  <path
     style="fill:#000000;stroke:#000000;stroke-width:1px;stroke-linecap:butt;stroke-linejoin:miter;stroke-opacity:1;fill-opacity:1"
     d="m 165.67871,5.7594834 c 0,0 27.22961,13.0395286 31.83179,21.4768706 4.60219,8.437342 1.91758,6.90328 0,10.35492 -1.91757,3.451639 -20.32632,16.874683 -25.69554,19.942808 -5.36921,3.068124 -16.10765,10.738435 -23.39444,10.354919 -7.2868,-0.383515 -11.50547,-3.835155 -9.97141,-4.602186 1.53406,-0.767031 16.10765,-9.587889 21.09336,-18.792262 4.9857,-9.204373 9.9714,-16.107653 9.58788,-24.544994 -0.38351,-8.437342 -5.36921,-10.3549201 -3.45164,-14.1900756 z"
     id="path3723"
     inkscape:connector-curvature="0"
     sodipodi:nodetypes="cscsssscc" />
  <path
     style="fill:#000000;stroke:#000000;stroke-width:1px;stroke-linecap:butt;stroke-linejoin:miter;stroke-opacity:1;fill-opacity:1"
     d="m 98.94701,45.6451 c 0,0 12.2725,9.971404 21.47687,17.641715 9.20437,7.670311 16.10765,9.204373 20.32632,16.874684 4.21868,7.670311 6.13625,12.272497 4.98571,18.408746 -1.15055,6.136245 0.76703,18.025235 1.15054,20.326325 0.38352,2.30109 2.68461,8.05382 0.76703,13.42304 -1.91757,5.36922 -0.76703,11.12195 -5.75273,8.05383 -4.9857,-3.06813 -10.35492,-13.42305 -11.88898,-21.47687 C 128.47771,110.84274 126.94364,97.803214 123.492,90.516418 120.04036,83.229623 115.43818,76.709859 110.06896,70.190095 104.69974,63.67033 93.961308,51.014318 98.94701,45.6451 Z"
     id="path3725"
     inkscape:connector-curvature="0"
     sodipodi:nodetypes="cscccccsssc" />
  <path
     style="fill:#000000;stroke:#000000;stroke-width:1px;stroke-linecap:butt;stroke-linejoin:miter;stroke-opacity:1;fill-opacity:1"
     d="m 192.90832,52.54838 c 0,0 9.58789,-0.767031 26.46257,-4.218671 16.87468,-3.45164 44.10429,-8.053827 53.69218,-10.35492 9.58789,-2.301093 46.02186,-8.437342 56.37678,-9.587889 10.35492,-1.150546 18.40875,-2.301093 26.46257,3.45164 8.05383,5.752734 13.03953,12.272498 13.80656,17.641715 0.76703,5.369218 -6.90328,15.340622 -17.2582,23.010933 -10.35492,7.670311 -32.2153,29.914212 -36.43397,31.064762 -4.21867,1.15054 -6.51977,1.91757 -8.82086,-1.91758 -2.30109,-3.835156 0.38352,2.30109 7.2868,-9.587889 6.90327,-11.888982 13.42304,-28.380151 15.34062,-32.982337 1.91757,-4.602187 7.28679,-8.820858 1.53406,-14.957106 -5.75273,-6.136249 -6.13625,-6.519764 -19.55929,-4.985702 -13.42305,1.534062 -26.46258,3.068124 -31.44828,4.218671 -4.9857,1.150546 -7.67031,-1.150547 -9.9714,2.684608 -2.3011,3.835156 -1.15055,6.136249 4.21867,9.971405 5.36922,3.835155 5.36922,1.917577 5.36922,8.437342 0,6.519764 -0.38352,7.67031 -3.06813,13.806559 -2.68461,6.136249 -3.45164,7.670311 -5.36922,12.656013 -1.91757,4.985702 -5.36921,4.985702 -1.15054,4.602186 4.21867,-0.383515 12.65601,-4.985702 16.87468,-1.917577 4.21867,3.068124 14.19008,8.053827 7.67031,9.204377 -6.51976,1.15054 -18.40874,3.45164 -22.62741,3.83515 -4.21868,0.38352 -29.14719,6.51977 -32.98234,6.51977 -3.83516,0 -10.35492,-0.76704 -10.35492,2.30109 0,3.06812 8.43734,8.05383 12.2725,9.9714 3.83515,1.91758 5.36921,4.60219 6.13625,7.2868 0.76703,2.68461 1.15054,7.28679 1.15054,9.20437 0,1.91758 4.60219,0.76703 14.19008,-1.15055 9.58789,-1.91757 16.49117,-7.28679 21.86038,-5.75273 5.36922,1.53406 15.72414,5.75273 16.49117,7.2868 0.76703,1.53406 -0.38351,8.05382 -5.75273,8.43734 -5.36922,0.38351 -25.69554,6.51976 -29.14718,6.51976 -3.45164,0 -17.64172,-0.38351 -19.17578,1.91758 -1.53406,2.30109 -16.49117,36.05046 -9.9714,34.89991 6.51976,-1.15054 62.51303,-7.67031 66.34818,-8.05382 3.83516,-0.38352 30.68125,-3.06813 44.48781,-5.36922 13.80656,-2.30109 31.44827,-9.58789 37.20101,-8.43734 5.75273,1.15055 24.92851,7.28679 35.28342,14.95711 10.35492,7.67031 14.95711,13.03952 10.35492,14.57359 -4.60218,1.53406 -21.09335,1.91757 -30.68124,-1.15055 -9.58789,-3.06813 -28.76366,-4.21867 -36.05046,-4.9857 -7.2868,-0.76703 -54.07569,0.38351 -57.91085,0.38351 -3.83515,0 -26.07905,-1.53406 -26.84608,1.15055 -0.76704,2.68461 8.43734,6.90328 16.10765,14.57359 7.67031,7.67031 6.90328,12.65601 2.30109,16.87468 -4.60219,4.21867 -36.05046,27.61312 -41.41968,31.44828 -5.36921,3.83515 -14.19007,9.58789 -18.02523,11.12195 -3.83515,1.53406 -15.34062,7.28679 -11.50546,2.68461 3.83515,-4.60219 16.10765,-9.97141 23.39444,-21.09336 7.2868,-11.12195 20.70984,-26.07905 21.86039,-34.13288 1.15055,-8.05383 2.68461,-15.34062 -0.76703,-17.64172 -3.45164,-2.30109 -7.67031,-2.6846 -20.32632,-1.53406 -12.65602,1.15055 -38.73507,6.90328 -72.86796,13.80656 -34.13288,6.90328 -79.0042,20.32633 -92.043728,25.69554 -13.039529,5.36922 -9.971405,13.42305 -25.312026,3.45164 -15.340622,-9.9714 -34.899915,-25.69554 -24.544995,-25.69554 10.35492,0 9.971404,6.51977 29.914212,3.06813 19.942809,-3.45164 93.194277,-14.57359 105.850287,-16.87469 12.65602,-2.30109 50.62405,-4.21867 53.30866,-7.28679 2.68461,-3.06813 -0.38351,-25.31203 -3.06812,-27.99664 -2.68461,-2.68461 -11.12195,-9.9714 -16.87468,-5.75273 -5.75274,4.21867 -16.49117,19.17578 -23.77797,16.87468 -7.28679,-2.30109 -19.17578,-6.51976 -22.2439,-11.50546 -3.06812,-4.98571 -12.2725,-12.65602 -3.06812,-10.73844 9.20437,1.91758 16.10765,3.45164 32.2153,0 16.10765,-3.45164 23.39445,-1.91758 26.84609,-4.60218 3.45164,-2.68461 3.06812,-18.02524 0.38352,-22.62742 -2.68461,-4.60219 -3.06813,-10.73844 -7.2868,-10.35492 -4.21867,0.38351 -10.73844,8.82086 -18.02523,6.90328 -7.2868,-1.91758 -16.87468,-12.2725 -15.34062,-16.10765 1.53406,-3.83516 8.05382,-3.06813 14.57359,-3.06813 6.51976,0 43.33725,-5.75273 51.00757,-7.67031 7.67031,-1.917577 16.10765,-1.150546 17.64171,-4.218671 1.53406,-3.068124 -0.38352,-28.763665 -0.76703,-31.448274 -0.38352,-2.684609 1.91758,-9.204373 -6.13625,-11.888982 -8.05383,-2.684609 -19.17578,-0.767031 -23.77796,0.767031 -4.60219,1.534062 -8.82086,7.286795 -16.49117,7.670311 -7.67031,0.383516 -23.39445,-3.835155 -18.02523,-7.286795 z"
     id="path3727"
     inkscape:connector-curvature="0"
     sodipodi:nodetypes="csssssscsscssscssscssccssccscsccssccssccssscsssscsscssssssscsssssscscssssscsssc" />
  <path
     style="fill:#000000;stroke:#000000;stroke-width:1px;stroke-linecap:butt;stroke-linejoin:miter;stroke-opacity:1;fill-opacity:1"
     d="m 194.8259,63.67033 c 0,0 14.57359,0.767032 21.86038,5.752734 7.2868,4.985702 10.35492,6.903279 3.83516,16.107652 -6.51977,9.204373 -12.2725,14.957104 -14.57359,16.491164 -2.3011,1.53407 -3.83516,-1.53406 -5.36922,-13.039524 C 199.04457,77.47689 192.5248,66.354939 194.8259,63.67033 Z"
     id="path3729"
     inkscape:connector-curvature="0"
     sodipodi:nodetypes="csscsc" />
  <path
     style="fill:#000000;stroke:#000000;stroke-width:1px;stroke-linecap:butt;stroke-linejoin:miter;stroke-opacity:1;fill-opacity:1"
     d="m 190.22371,219.37764 c 0,0 19.94281,5.36922 28.38015,13.80656 8.43734,8.43734 6.90328,8.05383 4.21867,15.34062 -2.68461,7.2868 -3.83516,16.49117 -8.05383,10.73844 -4.21867,-5.75274 -14.19007,-16.10766 -17.2582,-24.16148 -3.06812,-8.05383 -10.73843,-13.42305 -7.28679,-15.72414 z"
     id="path3731"
     inkscape:connector-curvature="0"
     sodipodi:nodetypes="cssscc" />
  <path
     style="fill:#000000;stroke:#000000;stroke-width:1px;stroke-linecap:butt;stroke-linejoin:miter;stroke-opacity:1;fill-opacity:1"
     d="m 157.24137,282.65771 c 0,0 9.58789,4.9857 32.98234,0 23.39445,-4.98571 78.62069,-9.97141 93.96131,-14.5736 15.34062,-4.60218 19.55929,-6.51976 26.46257,-4.9857 6.90328,1.53406 14.19007,3.45164 17.2582,6.51977 3.06812,3.06812 8.43734,8.05382 0.76703,9.20437 -7.67031,1.15055 -13.80656,1.15055 -19.94281,0 -6.13625,-1.15055 -15.72414,-2.68461 -19.17578,-2.30109 -3.45164,0.38351 -37.201,6.51976 -48.32295,7.28679 -11.12195,0.76703 1.15054,5.36922 7.67031,8.05383 6.51976,2.68461 14.19007,7.28679 18.40874,16.10765 4.21867,8.82086 -0.76703,10.35492 3.06813,11.50547 3.83515,1.15054 17.64171,0.76703 34.89991,-3.06813 17.2582,-3.83515 33.74937,-5.75273 43.33726,-2.68461 9.58789,3.06813 18.02523,9.20438 19.55929,13.03953 1.53406,3.83516 9.97141,9.97141 -5.36922,8.43734 -15.34062,-1.53406 -40.65264,-5.36921 -52.54163,-5.75273 -11.88898,-0.38351 -28.76366,1.15055 -35.28343,4.21867 -6.51976,3.06813 -8.43734,-1.53406 -9.20437,11.50547 -0.76703,13.03953 -1.87312,55.60583 1.15055,90.12615 2.30109,26.27082 5.07075,32.81925 3.25988,45.06308 -1.45064,9.80817 -5.46253,28.69192 -14.57359,27.2296 0,0 -17.2582,-17.06644 -14.38183,-27.99663 2.87636,-10.9302 5.94449,-45.25484 8.05382,-60.21194 2.10934,-14.95711 4.27422,-19.381 5.35897,-45.68608 1.08474,-26.30509 3.25424,-34.71187 -1.89831,-37.15255 -5.15254,-2.44068 -39.59322,2.44068 -57.49152,8.94916 -17.89831,6.50847 -38.77966,18.44067 -46.1017,20.06779 -7.32203,1.62712 -14.64407,-4.06779 -24.13559,-10.57627 -9.49153,-6.50847 -26.847458,-17.35593 -7.59322,-15.72881 19.25424,1.62712 14.10169,5.15254 33.35593,0 19.25424,-5.15255 59.66102,-11.93221 65.08475,-12.74577 5.42373,-0.81356 33.35593,-1.35593 34.71186,-4.61017 1.35593,-3.25423 4.0678,-2.98305 -3.25424,-11.11864 -7.32203,-8.13559 -12.20339,-16.54237 -20.61017,-20.33898 -8.40677,-3.79661 -16,-3.25424 -22.23728,1.62712 -6.23729,4.88135 -15.45763,9.49152 -21.69492,10.30508 -6.23729,0.81356 -11.66102,-2.98305 -19.79661,-9.49152 -8.13559,-6.50848 -10.94099,-10.14221 -5.74168,-10.22365 5.19931,-0.0814 0,0 0,0 v 0"
     id="path3733"
     inkscape:connector-curvature="0"
     sodipodi:nodetypes="csssssscssscssssscsssccssssscssscsscssccc" />
</svg>
