<?xml version="1.0" encoding="UTF-8" standalone="no"?>
<!-- Created with Inkscape (http://www.inkscape.org/) -->

<svg
   xmlns:dc="http://purl.org/dc/elements/1.1/"
   xmlns:cc="http://creativecommons.org/ns#"
   xmlns:rdf="http://www.w3.org/1999/02/22-rdf-syntax-ns#"
   xmlns:svg="http://www.w3.org/2000/svg"
   xmlns="http://www.w3.org/2000/svg"
   xmlns:sodipodi="http://sodipodi.sourceforge.net/DTD/sodipodi-0.dtd"
   xmlns:inkscape="http://www.inkscape.org/namespaces/inkscape"
   width="512"
   height="512"
   viewBox="0 0 512 512"
   version="1.1"
   id="svg8"
   inkscape:version="0.92.4 (5da689c313, 2019-01-14)"
   sodipodi:docname="U+7D44.svg">
  <defs
     id="defs2">
    <inkscape:path-effect
       effect="bspline"
       id="path-effect3742"
       is_visible="true"
       weight="33.333333"
       steps="2"
       helper_size="0"
       apply_no_weight="true"
       apply_with_weight="true"
       only_selected="false" />
    <inkscape:path-effect
       effect="bspline"
       id="path-effect3738"
       is_visible="true"
       weight="33.333333"
       steps="2"
       helper_size="0"
       apply_no_weight="true"
       apply_with_weight="true"
       only_selected="false" />
  </defs>
  <sodipodi:namedview
     id="base"
     pagecolor="#ffffff"
     bordercolor="#666666"
     borderopacity="1.0"
     inkscape:pageopacity="0.0"
     inkscape:pageshadow="2"
     inkscape:zoom="1.4"
     inkscape:cx="296.01542"
     inkscape:cy="244.78889"
     inkscape:document-units="px"
     inkscape:current-layer="layer2"
     showgrid="false"
     units="px"
     inkscape:window-width="1920"
     inkscape:window-height="1001"
     inkscape:window-x="-9"
     inkscape:window-y="-9"
     inkscape:window-maximized="1"
     showguides="false"
     inkscape:guide-bbox="true">
    <inkscape:grid
       type="xygrid"
       id="grid21" />
  </sodipodi:namedview>
  <metadata
     id="metadata5">
    <rdf:RDF>
      <cc:Work
         rdf:about="">
        <dc:format>image/svg+xml</dc:format>
        <dc:type
           rdf:resource="http://purl.org/dc/dcmitype/StillImage" />
        <dc:title></dc:title>
      </cc:Work>
    </rdf:RDF>
  </metadata>
  <g
     inkscape:label="圖層 1"
     inkscape:groupmode="layer"
     id="layer1"
     transform="translate(0,-161.53331)" />
  <g
     inkscape:groupmode="layer"
     id="layer2"
     inkscape:label="圖層 2">
    <path
       style="fill:#000000;stroke:none;stroke-width:1px;stroke-linecap:butt;stroke-linejoin:miter;stroke-opacity:1;fill-opacity:1"
       d="M 86.785714,76.642856 C 86.785714,76.642856 97.5,77.714285 105,81.642856 112.5,85.571428 117.5,95.571428 120.35714,102 123.21429,108.42857 128.92857,118.07143 127.14286,124.85714 125.32335,131.66459 112.62729,145.91511 109.73214,148.25 107.1455,150.33608 105.80357,151.94555 103.21428,154.32143 101.29355,156.08386 98.552714,158.84364 96.696429,161.19642 92.789135,166.14879 91.829253,167.51363 90,170.21429 87.946429,173.42857 87.5,174.5 95.714286,174.5 103.92857,174.5 112.5,172.35714 117.14286,173.42857 121.78571,174.5 122.5,174.14286 126.07143,168.78571 129.64286,163.42857 142.14286,145.92857 144.64286,142 147.14286,138.07143 151.07143,134.5 153.57143,127.71429 156.07143,120.92857 157.76785,111.55358 160.625,111.91072 163.48214,112.26786 163.57143,116.28571 164.64286,120.57143 165.71429,124.85714 165.89285,130.125 166.60714,135.125 167.32143,140.125 161.25,148.33928 157.67857,152.98214 154.10714,157.625 142.85714,181.28571 140.35714,184.5 137.85714,187.71429 116.42857,217 110.35714,222.35714 104.28571,227.71429 98.214286,232.35714 102.14286,233.07143 106.07143,233.78571 125.71429,229.5 131.42857,230.21429 137.14286,230.92857 138.92857,233.42857 142.14286,230.92857 145.35714,228.42857 147.14286,219.5 146.42857,217 145.71429,214.5 140.35714,202.35714 146.78571,203.78571 153.21429,205.21429 160,207.35714 163.21429,212.35714 166.42857,217.35714 174.28571,222.71429 173.57143,229.5 172.85714,236.28571 174.28571,234.14286 170.35714,238.78571 166.42857,243.42857 148.57143,258.78571 142.85714,265.57143 137.14286,272.35714 120,290.57143 112.85714,295.92857 105.71429,301.28571 93.214286,308.07143 88.571429,308.42857 83.928572,308.78571 90.714286,305.21429 95.714286,299.85714 100.71429,294.5 112.14286,284.85714 117.85714,276.28571 123.57143,267.71429 130.71429,258.42857 134.28571,252 137.85714,245.57143 138.21429,242.71429 134.64286,242.35714 131.07143,242 116.42857,248.42857 112.14286,251.28571 107.85714,254.14286 93.928572,260.92857 89.642857,265.21429 85.357143,269.5 81.071429,276.28571 75,278.42857 68.928572,280.57143 60.357143,277 58.928572,271.28571 57.5,265.57143 54.642857,257 57.857143,251.28571 61.071429,245.57143 66.785714,244.14286 70.714286,242 74.642857,239.85714 87.142857,227.71429 89.285714,224.85714 91.428572,222 103.21429,207 106.42857,201.28571 109.64286,195.57143 114.28571,191.64286 113.21429,188.42857 112.14286,185.21429 106.07143,186.64286 101.78571,188.78571 97.5,190.92857 74.642857,200.21429 68.928572,205.57143 63.214286,210.92857 57.5,211.64286 51.428572,210.92857 45.357143,210.21429 43.928571,205.92857 44.285714,202 44.642857,198.07143 45.357143,192 46.071429,188.78571 46.785714,185.57143 46.428572,180.57143 49.285714,177.35714 52.142857,174.14286 56.428572,174.5 61.071429,175.57143 65.714286,176.64286 65.357143,177 69.642857,172.35714 73.928572,167.71429 82.5,157.71429 85,152.71429 87.5,147.71429 95.714286,136.64286 96.428572,132 97.142857,127.35714 100.71429,120.21429 101.42857,113.78571 102.14286,107.35714 103.57143,100.57143 98.928572,93.428571 94.285714,86.285714 86.428572,80.571428 86.785714,76.642856 Z"
       id="path4722"
       inkscape:connector-curvature="0"
       sodipodi:nodetypes="csccssscsssssssssssccccccccsssccccscssssccccscsscscsscsc" />
    <path
       style="fill:#000000;stroke:none;stroke-width:1px;stroke-linecap:butt;stroke-linejoin:miter;stroke-opacity:1;fill-opacity:1"
       d="M 7.0710678,336.23346 C 7.0710678,336.23346 17.425131,340.77914 36.365492,335.47584 55.305852,330.17254 143.44166,305.17127 152.02796,301.38319 160.61425,297.59512 164.40233,294.56466 167.68532,295.32228 170.96832,296.07989 170.71578,295.82736 163.64471,304.41365 156.57364,312.99995 154.55334,317.04056 147.48227,319.81848 140.4112,322.5964 105.3084,335.72838 101.52033,337.49615 97.732259,339.26391 58.841386,353.40605 55.053314,355.67889 51.265242,357.95173 48.234785,360.9822 42.931483,363.50757 37.833097,365.93537 32.57742,366.2855 27.526657,363.76011 22.475894,361.23473 20.455589,358.20427 16.920055,353.40605 13.384521,348.60783 3.0304576,340.02153 7.0710678,336.23346 Z"
       id="path4726"
       inkscape:connector-curvature="0"
       sodipodi:nodetypes="csscsscsscsc" />
    <path
       style="fill:#000000;stroke:none;stroke-width:1px;stroke-linecap:butt;stroke-linejoin:miter;stroke-opacity:1;fill-opacity:1"
       d="M 264.15489,107.43391 C 264.15489,107.43391 286.37825,115.01005 299.00515,109.45421 311.63206,103.89837 327.28942,95.312075 331.83511,95.312075 336.3808,95.312075 344.96709,96.827304 351.53309,103.3933 358.09908,109.95929 363.14984,114.50497 363.14984,121.57604 363.14984,128.64711 356.58385,133.69787 356.07877,142.28417 355.5737,150.87046 346.48232,201.37809 346.9874,216.53038 347.49248,231.68267 345.97725,262.49232 347.49248,278.14969 349.0077,293.80705 349.0077,309.46441 350.01786,318.05071 351.02801,326.63701 350.01786,333.203 345.47217,340.27407 340.92648,347.34514 343.95694,352.3959 337.89603,355.93143 331.83511,359.46697 326.78435,357.95174 323.75389,347.85021 320.72343,337.74869 314.66252,336.73853 317.1879,327.64716 319.71328,318.55579 325.7742,320.07102 328.29958,312.99995 330.82496,305.92888 331.33004,148.85016 329.81481,141.77909 328.29958,134.70802 331.83511,124.6065 326.27927,122.08112 320.72343,119.55574 315.16759,127.13188 309.10668,129.65726 303.04576,132.18264 295.46962,138.24356 289.91378,138.24356 284.35794,138.24356 274.76149,135.2131 271.73103,128.64711 268.70058,122.08112 258.09398,111.97959 264.15489,107.43391 Z"
       id="path4728"
       inkscape:connector-curvature="0" />
    <path
       style="fill:#000000;stroke:none;stroke-width:1px;stroke-linecap:butt;stroke-linejoin:miter;stroke-opacity:1;fill-opacity:1"
       d="M 225.76909,130.66741 C 230.37657,128.93961 246.6679,141.20252 252.53814,151.37554 258.59905,161.47707 259.86174,168.80068 259.35666,175.36667 258.85159,181.93266 254.55844,189.25626 253.54829,193.80195 252.53814,198.34763 247.23483,209.45931 246.47722,215.52023 245.72286,221.55518 247.23484,236.73343 247.48738,242.28927 247.69882,246.94104 247.363,279.02583 249.50768,285.72583 251.7363,292.68807 253.8998,297.47905 255.5686,309.71695 256.66048,317.72407 255.06352,328.65732 255.31606,335.72838 255.53537,341.86899 255.56859,345.8299 251.0229,349.87051 246.47722,353.91112 233.52622,348.33882 231.07239,342.79945 231.07239,342.79945 234.20738,333.27607 235.36554,328.40477 237.79849,318.17163 239.91123,305.92888 240.92138,297.34258 241.93153,288.75629 241.93153,269.31085 241.42645,262.74486 241.42645,262.74486 240.29408,213.86942 240.16377,205.92377 240.07744,200.65972 237.59175,175.59668 235.36554,165.51768 233.19505,155.69096 220.71833,135.2131 225.76909,130.66741 Z"
       id="path4730"
       inkscape:connector-curvature="0"
       sodipodi:nodetypes="cccsssssscsascssc" />
    <path
       style="fill:#000000;stroke:none;stroke-width:1px;stroke-linecap:butt;stroke-linejoin:miter;stroke-opacity:1;fill-opacity:1"
       d="M 253.57143,203.42857 C 253.57143,203.42857 271.07143,194.85714 277.85714,190.57143 284.64286,186.28571 295.35714,180.92857 301.42857,180.57143 307.5,180.21429 311.42857,182 315.71429,183.78571 320,185.57143 313.92857,194.85714 311.42857,196.64286 308.92857,198.42857 291.78571,209.14286 287.14286,209.5 282.5,209.85714 270.71429,210.21429 265.35714,209.5 260,208.78571 254.28571,207.35714 253.57143,203.42857 Z"
       id="path4732"
       inkscape:connector-curvature="0" />
    <path
       style="fill:#000000;stroke:none;stroke-width:1px;stroke-linecap:butt;stroke-linejoin:miter;stroke-opacity:1;fill-opacity:1"
       d="M 262.5,261.28571 C 262.5,261.28571 284.64286,253.78571 290.71429,248.42857 296.78571,243.07143 310.35714,249.14286 313.57143,252.35714 316.78571,255.57143 319.28571,258.07143 314.64286,263.78571 310,269.5 292.5,269.85714 287.85714,269.14286 283.21429,268.42857 273.57143,267.35714 269.28571,265.92857 265,264.5 263.21429,265.92857 262.5,261.28571 Z"
       id="path4734"
       inkscape:connector-curvature="0" />
    <path
       style="fill:#000000;stroke:none;stroke-width:1px;stroke-linecap:butt;stroke-linejoin:miter;stroke-opacity:1;fill-opacity:1"
       d="M 126.07143,363.78571 C 126.07143,363.78571 183.21429,346.28571 215.71429,341.28571 248.21429,336.28571 257.14286,333.07143 293.92857,329.14286 330.71429,325.21429 377.5,322 393.57143,320.92857 409.64286,319.85714 424.28571,317.35714 431.42857,319.85714 438.57143,322.35714 448.57143,326.64286 453.21429,332.71429 457.85714,338.78571 463.92857,343.42857 463.21429,348.07143 462.5,352.71429 453.92857,355.21429 447.85714,355.21429 441.78571,355.21429 436.42857,355.57143 425.35714,352.71429 414.28571,349.85714 385.35714,343.42857 373.92857,342 362.5,340.57143 333.21429,334.85714 303.21429,337.71429 273.21429,340.57143 243.21429,345.57143 217.85714,355.57143 192.5,365.57143 174.28571,372.35714 163.92857,378.78571 153.57143,385.21429 151.07143,384.5 144.28571,380.21429 137.5,375.92857 117.85714,371.28571 126.07143,363.78571 Z"
       id="path4736"
       inkscape:connector-curvature="0" />
  </g>
</svg>
