<?xml version="1.0" encoding="UTF-8" standalone="no"?>
<!-- Created with Inkscape (http://www.inkscape.org/) -->

<svg
   xmlns:dc="http://purl.org/dc/elements/1.1/"
   xmlns:cc="http://creativecommons.org/ns#"
   xmlns:rdf="http://www.w3.org/1999/02/22-rdf-syntax-ns#"
   xmlns:svg="http://www.w3.org/2000/svg"
   xmlns="http://www.w3.org/2000/svg"
   xmlns:sodipodi="http://sodipodi.sourceforge.net/DTD/sodipodi-0.dtd"
   xmlns:inkscape="http://www.inkscape.org/namespaces/inkscape"
   width="512"
   height="512"
   viewBox="0 0 512 512"
   version="1.1"
   id="svg8"
   inkscape:version="0.92.4 (5da689c313, 2019-01-14)"
   sodipodi:docname="U+7D22.svg">
  <defs
     id="defs2">
    <inkscape:path-effect
       effect="bspline"
       id="path-effect3742"
       is_visible="true"
       weight="33.333333"
       steps="2"
       helper_size="0"
       apply_no_weight="true"
       apply_with_weight="true"
       only_selected="false" />
    <inkscape:path-effect
       effect="bspline"
       id="path-effect3738"
       is_visible="true"
       weight="33.333333"
       steps="2"
       helper_size="0"
       apply_no_weight="true"
       apply_with_weight="true"
       only_selected="false" />
  </defs>
  <sodipodi:namedview
     id="base"
     pagecolor="#ffffff"
     bordercolor="#666666"
     borderopacity="1.0"
     inkscape:pageopacity="0.0"
     inkscape:pageshadow="2"
     inkscape:zoom="1.4"
     inkscape:cx="245.0291"
     inkscape:cy="250.11402"
     inkscape:document-units="px"
     inkscape:current-layer="layer2"
     showgrid="false"
     units="px"
     inkscape:window-width="1920"
     inkscape:window-height="1001"
     inkscape:window-x="-9"
     inkscape:window-y="-9"
     inkscape:window-maximized="1"
     showguides="false"
     inkscape:guide-bbox="true">
    <inkscape:grid
       type="xygrid"
       id="grid21" />
  </sodipodi:namedview>
  <metadata
     id="metadata5">
    <rdf:RDF>
      <cc:Work
         rdf:about="">
        <dc:format>image/svg+xml</dc:format>
        <dc:type
           rdf:resource="http://purl.org/dc/dcmitype/StillImage" />
        <dc:title></dc:title>
      </cc:Work>
    </rdf:RDF>
  </metadata>
  <g
     inkscape:label="圖層 1"
     inkscape:groupmode="layer"
     id="layer1"
     transform="translate(0,-161.53331)" />
  <g
     inkscape:groupmode="layer"
     id="layer2"
     inkscape:label="圖層 2">
    <path
       style="fill:#000000;stroke:none;stroke-width:1px;stroke-linecap:butt;stroke-linejoin:miter;stroke-opacity:1;fill-opacity:1"
       d="M 190,27 C 190,27 212.63711,48.339981 219.70818,51.875515 226.77925,55.411049 233.34524,60.966888 229.8097,70.563337 226.27417,80.159787 219.70818,96.827304 218.69803,102.38314 217.68787,107.93898 216.17264,113.9999 219.2031,114.50497 222.23356,115.01005 252.53814,100.86791 258.09398,103.89837 263.64981,106.92883 276.7818,106.92883 274.76149,110.96944 272.74119,115.01005 268.70058,121.07096 256.07367,124.6065 243.44676,128.14203 218.69803,135.71818 215.16249,136.22325 211.62696,136.72833 208.5965,136.22325 205.56604,147.84001 202.53559,159.45676 194.95944,179.15474 195.46452,184.2055 195.96959,189.25626 213.64726,184.71058 235.87062,183.19535 258.09398,181.68012 330.82496,177.13443 333.85542,174.10397 336.88587,171.07352 349.0077,168.54813 355.06862,164.00245 361.12954,159.45676 361.12954,157.94153 369.21076,160.97199 377.29198,164.00245 383.85797,168.04306 390.42396,174.60905 396.98995,181.17504 405.07117,184.71058 407.09148,190.26641 409.11178,195.82225 401.03056,199.86286 395.9798,203.3984 390.92904,206.93393 384.36304,213.49992 380.82751,217.03546 377.29198,220.57099 372.24121,230.67252 368.70568,232.69282 365.17015,234.71313 361.12954,241.78419 355.06862,232.69282 349.0077,223.60145 348.50263,224.10652 353.55339,222.08622 358.60415,220.06591 363.14984,208.44916 365.67522,197.33748 368.2006,186.2258 370.72598,181.68012 362.13969,178.64966 353.55339,175.6192 355.06862,178.14458 348.50263,180.16489 341.93664,182.18519 321.22851,183.19535 301.53053,188.24611 281.83256,193.29687 237.89092,200.36794 221.72848,202.38824 205.56604,204.40855 188.39345,205.92378 169.70563,210.46947 151.01781,215.01515 148.49242,217.03546 137.88582,216.53038 127.27922,216.0253 125.76399,210.46947 123.23861,206.42885 120.71323,202.38824 110.6117,193.80195 118.18785,195.31718 125.76399,196.83241 150.51273,195.82225 159.6041,193.80195 168.69548,191.78164 177.78685,190.26641 182.83761,188.75119 187.88837,187.23596 194.45437,147.84001 195.46452,145.31463 196.47467,142.78924 195.46452,140.76894 182.83761,145.31463 170.2107,149.86031 163.64471,153.90092 157.5838,149.86031 151.52288,145.8197 149.50258,142.28417 143.44166,135.71818 137.38075,129.15219 132.83506,121.57604 142.43151,124.6065 152.02796,127.63696 158.08887,131.67757 166.17009,130.16234 174.25131,128.64711 178.797,127.13188 185.86807,125.11157 192.93914,123.09127 197.48482,122.08112 198.49498,110.96944 199.50513,99.857761 201.02036,83.695321 201.02036,77.129329 201.02036,70.563337 203.54574,60.966888 197.48482,53.390744 191.42391,45.8146 181.50502,26.368146 190,27 Z"
       id="path4850"
       inkscape:connector-curvature="0" />
    <path
       style="fill:#000000;stroke:none;stroke-width:1px;stroke-linecap:butt;stroke-linejoin:miter;stroke-opacity:1;fill-opacity:1"
       d="M 62.629458,176.12428 C 62.629458,176.12428 84.347738,189.25626 94.954339,199.86286 105.56094,210.46947 100.0051,216.0253 97.479721,230.16744 94.954339,244.30958 87.883271,273.09892 83.337585,280.67507 78.791899,288.25121 81.822356,289.76644 73.23606,296.33243 64.649763,302.89842 59.093924,296.83751 59.093924,290.27152 59.093924,283.70552 55.55839,271.07862 62.629458,273.604 69.700526,276.12938 73.23606,280.16999 76.771593,257.44156 80.307127,234.71313 83.842661,220.06591 79.802051,209.45931 75.761441,198.85271 55.053314,176.12428 62.629458,176.12428 Z"
       id="path4852"
       inkscape:connector-curvature="0" />
    <path
       style="fill:#000000;stroke:none;stroke-width:1px;stroke-linecap:butt;stroke-linejoin:miter;stroke-opacity:1;fill-opacity:1"
       d="M 186.37314,211.98469 C 186.37314,211.98469 207.08127,217.54053 207.58635,229.15729 208.09142,240.77404 201.02036,234.71313 186.37314,246.32988 171.72593,257.94663 166.67517,260.97709 158.59395,266.53293 150.51273,272.08877 134.85536,286.23091 143.94674,275.11923 153.03811,264.00755 163.13964,254.4111 167.68532,249.36034 172.23101,244.30958 183.84776,231.68267 183.34269,223.60145 182.83761,215.52023 181.32238,210.46947 186.37314,211.98469 Z"
       id="path4854"
       inkscape:connector-curvature="0" />
    <path
       style="fill:#000000;stroke:none;stroke-width:1px;stroke-linecap:butt;stroke-linejoin:miter;stroke-opacity:1;fill-opacity:1"
       d="M 237.38585,232.69282 C 237.38585,232.69282 253.54829,240.77404 255.06352,250.37049 256.57875,259.96694 255.06352,261.98724 246.47722,267.54308 237.89092,273.09892 207.58635,302.39335 202.53559,305.4238 197.48482,308.45426 177.28177,323.60655 172.73609,324.6167 168.1904,325.62686 148.49242,335.2233 157.5838,327.14208 166.67517,319.06086 174.75639,318.55579 186.37314,307.94919 197.9899,297.34258 212.63711,281.68522 213.64726,279.66491 214.65742,277.64461 212.63711,276.12938 201.02036,281.18014 189.4036,286.23091 160.61425,297.34258 152.53303,297.34258 144.45181,297.34258 131.31983,302.89842 127.7843,295.32228 124.24876,287.74613 127.27922,280.16999 130.30968,276.12938 133.34014,272.08877 146.47212,278.65476 159.6041,277.64461 172.73609,276.63446 192.43406,276.12938 201.02036,274.61415 209.60665,273.09892 213.64726,276.12938 218.19295,272.08877 222.73864,268.04816 234.35539,258.95679 232.33509,254.4111 230.31478,249.86541 231.32493,252.89587 227.28432,246.32988 223.24371,239.76389 222.73864,227.13698 237.38585,232.69282 Z"
       id="path4856"
       inkscape:connector-curvature="0" />
    <path
       style="fill:#000000;stroke:none;stroke-width:1px;stroke-linecap:butt;stroke-linejoin:miter;stroke-opacity:1;fill-opacity:1"
       d="M 127.27922,328.15224 C 127.27922,328.15224 141.42136,331.18269 152.53303,332.19285 163.64471,333.203 178.29192,330.67762 189.4036,327.14208 200.51528,323.60655 232.33509,319.06086 238.396,317.04056 244.45692,315.02025 248.49753,316.03041 249.50768,313.50502 250.51783,310.97964 241.93153,302.89842 237.38585,300.87812 232.84016,298.85781 220.21326,291.78674 237.89092,295.82736 255.56859,299.86797 269.20565,309.46441 271.73103,310.97964 274.25642,312.49487 286.37825,321.08117 285.36809,325.62686 284.35794,330.17254 289.4087,337.74869 280.82241,338.25376 272.23611,338.75884 263.14474,326.13193 259.10413,324.11163 255.06352,322.09132 251.52798,320.07102 244.45692,322.5964 237.38585,325.12178 215.16249,333.203 211.12188,335.2233 207.08127,337.24361 175.26147,346.84006 169.20055,347.34514 163.13964,347.85021 163.64471,348.35529 155.05842,352.90097 146.47212,357.44666 139.90613,363.0025 134.35029,352.90097 128.79445,342.79945 128.28937,330.17254 127.27922,328.15224 Z"
       id="path4858"
       inkscape:connector-curvature="0" />
    <path
       style="fill:#000000;stroke:none;stroke-width:1px;stroke-linecap:butt;stroke-linejoin:miter;stroke-opacity:1;fill-opacity:1"
       d="M 121.09575,381.24126 C 126.64158,385.93388 129.90087,393.38854 132.83506,397.34769 135.8424,401.40554 142.43151,400.37814 142.43151,400.37814 142.43151,400.37814 146.9772,397.34769 142.43151,400.37814 137.88583,403.4086 136.87567,409.97459 132.83506,422.6015 128.79445,435.22841 127.27922,439.77409 124.24876,443.30963 121.21831,446.84516 112.12693,449.37054 109.60155,441.28932 107.07617,433.2081 103.03556,426.13703 106.06602,418.05581 109.09647,409.97459 114.14724,404.92383 117.1777,397.34769 117.35101,389.05725 119.72321,384.81269 121.09575,381.24126 Z"
       id="path4860"
       inkscape:connector-curvature="0"
       sodipodi:nodetypes="csccsssccc" />
    <path
       style="fill:#000000;stroke:none;stroke-width:1px;stroke-linecap:butt;stroke-linejoin:miter;stroke-opacity:1;fill-opacity:1"
       d="M 190.41375,347.85021 C 190.41375,347.85021 213.64726,352.90097 218.19295,358.45681 222.73864,364.01265 213.64726,381.18525 213.64726,385.73093 213.64726,390.27662 211.62696,430.68272 213.64726,435.73348 215.66757,440.78425 215.16249,447.35024 219.2031,453.91623 223.24371,460.48222 212.13203,476.64466 209.10158,480.68527 206.07112,484.72588 188.39345,470.07867 185.36299,467.04821 182.33253,464.01775 163.64471,447.85531 162.63456,445.83501 161.62441,443.8147 165.15994,444.82486 178.29192,446.84516 191.42391,448.86547 194.95944,449.87562 198.49498,442.29947 202.03051,434.72333 203.04066,397.34769 202.53559,391.79185 202.03051,386.23601 206.07112,371.5888 197.9899,364.01265 189.90868,356.43651 184.85792,349.87052 190.41375,347.85021 Z"
       id="path4862"
       inkscape:connector-curvature="0" />
    <path
       style="fill:#000000;stroke:none;stroke-width:1px;stroke-linecap:butt;stroke-linejoin:miter;stroke-opacity:1;fill-opacity:1"
       d="M 256.07367,377.14464 C 256.07367,377.14464 278.8021,380.17509 297.995,389.26647 317.1879,398.35784 318.19805,417.04566 320.72343,423.10658 323.24881,429.16749 324.76404,437.75379 321.22851,440.78425 317.69298,443.8147 306.5813,440.27917 304.56099,437.24871 302.54069,434.21825 288.39855,411.48982 283.34779,408.96444 278.29703,406.43906 264.65997,391.79185 256.07367,377.14464 Z"
       id="path4864"
       inkscape:connector-curvature="0" />
  </g>
</svg>
