<?xml version="1.0" encoding="UTF-8" standalone="no"?>
<!-- Created with Inkscape (http://www.inkscape.org/) -->

<svg
   xmlns:dc="http://purl.org/dc/elements/1.1/"
   xmlns:cc="http://creativecommons.org/ns#"
   xmlns:rdf="http://www.w3.org/1999/02/22-rdf-syntax-ns#"
   xmlns:svg="http://www.w3.org/2000/svg"
   xmlns="http://www.w3.org/2000/svg"
   xmlns:xlink="http://www.w3.org/1999/xlink"
   xmlns:sodipodi="http://sodipodi.sourceforge.net/DTD/sodipodi-0.dtd"
   xmlns:inkscape="http://www.inkscape.org/namespaces/inkscape"
   width="512"
   height="512"
   viewBox="0 0 512 512"
   version="1.1"
   id="svg8"
   inkscape:version="0.92.4 (5da689c313, 2019-01-14)"
   sodipodi:docname="U+89E3.svg">
  <defs
     id="defs2">
    <linearGradient
       inkscape:collect="always"
       id="linearGradient4895">
      <stop
         style="stop-color:#000000;stop-opacity:1;"
         offset="0"
         id="stop4891" />
      <stop
         style="stop-color:#000000;stop-opacity:0;"
         offset="1"
         id="stop4893" />
    </linearGradient>
    <inkscape:path-effect
       effect="bspline"
       id="path-effect3742"
       is_visible="true"
       weight="33.333333"
       steps="2"
       helper_size="0"
       apply_no_weight="true"
       apply_with_weight="true"
       only_selected="false" />
    <inkscape:path-effect
       effect="bspline"
       id="path-effect3738"
       is_visible="true"
       weight="33.333333"
       steps="2"
       helper_size="0"
       apply_no_weight="true"
       apply_with_weight="true"
       only_selected="false" />
    <linearGradient
       inkscape:collect="always"
       xlink:href="#linearGradient4895"
       id="linearGradient4897"
       x1="311.32471"
       y1="218.12491"
       x2="344.40763"
       y2="218.12491"
       gradientUnits="userSpaceOnUse" />
  </defs>
  <sodipodi:namedview
     id="base"
     pagecolor="#ffffff"
     bordercolor="#666666"
     borderopacity="1.0"
     inkscape:pageopacity="0.0"
     inkscape:pageshadow="2"
     inkscape:zoom="0.98994949"
     inkscape:cx="202.08613"
     inkscape:cy="210.2807"
     inkscape:document-units="px"
     inkscape:current-layer="layer2"
     showgrid="false"
     units="px"
     inkscape:window-width="1920"
     inkscape:window-height="1001"
     inkscape:window-x="-9"
     inkscape:window-y="-9"
     inkscape:window-maximized="1"
     showguides="false"
     inkscape:guide-bbox="true">
    <inkscape:grid
       type="xygrid"
       id="grid21" />
  </sodipodi:namedview>
  <metadata
     id="metadata5">
    <rdf:RDF>
      <cc:Work
         rdf:about="">
        <dc:format>image/svg+xml</dc:format>
        <dc:type
           rdf:resource="http://purl.org/dc/dcmitype/StillImage" />
        <dc:title></dc:title>
      </cc:Work>
    </rdf:RDF>
  </metadata>
  <g
     inkscape:label="圖層 1"
     inkscape:groupmode="layer"
     id="layer1"
     transform="translate(0,-161.53331)" />
  <g
     inkscape:groupmode="layer"
     id="layer2"
     inkscape:label="圖層 2">
    <path
       style="fill:#000000;stroke:none;stroke-width:1px;stroke-linecap:butt;stroke-linejoin:miter;stroke-opacity:1;fill-opacity:1"
       d="M 157.85714,42.714285 C 157.85714,42.714285 176.42857,48.785714 183.57143,57.357142 190.71429,65.928571 191.07143,63.428571 185,72.357142 178.92857,81.285714 158.92857,106.28571 145.35714,119.85714 131.78571,133.42857 96.785714,167 88.214286,177.35714 79.642857,187.71429 61.785714,203.42857 41.785714,204.85714 21.785714,206.28571 10.714286,205.57143 10,203.07143 9.2857143,200.57143 15,199.5 28.571429,192.35714 42.142857,185.21429 69.642857,168.42857 82.5,155.21429 95.357143,142 131.07143,117.35714 144.64286,104.5 158.21429,91.642856 166.78571,78.071428 169.28571,68.785714 171.78571,59.499999 171.78571,56.285714 167.5,53.071428 163.21429,49.857142 158.57143,48.428571 157.85714,42.714285 Z"
       id="path4877"
       inkscape:connector-curvature="0" />
    <path
       style="fill:#000000;stroke:none;stroke-width:1px;stroke-linecap:butt;stroke-linejoin:miter;stroke-opacity:1;fill-opacity:1"
       d="M 185.35714,74.857142 C 185.35714,74.857142 191.42857,80.214285 202.14286,79.142856 212.85714,78.071428 247.5,69.142856 250.35714,68.071428 253.21429,66.999999 263.92857,67.714285 265.71429,64.857142 267.5,61.999999 266.07143,67.357142 267.85714,63.071428 269.64286,58.785714 258.57143,52.714285 269.64286,52.357142 280.71429,51.999999 285.35714,56.999999 289.28571,60.571428 293.21429,64.142856 301.07143,66.642856 295.71429,72.357142 290.35714,78.071428 286.07143,79.499999 284.28571,80.571428 282.5,81.642856 263.57143,100.92857 260.35714,103.07143 257.14286,105.21429 248.21429,113.78571 242.85714,115.57143 237.5,117.35714 235.35714,117.35714 233.92857,117 232.5,116.64286 234.28571,116.28571 245.35714,105.57143 256.42857,94.857142 264.28571,84.499999 264.64286,81.285714 265,78.071428 265,75.928571 260.71429,75.214285 256.42857,74.499999 248.57143,79.142856 244.64286,79.857142 240.71429,80.571428 221.07143,89.142856 218.57143,90.571428 216.07143,91.999999 208.57143,96.999999 207.14286,96.642856 205.71429,96.285714 201.78571,96.642856 198.21429,91.642856 194.64286,86.642856 180.71429,75.928571 185.35714,74.857142 Z"
       id="path4879"
       inkscape:connector-curvature="0" />
    <path
       style="fill:#000000;stroke:none;stroke-width:1px;stroke-linecap:butt;stroke-linejoin:miter;stroke-opacity:1;fill-opacity:1"
       d="M 141.78571,142 C 141.78571,142 139.28571,149.85714 144.28571,156.28571 149.28571,162.71429 152.85714,170.21429 156.78571,174.5 160.71429,178.78571 161.78571,182 162.14286,188.07143 162.5,194.14286 158.21429,199.14286 157.85714,204.85714 157.5,210.57143 154.64286,219.14286 154.64286,226.64286 154.64286,234.14286 151.07143,259.85714 151.42857,265.21429 151.78571,270.57143 148.92857,277 148.92857,280.21429 148.92857,283.42857 147.5,292.71429 149.28571,296.64286 151.07143,300.57143 157.85714,315.57143 158.21429,318.07143 158.57143,320.57143 157.5,327.71429 155.35714,331.28571 153.21429,334.85714 155,340.92857 147.5,331.28571 140,321.64286 135.35714,313.78571 138.57143,304.85714 141.78571,295.92857 146.42857,292.35714 146.07143,280.21429 145.71429,268.07143 145.71429,245.57143 145.71429,239.5 145.71429,233.42857 150.35714,213.07143 146.78571,198.07143 143.21429,183.07143 139.28571,175.57143 136.07143,167.35714 132.85714,159.14286 133.92857,146.28571 136.42857,143.78571 138.92857,141.28571 138.21429,140.57143 141.78571,142 Z"
       id="path4881"
       inkscape:connector-curvature="0" />
    <path
       style="fill:#000000;stroke:none;stroke-width:1px;stroke-linecap:butt;stroke-linejoin:miter;stroke-opacity:1;fill-opacity:1"
       d="M 186.07143,106.64286 C 186.07143,106.64286 196.07143,102.35714 204.64286,107.35714 213.21429,112.35714 214.64286,115.57143 217.85714,117.71429 221.07143,119.85714 223.92857,124.14286 223.92857,127.71429 223.92857,131.28571 219.28571,137 218.57143,140.92857 217.85714,144.85714 215.35714,146.28571 217.5,148.07143 219.64286,149.85714 229.28571,147.71429 234.64286,145.92857 240,144.14286 248.57143,140.21429 253.57143,140.57143 258.57143,140.92857 263.21429,142.35714 265.35714,144.14286 267.5,145.92857 269.28571,150.92857 270.71429,153.42857 272.14286,155.92857 275,162 275.35714,163.78571 275.71429,165.57143 263.57143,183.78571 265,216.64286 266.42857,249.5 261.42857,289.14286 261.42857,294.85714 261.42857,300.57143 260,318.07143 262.14286,322.35714 264.28571,326.64286 270,320.57143 261.42857,341.64286 252.85714,362.71429 250,369.14286 244.64286,365.57143 239.28571,362 235.35714,345.57143 228.57143,337.35714 221.78571,329.14286 217.14286,318.42857 212.85714,314.85714 208.57143,311.28571 208.92857,308.07143 219.28571,311.28571 229.64286,314.5 242.94194,320.52996 246.15623,316.95853 248.31131,315.30758 249.30003,313.97461 249.80019,312.94534 251.02562,310.42357 251.91293,310.64394 252.14286,295.92857 252.50001,273.07143 251.78571,188.07143 250.71429,177.35714 249.64286,166.64286 250,157.35714 242.5,154.85714 235,152.35714 218.57143,157.71429 217.5,159.85714 216.42857,162 215.35714,171.28571 215,178.07143 214.64286,184.85714 212.5,200.92857 213.21429,203.42857 213.92857,205.92857 216.42857,208.42857 222.14286,205.92857 227.85714,203.42857 232.85714,202.71429 235.35714,204.14286 237.85714,205.57143 241.78571,208.42857 242.85714,210.57143 243.92857,212.71429 243.57143,216.64286 236.78571,218.78571 230,220.92857 211.42857,226.28571 211.42857,226.28571 211.42857,226.28571 206.78571,226.28571 207.5,231.64286 208.21429,237 207.14286,263.42857 208.21429,265.92857 209.28571,268.42857 208.92857,266.28571 220.35714,262.71429 231.78571,259.14286 235.35714,257 242.5,260.21429 249.64286,263.42857 249.64286,265.57143 240.71429,267.71429 231.78571,269.85714 217.5,276.64286 213.21429,277.71429 208.92857,278.78571 197.85714,284.85714 193.57143,284.85714 189.28571,284.85714 183.21429,293.07143 173.57143,289.14286 163.92857,285.21429 152.5,279.5 170.35714,277.71429 188.21429,275.92857 192.14286,274.85714 196.07143,271.64286 200,268.42857 197.85714,267 195.35714,259.14286 192.85714,251.28571 192.5,241.28571 193.21429,236.64286 193.92857,232 193.21429,231.28571 184.28571,232.35714 175.35714,233.42857 168.57143,230.92857 170.35714,226.64286 172.14286,222.35714 171.78571,221.28571 173.92857,220.57143 176.07143,219.85714 182.4807,215.27009 185.71428,215.21429 188.77484,215.16146 195.17916,216.06509 196.07143,208.42858 197.67346,194.71763 198.20095,188.21877 198.57143,179.85714 199.64285,170.92857 201.07143,166.64286 197.14286,166.28571 193.21429,165.92857 186.78571,167 184.28571,169.5 181.78571,172 175.35714,171.64286 172.85714,165.57143 170.35714,159.5 166.42857,157.71429 167.5,153.07143 168.57143,148.42857 168.57143,153.07143 181.07143,154.85714 193.57143,156.64286 197.5,157.71429 199.28571,152.71429 201.07143,147.71429 202.14286,137.71429 200.35714,133.42857 198.57143,129.14286 199.28571,123.42857 193.57143,118.78571 187.85714,114.14286 182.5,112.71429 186.07143,106.64286 Z"
       id="path4883"
       inkscape:connector-curvature="0"
       sodipodi:nodetypes="cscscccscccsscssccscsscscscsssccscscccssscscsccssccsssscccc" />
    <path
       style="fill:#000000;stroke:none;stroke-width:1px;stroke-linecap:butt;stroke-linejoin:miter;stroke-opacity:1;fill-opacity:1"
       d="M 356.83639,67.785418 C 356.83639,67.785418 373.5039,74.351409 375.77675,76.624252 378.04959,78.897096 375.77675,83.442782 375.01913,85.210549 374.26152,86.978316 381.83766,90.008774 385.87827,90.766388 389.91888,91.524003 398.50518,93.544308 406.08132,91.776541 413.65747,90.008774 420.72854,89.251159 424.51661,87.230854 428.30468,85.210549 430.07245,83.442782 430.83006,80.159786 431.58768,76.876791 438.40621,78.897096 441.43666,77.381867 444.46712,75.866638 448.00265,67.027803 453.30596,69.553185 458.60926,72.078566 462.14479,77.381867 463.66002,85.715625 465.17525,94.049384 467.19555,98.847609 465.68032,103.14076 464.1651,107.43391 460.8821,105.4136 458.60926,107.18137 456.33641,108.94913 439.92143,127.88949 435.12321,131.17249 430.32498,134.45549 415.93031,146.32478 412.39478,147.84001 408.85924,149.35524 399.26279,154.65854 398.75772,153.14331 398.25264,151.62808 397.24249,151.62808 406.08132,140.01132 414.92016,128.39457 421.48615,112.7372 423.50645,109.20167 425.52676,105.66613 424.26407,100.1103 423.25392,99.352685 422.24376,98.59507 419.47339,98.91071 413.40493,102.1306 407.13518,105.4573 401.61607,108.52449 394.21203,106.17121 383.7711,102.85269 377.03944,97.584918 373.75644,97.837456 370.47345,98.089994 370.47345,105.16106 365.67522,110.46436 360.877,115.76766 351.78562,127.38442 345.47217,132.18264 339.15872,136.98087 334.10795,143.29432 325.52166,145.06209 316.93536,146.82985 310.11683,151.62808 311.63206,146.82985 313.14729,142.03163 318.70313,142.78924 327.03689,134.20295 335.37065,125.61665 342.18918,118.54558 345.97725,112.98974 349.76532,107.43391 355.5737,98.59507 355.32116,94.55446 355.06862,90.51385 353.80593,85.210549 350.2704,82.180091 346.73486,79.149634 336.88587,76.876791 343.45187,73.088719 350.01786,69.300647 352.2907,67.027803 356.83639,67.785418 Z"
       id="path4885"
       inkscape:connector-curvature="0"
       sodipodi:nodetypes="cccsssccssccsccsscssscccsssscsc" />
    <path
       style="fill:#000000;stroke:url(#linearGradient4897);stroke-width:1px;stroke-linecap:butt;stroke-linejoin:miter;stroke-opacity:1;fill-opacity:1"
       d="M 318.21429,193.42857 C 318.21429,193.42857 340,198.42857 343.21429,205.92857 346.42857,213.42857 337.85714,219.85714 332.14286,225.57143 326.42857,231.28571 317.14286,241.28571 313.21429,242.71429 309.28571,244.14286 314.64286,233.07143 317.5,222.35714 320.35714,211.64286 320.35714,204.85714 318.57143,202 316.78571,199.14286 315.35714,194.14286 318.21429,193.42857 Z"
       id="path4887"
       inkscape:connector-curvature="0" />
    <path
       style="fill:#000000;stroke:none;stroke-width:1px;stroke-linecap:butt;stroke-linejoin:miter;stroke-opacity:1;fill-opacity:1"
       d="M 362.5,163.78571 C 365.35714,163.78571 377.85714,160.57143 384.64286,165.21429 391.42857,169.85714 399.28571,176.28571 399.64286,181.28571 400,186.28571 394.64286,190.57143 397.85714,193.42857 401.07143,196.28571 410,191.64286 415.35714,190.57143 420.71429,189.5 421.78571,183.42857 426.78571,185.21429 431.78571,187 442.5,193.42857 438.21429,195.57143 433.92857,197.71429 421.07143,204.5 417.14286,204.85714 413.21429,205.21429 397.85714,206.28571 397.5,210.21429 397.14286,214.14286 391.78571,242 392.5,246.28571 393.21429,250.57143 392.5,254.14286 396.42857,254.14286 400.35714,254.14286 427.14286,249.5 439.28571,248.42857 451.42857,247.35714 462.85714,246.28571 467.5,241.64286 472.14286,237 479.28572,235.92857 486.07143,238.42857 492.85714,240.92857 503.21429,246.64286 505.35714,252.71429 507.5,258.78571 502.14286,261.28571 497.5,261.64286 492.85714,262 480,264.14286 469.28572,262.71429 458.57143,261.28571 434.28571,258.07143 427.85714,258.07143 421.42857,258.07143 413.21429,258.07143 403.21429,261.64286 393.21429,265.21429 391.42857,264.85714 391.78571,268.42857 392.14286,272 392.14286,285.21429 393.21429,297 394.28571,308.78571 396.42857,320.92857 396.07143,331.28571 395.71429,341.64286 394.64286,382 395,388.07143 395.35714,394.14286 395.35714,434.85714 394.64286,441.28571 393.92857,447.71429 391.07143,472 388.57143,476.28571 386.07143,480.57143 382.14286,492 377.5,484.5 372.85714,477 366.78571,455.21429 367.14286,450.92857 367.5,446.64286 368.92857,441.64286 373.92857,439.5 378.92857,437.35714 380.35714,443.78571 380.71429,416.28571 381.07143,388.78571 378.57143,357.35714 379.64286,352 380.71429,346.64286 379.28571,294.5 379.28571,289.14286 379.28571,283.78571 383.21429,271.64286 378.92857,269.14286 374.64286,266.64286 368.92857,268.78571 363.92857,268.78571 358.92857,268.78571 344.28571,274.14286 339.64286,276.64286 335,279.14286 310.71429,297.35714 303.57143,295.92857 296.42857,294.5 289.28571,290.21429 287.14286,287 285,283.78571 275.35714,277.71429 291.78571,278.78571 308.21429,279.85714 310.71429,277 320,274.85714 329.28571,272.71429 338.57143,272.35714 349.64286,268.07143 360.71429,263.78571 369.64286,264.85714 372.14286,261.64286 374.64286,258.42857 377.5,245.21429 376.78571,234.14286 376.07143,223.07143 377.85714,219.5 371.42857,217 365,214.5 360,216.64286 355,214.85714 350,213.07143 351.42857,210.92857 359.64286,208.42857 367.85714,205.92857 368.21429,207.35714 372.14286,203.78571 376.07143,200.21429 376.78571,186.28571 374.28571,182.35714 371.78571,178.42857 353.21429,167 362.5,163.78571 Z"
       id="path4889"
       inkscape:connector-curvature="0" />
  </g>
</svg>
