<?xml version="1.0" encoding="UTF-8" standalone="no"?>
<!-- Created with Inkscape (http://www.inkscape.org/) -->

<svg
   xmlns:dc="http://purl.org/dc/elements/1.1/"
   xmlns:cc="http://creativecommons.org/ns#"
   xmlns:rdf="http://www.w3.org/1999/02/22-rdf-syntax-ns#"
   xmlns:svg="http://www.w3.org/2000/svg"
   xmlns="http://www.w3.org/2000/svg"
   xmlns:sodipodi="http://sodipodi.sourceforge.net/DTD/sodipodi-0.dtd"
   xmlns:inkscape="http://www.inkscape.org/namespaces/inkscape"
   width="512"
   height="512"
   viewBox="0 0 512 512"
   version="1.1"
   id="svg8"
   inkscape:version="0.92.4 (5da689c313, 2019-01-14)"
   sodipodi:docname="U+898B.svg">
  <defs
     id="defs2">
    <inkscape:path-effect
       effect="bspline"
       id="path-effect3742"
       is_visible="true"
       weight="33.333333"
       steps="2"
       helper_size="0"
       apply_no_weight="true"
       apply_with_weight="true"
       only_selected="false" />
    <inkscape:path-effect
       effect="bspline"
       id="path-effect3738"
       is_visible="true"
       weight="33.333333"
       steps="2"
       helper_size="0"
       apply_no_weight="true"
       apply_with_weight="true"
       only_selected="false" />
  </defs>
  <sodipodi:namedview
     id="base"
     pagecolor="#ffffff"
     bordercolor="#666666"
     borderopacity="1.0"
     inkscape:pageopacity="0.0"
     inkscape:pageshadow="2"
     inkscape:zoom="0.98994949"
     inkscape:cx="560.16366"
     inkscape:cy="164.19961"
     inkscape:document-units="px"
     inkscape:current-layer="layer2"
     showgrid="false"
     units="px"
     inkscape:window-width="1920"
     inkscape:window-height="1001"
     inkscape:window-x="-9"
     inkscape:window-y="-9"
     inkscape:window-maximized="1"
     showguides="false"
     inkscape:guide-bbox="true">
    <inkscape:grid
       type="xygrid"
       id="grid21" />
  </sodipodi:namedview>
  <metadata
     id="metadata5">
    <rdf:RDF>
      <cc:Work
         rdf:about="">
        <dc:format>image/svg+xml</dc:format>
        <dc:type
           rdf:resource="http://purl.org/dc/dcmitype/StillImage" />
        <dc:title></dc:title>
      </cc:Work>
    </rdf:RDF>
  </metadata>
  <g
     inkscape:label="圖層 1"
     inkscape:groupmode="layer"
     id="layer1"
     transform="translate(0,-161.53331)">
    <path
       style="fill:#000000;stroke:none;stroke-width:1px;stroke-linecap:butt;stroke-linejoin:miter;stroke-opacity:1;fill-opacity:1"
       d="M 422.14286,297.10474 V 297.10474"
       id="path4610"
       inkscape:connector-curvature="0" />
  </g>
  <g
     inkscape:groupmode="layer"
     id="layer2"
     inkscape:label="圖層 2">
    <path
       style="fill:#000000;stroke:none;stroke-width:1px;stroke-linecap:butt;stroke-linejoin:miter;stroke-opacity:1;fill-opacity:1"
       d="M 155.35714,35.214285 C 155.35714,35.214285 167.5,43.785714 180,41.285714 192.5,38.785714 253.21429,32.357142 260,29.857142 266.78571,27.357142 271.42857,24.499999 280,26.999999 288.57143,29.499999 298.92857,37.714285 306.42857,43.785714 313.92857,49.857142 320.71429,57.714285 319.64286,64.857142 318.57143,71.999999 309.64286,74.499999 306.07143,78.428571 302.5,82.357142 293.57143,91.999999 291.07143,115.21429 288.57143,138.42857 286.78571,173.42857 286.42857,184.14286 286.07143,194.85714 285.35714,212.71429 287.85714,223.07143 290.35714,233.42857 290.35714,248.07143 293.92857,255.92857 297.5,263.78571 303.92857,279.14286 301.42857,285.57143 298.92857,292 296.42857,293.42857 290.71429,291.64286 285,289.85714 278.21429,280.57143 274.64286,272 271.07143,263.42857 258.08716,252.77494 258.57143,245.21429 259.01305,238.31951 266.89455,248.57925 271.07143,245.57143 275.90952,238.8375 278.29565,232.69833 279.64285,225.57143 281.76664,214.33625 279.34706,199.26555 278.57143,191.28571 277.73575,182.6881 276.78571,148.42857 275.71429,139.5 274.64286,130.57143 276.07143,98.785714 276.42857,95.928571 276.78571,93.071428 278.57143,74.142856 280.71429,69.499999 282.85714,64.857142 285.35714,51.999999 279.28571,48.071428 273.21429,44.142856 260.35714,46.999999 248.21429,49.499999 236.07143,51.999999 210.35714,60.571428 204.64286,61.642856 198.92857,62.714285 180,64.499999 173.92857,60.571428 167.85714,56.642856 161.78571,50.214285 158.92857,46.642856 156.07143,43.071428 150,36.285714 155.35714,35.214285 Z"
       id="path4697"
       inkscape:connector-curvature="0"
       sodipodi:nodetypes="cssssssssssscsscascscsssssc" />
    <path
       style="fill:#000000;stroke:none;stroke-width:1px;stroke-linecap:butt;stroke-linejoin:miter;stroke-opacity:1;fill-opacity:1"
       d="M 113.21429,52.714285 C 113.21429,52.714285 138.92857,55.571428 147.5,65.214285 156.07143,74.857142 158.21429,76.999999 163.92857,88.071428 169.64286,99.142856 165,99.857142 163.92857,109.14286 162.85714,118.42857 162.85714,142.71429 162.85714,154.5 162.85714,166.28571 160.35714,210.92857 161.42857,217 162.5,223.07143 159.28571,239.5 156.07143,240.57143 152.85714,241.64286 149.28571,240.57143 145,236.28571 140.71429,232 135,223.42857 140.35714,216.28571 145.71429,209.14286 146.07143,199.5 145.71429,187.35714 145.35714,175.21429 140.35714,123.42857 138.92857,118.07143 137.5,112.71429 135.35714,89.499999 129.64286,81.642856 123.92857,73.785714 106.42857,54.499999 113.21429,52.714285 Z"
       id="path4699"
       inkscape:connector-curvature="0" />
    <path
       style="fill:#000000;stroke:none;stroke-width:1px;stroke-linecap:butt;stroke-linejoin:miter;stroke-opacity:1;fill-opacity:1"
       d="M 181.78571,124.85714 C 185.35714,123.42857 214.64286,101.28571 223.57143,99.857142 232.5,98.428571 242.5,102.35714 245,105.92857 247.5,109.5 222.85714,122.35714 222.85714,122.35714 222.85714,122.35714 208.57143,133.42857 203.57143,135.21429 198.57143,137 186.78571,132.71429 183.92857,130.92857 181.07143,129.14286 177.14286,128.42857 181.78571,124.85714 Z"
       id="path4701"
       inkscape:connector-curvature="0" />
    <path
       style="fill:#000000;stroke:none;stroke-width:1px;stroke-linecap:butt;stroke-linejoin:miter;stroke-opacity:1;fill-opacity:1"
       d="M 163.21429,184.5 C 163.21429,184.5 196.78571,174.5 204.64286,166.64286 209.64286,161.91071 210.44643,160.92857 212.85714,159.85714 217.5,158.07143 219.19643,156.375 226.07143,158.07143 232.65041,159.69482 237.85714,162.35714 232.85714,167.71429 227.85714,173.07143 221.42857,175.21429 214.64286,179.5 207.85714,183.78571 181.42857,194.14286 175.35714,193.78571 169.28571,193.42857 163.57143,191.64286 163.21429,189.5 162.85714,187.35714 163.21429,184.5 163.21429,184.5 Z"
       id="path4703"
       inkscape:connector-curvature="0"
       sodipodi:nodetypes="cccsssccc" />
    <path
       style="fill:#000000;stroke:none;stroke-width:1px;stroke-linecap:butt;stroke-linejoin:miter;stroke-opacity:1;fill-opacity:1"
       d="M 63.63961,257.44156 C 63.63961,257.44156 78.791899,266.02786 96.974644,260.47202 115.15739,254.91618 188.39345,236.73343 202.53559,232.69282 216.67772,228.65221 219.2031,231.17759 227.7894,224.6116 236.3757,218.04561 243.95184,198.85271 253.54829,196.32733 263.14474,193.80195 262.13459,197.33748 260.61936,204.91363 259.10413,212.48977 257.08382,216.53038 247.99245,223.60145 238.90108,230.67252 231.32493,234.20805 224.75894,241.27912 218.19295,248.35019 215.16249,267.54308 198.49498,282.69537 181.82746,297.84766 135.86552,340.27407 124.24876,352.90097 112.63201,365.52788 99.500026,378.15479 89.3985,382.70047 79.296975,387.24616 64.649763,384.2157 65.659915,376.13448 66.670068,368.05326 76.771593,353.91113 79.802051,352.3959 82.832509,350.88067 81.31728,356.43651 90.913729,357.44666 100.51018,358.45681 146.47212,310.47457 153.03811,303.90858 159.6041,297.34258 199.50513,256.43141 195.46452,253.40095 191.42391,250.37049 189.90868,248.35019 185.86807,250.37049 181.82746,252.3908 137.38075,265.0177 126.26907,273.09892 115.15739,281.18014 108.08632,285.22075 101.52033,291.78674 94.954339,298.35274 85.862966,293.30197 79.802051,287.74613 73.741136,282.1903 68.185297,276.63446 65.659915,270.57354 63.134534,264.51263 56.568543,257.94663 63.63961,257.44156 Z"
       id="path4705"
       inkscape:connector-curvature="0" />
    <path
       style="fill:#000000;stroke:none;stroke-width:1px;stroke-linecap:butt;stroke-linejoin:miter;stroke-opacity:1;fill-opacity:1"
       d="M 229.68344,268.55323 C 232.44239,264.71619 246.47722,288.75629 246.9823,303.4035 247.48738,318.05071 236.88077,328.15224 233.85031,335.72838 230.81986,343.30452 229.8097,348.35529 229.8097,353.91113 229.8097,359.46697 229.30463,368.55834 233.34524,373.10402 237.38585,377.64971 246.47722,382.1954 253.54829,384.2157 260.61936,386.23601 297.48992,393.30708 308.09653,392.29692 318.70313,391.28677 376.28182,389.77154 395.9798,384.72078 415.67777,379.67002 444.46712,378.15479 450.02296,370.07357 455.5788,361.99235 456.65023,350.55416 465.23652,349.03893 468.87567,350.76646 470.33991,358.07106 473.25647,365.52788 476.12812,373.6183 482.34401,383.76244 479.61851,389.95011 476.84929,396.23703 462.14479,398.4445 452.04326,400.88322 442.17487,403.26566 377.79705,409.97459 363.14984,409.97459 348.50263,409.97459 291.93409,410.98475 273.75134,406.94414 255.56859,402.90353 242.43661,400.88322 231.83001,391.79185 221.22341,382.70047 215.66757,369.56849 217.1828,355.42636 218.06318,347.20944 219.01731,332.85424 221.4579,322.26767 223.21781,314.63369 224.82952,308.88631 224.82952,308.88631"
       id="path4707"
       inkscape:connector-curvature="0"
       sodipodi:nodetypes="cscsccsssccsssssssc" />
    <path
       style="fill:#000000;stroke:none;stroke-width:1px;stroke-linecap:butt;stroke-linejoin:miter;stroke-opacity:1;fill-opacity:1"
       d="M 229.68344,268.55323 C 228.38954,268.93804 230.70981,279.9323 227.7894,294.31213 L 224.82952,308.88631"
       id="path4709"
       inkscape:connector-curvature="0"
       sodipodi:nodetypes="csc" />
  </g>
</svg>
