<?xml version="1.0" encoding="UTF-8" standalone="no"?>
<!-- Created with Inkscape (http://www.inkscape.org/) -->

<svg
   xmlns:dc="http://purl.org/dc/elements/1.1/"
   xmlns:cc="http://creativecommons.org/ns#"
   xmlns:rdf="http://www.w3.org/1999/02/22-rdf-syntax-ns#"
   xmlns:svg="http://www.w3.org/2000/svg"
   xmlns="http://www.w3.org/2000/svg"
   xmlns:sodipodi="http://sodipodi.sourceforge.net/DTD/sodipodi-0.dtd"
   xmlns:inkscape="http://www.inkscape.org/namespaces/inkscape"
   width="512"
   height="512"
   viewBox="0 0 512 512"
   version="1.1"
   id="svg8"
   inkscape:version="0.92.4 (5da689c313, 2019-01-14)"
   sodipodi:docname="U+8AB0.svg">
  <defs
     id="defs2">
    <inkscape:path-effect
       effect="bspline"
       id="path-effect3742"
       is_visible="true"
       weight="33.333333"
       steps="2"
       helper_size="0"
       apply_no_weight="true"
       apply_with_weight="true"
       only_selected="false" />
    <inkscape:path-effect
       effect="bspline"
       id="path-effect3738"
       is_visible="true"
       weight="33.333333"
       steps="2"
       helper_size="0"
       apply_no_weight="true"
       apply_with_weight="true"
       only_selected="false" />
  </defs>
  <sodipodi:namedview
     id="base"
     pagecolor="#ffffff"
     bordercolor="#666666"
     borderopacity="1.0"
     inkscape:pageopacity="0.0"
     inkscape:pageshadow="2"
     inkscape:zoom="0.98994949"
     inkscape:cx="152.50375"
     inkscape:cy="184.60833"
     inkscape:document-units="px"
     inkscape:current-layer="layer2"
     showgrid="false"
     units="px"
     inkscape:window-width="1920"
     inkscape:window-height="1001"
     inkscape:window-x="-9"
     inkscape:window-y="-9"
     inkscape:window-maximized="1"
     showguides="false"
     inkscape:guide-bbox="true">
    <inkscape:grid
       type="xygrid"
       id="grid21" />
  </sodipodi:namedview>
  <metadata
     id="metadata5">
    <rdf:RDF>
      <cc:Work
         rdf:about="">
        <dc:format>image/svg+xml</dc:format>
        <dc:type
           rdf:resource="http://purl.org/dc/dcmitype/StillImage" />
        <dc:title></dc:title>
      </cc:Work>
    </rdf:RDF>
  </metadata>
  <g
     inkscape:label="圖層 1"
     inkscape:groupmode="layer"
     id="layer1"
     transform="translate(0,-161.53331)" />
  <g
     inkscape:groupmode="layer"
     id="layer2"
     inkscape:label="圖層 2">
    <path
       style="fill:#000000;stroke:none;stroke-width:1px;stroke-linecap:butt;stroke-linejoin:miter;stroke-opacity:1;fill-opacity:1"
       d="M 120,62.357142 C 120,62.357142 133.57143,52.714285 145.35714,53.785714 157.14286,54.857142 165,56.999999 173.21429,62.714285 181.42857,68.428571 186.78571,75.214285 187.5,86.285714 188.21429,97.357142 190.71429,97.714285 183.57143,99.857142 176.42857,102 168.21429,92.357142 163.21429,90.571428 158.21429,88.785714 147.85714,79.857142 141.07143,78.071428 134.28571,76.285714 124.28571,75.928571 121.78571,71.642856 119.28571,67.357142 119.28571,64.499999 120,62.357142 Z"
       id="path4749"
       inkscape:connector-curvature="0" />
    <path
       style="fill:#000000;stroke:none;stroke-width:1px;stroke-linecap:butt;stroke-linejoin:miter;stroke-opacity:1;fill-opacity:1"
       d="M 33.214286,128.07143 C 38.931716,128.07143 47.236651,142.71429 69.642857,135.21429 94.393838,126.92943 135.35714,119.85714 157.5,117 179.64286,114.14286 196.78571,110.57143 202.85714,106.28571 208.92857,102 207.5,98.071428 212.85714,96.642856 218.21429,95.214285 228.57142,98.071428 233.57142,101.64285 238.57142,105.21428 243.57143,106.64286 243.92857,113.42857 244.28571,120.21429 240.71429,120.21429 235,120.21429 229.28571,120.21429 218.21429,119.14286 211.07143,117.71429 203.92857,116.28571 185.54111,118.06046 172.14285,121.64285 155.25467,126.15838 139.39304,129.56202 123.21429,133.78571 92.466549,141.81284 86.071429,144.5 72.857143,150.92857 59.642857,157.35714 59.285714,163.07143 49.642857,158.42857 40,153.78571 38.571429,147.71429 35.714286,143.78571 32.857143,139.85714 23.214286,128.42857 33.214286,128.07143 Z"
       id="path4751"
       inkscape:connector-curvature="0"
       sodipodi:nodetypes="csscsssscsssscc" />
    <path
       style="fill:#000000;stroke:none;stroke-width:1px;stroke-linecap:butt;stroke-linejoin:miter;stroke-opacity:1;fill-opacity:1"
       d="M 117.85714,182.71429 C 117.85714,182.71429 139.64286,173.42857 154.28571,172.71429 168.92857,172 170.35714,172 176.42857,177.35714 182.5,182.71429 177.14286,183.07143 169.64286,185.57143 162.14286,188.07143 149.28571,193.07143 142.85714,196.64286 136.42857,200.21429 125.35714,200.21429 121.78571,195.21429 118.21429,190.21429 115,188.07143 117.85714,182.71429 Z"
       id="path4753"
       inkscape:connector-curvature="0" />
    <path
       style="fill:#000000;stroke:none;stroke-width:1px;stroke-linecap:butt;stroke-linejoin:miter;stroke-opacity:1;fill-opacity:1"
       d="M 95.357143,245.57143 C 95.357143,245.57143 107.85714,244.14286 119.28571,240.21429 130.71429,236.28571 156.42857,227.71429 162.5,225.57143 168.57143,223.42857 172.5,221.64286 180,227.71429 187.5,233.78571 192.5,232.71429 189.64286,238.07143 186.78571,243.42857 176.07143,243.78571 168.57143,245.21429 161.07143,246.64286 128.21429,254.85714 122.14286,257.71429 116.07143,260.57143 107.85714,260.57143 103.57143,255.92857 99.285714,251.28571 93.214286,252 95.357143,245.57143 Z"
       id="path4755"
       inkscape:connector-curvature="0" />
    <path
       style="fill:#000000;stroke:none;stroke-width:1px;stroke-linecap:butt;stroke-linejoin:miter;stroke-opacity:1;fill-opacity:1"
       d="M 73.928572,297.71429 C 73.928572,297.71429 89.642857,297.35714 97.142857,301.28571 104.64286,305.21429 109.64286,314.14286 111.07143,322.35714 112.5,330.57143 117.85714,344.85714 119.28571,350.57143 120.71429,356.28571 118.92857,359.85714 122.14286,363.78571 125.35714,367.71429 138.92857,358.78571 148.57143,355.57143 158.21429,352.35714 161.42857,355.21429 169.28571,349.85714 177.14286,344.5 173.21429,327.35714 172.5,321.28571 171.78571,315.21429 175.71429,305.21429 166.78571,307 157.85714,308.78571 149.28571,313.42857 144.28571,313.42857 139.28571,313.42857 129.64286,310.92857 125.71429,307 121.78571,303.07143 116.78571,297.35714 124.28571,297.71429 131.78571,298.07143 142.85714,297 151.07143,294.14286 159.28571,291.28571 170.71429,287.35714 175.35714,283.07143 180,278.78571 179.64286,272 187.85714,272.71429 196.07143,273.42857 197.5,273.78571 202.14286,279.14286 206.78571,284.5 211.78571,285.57143 213.21429,292.35714 214.64286,299.14286 202.85714,303.78571 199.64286,310.57143 196.42857,317.35714 178.92857,345.21429 182.5,348.42857 186.07143,351.64286 197.5,347 200.35714,354.85714 203.21429,362.71429 199.64286,363.07143 192.5,364.5 185.35714,365.92857 157.14286,374.5 150.35714,376.64286 143.57143,378.78571 131.07143,375.21429 129.64286,379.85714 128.21429,384.5 128.57143,390.57143 126.78571,394.5 125,398.42857 121.42857,399.85714 117.85714,395.21429 114.28571,390.57143 113.57143,378.78571 110,370.92857 106.42857,363.07143 98.214286,335.21429 90.714286,325.92857 83.214286,316.64286 81.071429,312.35714 72.5,307.71429 63.928572,303.07143 66.428572,299.5 73.928572,297.71429 Z"
       id="path4757"
       inkscape:connector-curvature="0" />
    <path
       style="fill:#000000;stroke:none;stroke-width:1px;stroke-linecap:butt;stroke-linejoin:miter;stroke-opacity:1;fill-opacity:1"
       d="M 295.72216,50.107748 C 295.72216,50.107748 317.44044,63.744808 325.26912,72.331104 333.0978,80.917401 332.84526,88.493545 334.10795,95.564613 335.37065,102.63568 334.10795,106.42375 327.03689,111.72705 319.96582,117.03035 300.26784,132.94026 295.72216,138.24356 291.17647,143.54686 280.56987,154.406 276.02418,157.94153 271.4785,161.47707 262.38712,169.55829 255.06352,172.08367 247.73991,174.60905 237.63839,180.16489 235.11301,179.15474 232.58762,178.14458 242.68915,174.10397 252.03306,166.02275 261.37697,157.94153 285.11556,129.9098 287.13586,127.38442 289.15617,124.85904 297.48992,111.22198 301.02546,105.4136 304.56099,99.605223 309.61176,91.018926 307.33891,84.200397 305.06607,77.381867 304.81353,67.027803 300.77292,63.997346 296.73231,60.966888 292.18662,50.107748 295.72216,50.107748 Z"
       id="path4759"
       inkscape:connector-curvature="0" />
    <path
       style="fill:#000000;stroke:none;stroke-width:1px;stroke-linecap:butt;stroke-linejoin:miter;stroke-opacity:1;fill-opacity:1"
       d="M 265.41758,159.45676 C 265.41758,159.45676 278.54956,161.98214 284.61048,166.02275 290.6714,170.06336 291.17647,174.10397 292.18662,178.14458 293.19678,182.18519 292.43916,187.48849 290.6714,192.53926 288.90363,197.59002 282.33764,212.99485 282.59017,217.28799 282.84271,221.58114 281.32748,234.20805 281.58002,239.76389 281.83256,245.31973 279.55972,275.37177 279.30718,288.25121 279.05464,301.13066 275.77165,300.37304 278.04449,314.0101 280.31733,327.64716 278.54956,339.26391 281.32748,341.03168 284.1054,342.79945 285.62063,344.31468 294.20693,341.28422 302.79323,338.25376 313.9049,338.25376 321.22851,335.98092 328.55212,333.70808 331.83511,331.18269 333.35034,324.36416 334.86557,317.54563 337.39095,298.85781 334.86557,296.83751 332.34019,294.8172 328.29958,300.1205 324.51151,298.35274 320.72343,296.58497 301.02546,292.03928 301.02546,289.00883 301.02546,285.97837 301.02546,283.45299 306.5813,282.94791 312.13714,282.44283 333.35034,281.93776 336.12826,278.14969 338.90618,274.36161 340.92648,260.72455 339.66379,256.68394 338.4011,252.64333 340.16887,247.59257 334.10795,248.09765 328.04704,248.60272 322.74374,253.65349 318.70313,252.89587 314.66252,252.13826 307.08637,249.61288 304.05592,247.08749 301.02546,244.56211 296.22723,240.01643 296.22723,237.74358 296.22723,235.47074 303.2983,237.99612 308.09653,237.49105 312.89475,236.98597 330.06734,235.2182 335.11811,232.18774 340.16887,229.15729 341.93664,226.63191 341.17902,216.78292 340.42141,206.93393 340.42141,203.3984 336.88587,200.62048 333.35034,197.84256 322.4912,199.86286 318.45059,199.35779 314.40998,198.85271 308.09653,194.8121 304.81353,191.78164 301.53054,188.75119 294.20693,187.74103 297.74246,183.70042 301.278,179.65981 307.84399,182.94281 312.13714,183.44788 316.43029,183.95296 325.7742,180.41743 333.85542,179.40727 341.93664,178.39712 348.75517,179.65981 352.54324,176.12428 356.33131,172.58874 359.61431,163.74991 357.08893,159.96184 354.56354,156.17377 353.30085,149.86031 349.0077,143.54686 344.71456,137.23341 343.95694,132.94026 341.43156,131.17249 338.90618,129.40472 337.64349,125.86919 346.48232,125.11157 355.32116,124.35396 364.15999,128.64711 364.15999,128.64711 364.15999,128.64711 374.00898,135.46564 375.52421,139.50625 377.03944,143.54686 380.32243,145.56716 379.56482,149.86031 378.8072,154.15346 374.51406,165.51768 369.46329,170.3159 364.41253,175.11413 394.71711,170.3159 402.04071,169.55829 409.36432,168.80067 411.13209,166.02275 416.94046,167.03291 422.74884,168.04306 427.7996,169.81082 431.33514,172.33621 434.87067,174.86159 439.92143,179.15474 437.39605,181.42758 434.87067,183.70042 426.28437,185.21565 422.24376,185.21565 418.20315,185.21565 386.63589,186.47834 376.53436,186.2258 366.43284,185.97327 352.2907,187.23596 349.26024,191.27657 346.22979,195.31718 349.0077,196.57987 352.03816,199.35779 355.06862,202.13571 359.36177,204.66109 362.39223,209.71185 365.42268,214.76261 362.39223,220.06591 363.40238,223.85399 364.41253,227.64206 371.98868,223.34891 376.53436,222.84383 381.08005,222.33876 392.6968,224.10652 395.47472,226.37937 398.25264,228.65221 403.3034,230.92505 401.2831,234.71313 399.26279,238.5012 398.0001,238.75374 390.17142,239.76389 382.34274,240.77404 372.24121,240.01643 369.46329,238.75374 366.68537,237.49105 359.10923,235.2182 357.34146,240.01643 355.5737,244.81465 351.78562,248.09765 351.53309,255.16872 351.28055,262.23978 350.77547,268.04816 356.33131,270.321 361.88715,272.59385 372.24121,274.61415 377.54451,273.604 382.84782,272.59385 387.14096,274.36161 389.41381,278.40222 391.68665,282.44283 393.45442,282.94791 392.6968,285.47329 391.93919,287.99867 386.38335,288.25121 379.31228,286.48344 372.24121,284.71568 361.63461,285.47329 357.34146,288.75629 353.04831,292.03928 348.25009,305.92888 350.01786,311.23218 351.78562,316.53548 350.77547,324.36416 357.34146,327.64716 363.90745,330.93016 367.69553,331.18269 377.03944,329.41493 386.38335,327.64716 388.40365,319.3134 407.09148,326.38447 425.7793,333.45554 425.52676,331.94031 429.81991,338.00122 434.11306,344.06214 430.83006,348.86036 425.02168,349.61798 419.21331,350.37559 412.64732,352.14336 396.73741,350.62813 380.82751,349.1129 380.32243,346.84006 370.22091,348.10275 360.11938,349.36544 359.36177,350.12305 340.92648,352.3959 322.4912,354.66874 308.09653,358.20427 296.73231,356.68905 285.36809,355.17382 281.58002,352.64844 280.31733,358.45681 279.05464,364.26519 277.53941,373.6091 279.81226,377.90225 282.0851,382.1954 285.87317,391.03423 283.34779,396.33753 280.82241,401.64083 278.8021,417.80328 274.25642,418.56089 269.71073,419.3185 263.90235,415.78297 260.8719,406.43906 257.84144,397.09515 250.26529,387.75124 254.05337,378.15479 257.84144,368.55834 263.64981,360.72966 264.65997,354.4162 265.67012,348.10275 266.42773,320.82863 266.93281,313.50502 267.43789,306.18142 269.96327,279.41238 270.21581,273.85654 270.46834,268.3007 274.50895,237.99612 275.51911,232.18774 276.52926,226.37937 276.7818,214.25754 277.28687,209.45931 277.79195,204.66109 282.59017,194.8121 279.30718,188.24611 276.02418,181.68012 274.50895,175.36666 268.70058,169.81082 262.8922,164.25499 257.5889,161.7296 265.41758,159.45676 Z"
       id="path4761"
       inkscape:connector-curvature="0" />
  </g>
</svg>
