<?xml version="1.0" encoding="UTF-8" standalone="no"?>
<!-- Created with Inkscape (http://www.inkscape.org/) -->

<svg
   xmlns:dc="http://purl.org/dc/elements/1.1/"
   xmlns:cc="http://creativecommons.org/ns#"
   xmlns:rdf="http://www.w3.org/1999/02/22-rdf-syntax-ns#"
   xmlns:svg="http://www.w3.org/2000/svg"
   xmlns="http://www.w3.org/2000/svg"
   xmlns:sodipodi="http://sodipodi.sourceforge.net/DTD/sodipodi-0.dtd"
   xmlns:inkscape="http://www.inkscape.org/namespaces/inkscape"
   width="512"
   height="512"
   viewBox="0 0 512 512"
   version="1.1"
   id="svg8"
   inkscape:version="0.92.4 (5da689c313, 2019-01-14)"
   sodipodi:docname="U+903C.svg">
  <defs
     id="defs2">
    <inkscape:path-effect
       effect="bspline"
       id="path-effect3742"
       is_visible="true"
       weight="33.333333"
       steps="2"
       helper_size="0"
       apply_no_weight="true"
       apply_with_weight="true"
       only_selected="false" />
    <inkscape:path-effect
       effect="bspline"
       id="path-effect3738"
       is_visible="true"
       weight="33.333333"
       steps="2"
       helper_size="0"
       apply_no_weight="true"
       apply_with_weight="true"
       only_selected="false" />
  </defs>
  <sodipodi:namedview
     id="base"
     pagecolor="#ffffff"
     bordercolor="#666666"
     borderopacity="1.0"
     inkscape:pageopacity="0.0"
     inkscape:pageshadow="2"
     inkscape:zoom="0.98994949"
     inkscape:cx="92.722925"
     inkscape:cy="267.97106"
     inkscape:document-units="px"
     inkscape:current-layer="layer2"
     showgrid="false"
     units="px"
     inkscape:window-width="1920"
     inkscape:window-height="1001"
     inkscape:window-x="-9"
     inkscape:window-y="-9"
     inkscape:window-maximized="1"
     showguides="false"
     inkscape:guide-bbox="true">
    <inkscape:grid
       type="xygrid"
       id="grid21" />
  </sodipodi:namedview>
  <metadata
     id="metadata5">
    <rdf:RDF>
      <cc:Work
         rdf:about="">
        <dc:format>image/svg+xml</dc:format>
        <dc:type
           rdf:resource="http://purl.org/dc/dcmitype/StillImage" />
        <dc:title></dc:title>
      </cc:Work>
    </rdf:RDF>
  </metadata>
  <g
     inkscape:label="圖層 1"
     inkscape:groupmode="layer"
     id="layer1"
     transform="translate(0,-161.53331)" />
  <g
     inkscape:groupmode="layer"
     id="layer2"
     inkscape:label="圖層 2">
    <path
       style="fill:#000000;stroke:none;stroke-width:1px;stroke-linecap:butt;stroke-linejoin:miter;stroke-opacity:1;fill-opacity:1"
       d="M 76.071429,134.5 C 76.071429,134.5 96.071429,135.21429 103.92857,134.5 111.78571,133.78571 118.57143,139.85714 122.14286,144.14286 125.71429,148.42857 136.07143,154.14286 129.64286,158.07143 123.21429,162 120.35714,160.57143 111.42857,160.92857 102.5,161.28571 100,162.71429 95.714286,165.21429 91.428572,167.71429 87.857143,166.64286 88.928572,160.21429 90,153.78571 91.428572,153.78571 85.714286,149.85714 80,145.92857 69.642857,137 76.071429,134.5 Z"
       id="path4976"
       inkscape:connector-curvature="0" />
    <path
       style="fill:#000000;stroke:none;stroke-width:1px;stroke-linecap:butt;stroke-linejoin:miter;stroke-opacity:1;fill-opacity:1"
       d="M 30.714286,228.07143 C 30.714286,228.07143 77.5,222 80,218.07143 82.5,214.14286 80,213.42857 82.857143,209.85714 85.714286,206.28571 105.71429,215.57143 107.85714,217 110,218.42857 115,221.28571 115.71429,225.57143 116.42857,229.85714 113.57143,235.57143 107.14286,237.35714 100.71429,239.14286 96.785714,240.92857 93.214286,245.57143 89.642857,250.21429 87.5,250.92857 88.928572,258.42857 90.357143,265.92857 92.857143,272 97.5,278.78571 102.14286,285.57143 109.28571,300.57143 112.85714,307 116.42857,313.42857 123.21429,324.14286 126.42857,332 129.64286,339.85714 135,346.64286 131.07143,356.28571 127.14286,365.92857 121.42857,366.28571 137.14286,367.35714 152.85714,368.42857 178.92857,381.64286 182.85714,384.85714 186.78571,388.07143 218.57143,409.14286 290,409.85714 361.42857,410.57143 387.85714,416.64286 434.28571,413.07143 480.71429,409.5 492.14286,402 500,404.14286 507.85714,406.28571 512.85714,408.07143 502.85714,411.28571 492.85714,414.5 459.64286,423.42857 453.21429,425.92857 446.78571,428.42857 426.42857,434.14286 419.28571,438.42857 412.14286,442.71429 401.07143,449.14286 393.21429,453.07143 385.35714,457 390.35714,451.64286 355.35714,447.71429 320.35714,443.78571 257.14286,430.92857 241.78571,429.5 226.42857,428.07143 205.35714,421.64286 193.57143,412.35714 181.78571,403.07143 167.14286,388.78571 148.57143,383.78571 130,378.78571 126.78571,377.71429 107.14286,381.28571 87.5,384.85714 87.5,395.21429 80,390.92857 72.5,386.64286 62.5,377.71429 68.214286,368.42857 73.928572,359.14286 67.5,363.07143 80.714286,364.85714 93.928572,366.64286 112.5,367.71429 114.28571,355.92857 116.07143,344.14286 112.85714,327.35714 110.35714,323.07143 107.85714,318.78571 93.571429,294.85714 88.214286,291.64286 82.857143,288.42857 74.285714,285.92857 72.142857,282 70,278.07143 68.214286,276.64286 71.428572,268.07143 74.642857,259.5 76.428572,255.21429 70.357143,253.78571 64.285714,252.35714 61.071429,253.07143 51.428572,250.21429 41.785714,247.35714 31.428571,238.42857 30.714286,228.07143 Z"
       id="path4978"
       inkscape:connector-curvature="0" />
    <path
       style="fill:#000000;stroke:none;stroke-width:1px;stroke-linecap:butt;stroke-linejoin:miter;stroke-opacity:1;fill-opacity:1"
       d="M 188.21429,93.428571 C 188.21429,93.428571 199.64286,106.28571 218.57143,102.35714 237.5,98.428571 270,91.285714 281.07143,89.499999 292.14286,87.714285 328.21429,80.928571 342.5,78.785714 356.78571,76.642856 362.14286,75.214285 372.5,70.928571 382.85714,66.642856 401.42857,80.214285 402.5,83.071428 403.57143,85.928571 404.28571,91.642856 398.57143,94.142856 392.85714,96.642856 386.42857,99.142856 376.42857,96.999999 366.42857,94.857142 351.42857,92.357142 340.35714,94.857142 329.28571,97.357142 291.42857,100.92857 272.5,106.64286 253.57143,112.35714 242.5,112.71429 229.64286,117 216.78571,121.28571 215,122.35714 206.07143,115.92857 197.14286,109.5 180.35714,93.071428 188.21429,93.428571 Z"
       id="path4980"
       inkscape:connector-curvature="0" />
    <path
       style="fill:#000000;stroke:none;stroke-width:1px;stroke-linecap:butt;stroke-linejoin:miter;stroke-opacity:1;fill-opacity:1"
       d="M 251.07143,150.92857 C 254.64286,152 249.64286,158.07143 265.35714,152.71429 281.07143,147.35714 317.85714,130.21429 322.5,131.28571 327.14286,132.35714 339.28571,137 343.57143,139.5 347.85714,142 357.5,144.5 358.92857,150.92857 360.35714,157.35714 355.71429,158.78571 352.5,162 349.28571,165.21429 341.42857,174.14286 337.5,185.92857 333.57143,197.71429 330.35714,200.21429 335.35714,202.71429 340.35714,205.21429 344.28571,206.64286 345.35714,209.85714 346.42857,213.07143 343.92857,218.42857 337.14286,215.57143 330.35714,212.71429 320.71429,213.78571 311.42857,215.57143 302.14286,217.35714 262.14286,229.14286 248.92857,230.57143 235.71429,232 227.5,234.14286 227.85714,223.07143 228.21429,212 234.28571,220.21429 237.14286,215.21429 240,210.21429 231.78571,200.57143 228.92857,196.64286 226.07143,192.71429 224.28571,189.14286 218.57143,178.07143 212.85714,167 205.71429,162.71429 204.64286,158.07143 203.57143,153.42857 204.28571,152.35714 213.92857,158.07143 223.57143,163.78571 231.78571,163.78571 235.71429,168.78571 239.64286,173.78571 241.78571,184.14286 243.92857,190.92857 246.07143,197.71429 247.14286,207.71429 248.57143,210.92857 250,214.14286 253.92857,213.07143 264.28571,209.5 274.64286,205.92857 298.92857,199.85714 307.14286,200.92857 315.35714,202 317.14286,204.5 319.28571,190.21429 321.42857,175.92857 322.85714,163.42857 319.28571,160.92857 315.71429,158.42857 315.71429,153.78571 298.21429,159.14286 280.71429,164.5 270,174.85714 258.92857,170.57143 247.85714,166.28571 246.42857,160.92857 248.21429,157 250,153.07143 247.5,151.64286 251.07143,150.92857 Z"
       id="path4982"
       inkscape:connector-curvature="0" />
    <path
       style="fill:#000000;stroke:none;stroke-width:1px;stroke-linecap:butt;stroke-linejoin:miter;stroke-opacity:1;fill-opacity:1"
       d="M 251.78571,274.85714 C 246.07142,274.14286 248.57143,279.85714 241.42857,278.07143 234.28571,276.28571 227.14286,272 223.21429,268.42857 219.28571,264.85714 207.14286,257.71429 228.57143,257.35714 250,257 281.42857,250.57143 290.35714,250.21429 299.28571,249.85714 324.64286,243.78571 333.21429,242.71429 341.78571,241.64286 346.78571,233.42857 350.35714,229.85714 353.92857,226.28571 361.78571,227.35714 366.42857,233.42857 371.07143,239.5 380.35714,241.64286 382.85714,247.35714 385.35714,253.07143 388.92857,258.42857 382.14286,264.85714 375.35714,271.28571 371.07143,269.14286 368.21429,285.57143 365.35714,302 353.21429,349.85714 351.42857,357.35714 349.64286,364.85714 346.78571,378.78571 342.5,383.42857 338.21429,388.07143 335.71429,386.64286 328.92857,379.85714 322.14286,373.07143 324.28571,368.07143 316.78571,368.07143 309.28571,368.07143 290.71429,370.21429 285.35714,371.28571 280,372.35714 250,374.85714 245,377 240,379.14286 238.57143,374.85714 236.78571,377.71429 235,380.57143 236.78571,386.28571 233.21429,387.35714 229.64286,388.42857 220.35714,386.28571 218.21429,376.64286 216.07143,367 203.92857,309.5 203.92857,304.5 203.92857,299.5 200.35714,289.5 196.07143,284.85714 191.78571,280.21429 178.21429,264.14286 181.78571,260.92857 183.57143,261.28571 212.5,273.07143 217.14286,278.07143 221.78571,283.07143 224.64286,325.21429 226.42857,329.85714 228.21429,334.5 229.64286,351.28571 232.14286,355.21429 234.64286,359.14286 231.07143,362.71429 240,362.71429 248.92857,362.71429 261.07143,359.5 264.64286,358.42857 268.21429,357.35714 270,359.5 268.92857,349.5 267.85714,339.5 268.39286,328.78571 267.32143,326.28571 266.25,323.78571 251.42857,326.28571 247.85714,326.28571 244.28571,326.28571 240.71429,327 236.78571,322.71429 232.85714,318.42857 229.28571,315.92857 238.92857,315.21429 248.57143,314.5 261.07143,315.57143 262.5,313.42857 263.92857,311.28571 266.68093,303.34125 264.64286,291.28571 262.69532,279.76563 263.20861,275.07823 261.25,269.85715 262.81742,261.21917 269.68613,264.8146 277.67857,271.64286 283.68646,276.77564 289.19796,278.42312 291.42857,284.5 293.79579,290.94904 291.78571,302 293.21429,302.35714 294.64286,302.71429 302.85714,296.64286 311.07143,300.57143 319.28571,304.5 323.57143,305.57143 324.28571,308.42857 325,311.28571 325.35714,313.78571 317.5,314.85714 309.64286,315.92857 308.57143,316.28571 302.85714,317 297.14286,317.71429 295,317 291.07143,318.42857 287.14286,319.85714 288.57143,319.14286 286.78571,328.78571 285,338.42857 285.71429,342.71429 286.07143,346.64286 286.42857,350.57143 282.85714,354.14286 287.14286,354.14286 291.42857,354.14286 314.28571,349.14286 316.78571,349.85714 319.28571,350.57143 327.14286,354.14286 329.64286,354.5 332.14286,354.85714 335.35714,358.07143 336.42857,343.07143 337.5,328.07143 341.42857,293.78571 342.85714,287 344.28571,280.21429 350,269.5 346.07143,264.5 342.14286,259.5 340.71429,258.78571 336.78571,257.71429 332.85714,256.64286 319.28571,263.07143 312.85714,263.07143 306.42857,263.07143 293.57143,267 289.64286,267 285.71429,267 266.07143,270.92857 261.42857,271.64286 256.78571,272.35714 247.32143,276.28571 247.32143,276.28571 L 251.78571,274.85714"
       id="path4984"
       inkscape:connector-curvature="0"
       sodipodi:nodetypes="cccsccssssscssscssssscccccsssssccsscsscscssscsscsssscssccc" />
  </g>
</svg>
