<?xml version="1.0" encoding="UTF-8" standalone="no"?>
<!-- Created with Inkscape (http://www.inkscape.org/) -->

<svg
   xmlns:dc="http://purl.org/dc/elements/1.1/"
   xmlns:cc="http://creativecommons.org/ns#"
   xmlns:rdf="http://www.w3.org/1999/02/22-rdf-syntax-ns#"
   xmlns:svg="http://www.w3.org/2000/svg"
   xmlns="http://www.w3.org/2000/svg"
   xmlns:sodipodi="http://sodipodi.sourceforge.net/DTD/sodipodi-0.dtd"
   xmlns:inkscape="http://www.inkscape.org/namespaces/inkscape"
   version="1.1"
   id="svg5674"
   width="512"
   height="512"
   viewBox="0 0 512 512"
   sodipodi:docname="U+9592.svg"
   inkscape:version="0.92.4 (5da689c313, 2019-01-14)">
  <metadata
     id="metadata5680">
    <rdf:RDF>
      <cc:Work
         rdf:about="">
        <dc:format>image/svg+xml</dc:format>
        <dc:type
           rdf:resource="http://purl.org/dc/dcmitype/StillImage" />
        <dc:title></dc:title>
      </cc:Work>
    </rdf:RDF>
  </metadata>
  <defs
     id="defs5678" />
  <sodipodi:namedview
     pagecolor="#ffffff"
     bordercolor="#666666"
     borderopacity="1"
     objecttolerance="10"
     gridtolerance="10"
     guidetolerance="10"
     inkscape:pageopacity="0"
     inkscape:pageshadow="2"
     inkscape:window-width="1920"
     inkscape:window-height="1017"
     id="namedview5676"
     showgrid="false"
     inkscape:zoom="0.921875"
     inkscape:cx="-238.97282"
     inkscape:cy="191.23801"
     inkscape:window-x="-8"
     inkscape:window-y="-8"
     inkscape:window-maximized="1"
     inkscape:current-layer="svg5674" />
  <path
     style="fill:#000000;stroke:none;stroke-width:1px;stroke-linecap:butt;stroke-linejoin:miter;stroke-opacity:1;fill-opacity:1"
     d="m 102.39865,76.709859 c 0,0 0,4.985702 18.02523,4.985702 18.02523,0 17.64172,1.917578 31.83179,-1.917578 14.19008,-3.835155 13.80656,-14.57359 22.2439,-11.121951 8.43734,3.45164 21.86039,6.519765 20.70984,10.738436 -1.15055,4.218671 -11.88898,11.888981 -14.19007,16.491168 -2.3011,4.602184 -7.2868,7.670314 -9.97141,22.243904 -2.68461,14.57359 -5.36922,33.36585 -4.9857,37.96804 0.38352,4.60218 -3.45164,15.34062 -0.76703,16.49116 2.68461,1.15055 14.95711,-10.35492 18.79226,-12.65601 3.83516,-2.30109 17.2582,-11.88898 5.75273,4.9857 -11.50546,16.87469 -31.44827,29.5307 -39.5021,37.20101 -8.05382,7.67031 -14.9571,12.65601 -21.86038,16.87469 -6.90328,4.21867 -8.82086,7.67031 -13.80656,-1.15055 -4.9857,-8.82086 -2.3011,-19.55929 5.36921,-20.70984 7.67032,-1.15055 23.01094,-5.36922 27.99664,-10.35492 4.9857,-4.9857 9.20437,-1.53406 8.82086,-16.49117 -0.38352,-14.9571 0,-23.39445 -9.58789,-19.94281 -9.58789,3.45164 -17.2582,0.38352 -21.09336,-5.36921 -3.83515,-5.75274 -11.12195,-10.35492 2.68461,-7.67032 13.80656,2.68461 14.19008,-1.91757 17.64172,-0.76703 3.45164,1.15055 8.43734,7.2868 8.05382,0.38352 -0.38351,-6.90328 -0.76703,-27.2296 -0.38351,-31.83179 0.38351,-4.60219 5.36922,-13.039529 -7.67031,-7.286796 -13.03953,5.752736 -15.34062,5.369216 -20.32633,5.752736 -4.9857,0.38351 -4.9857,-0.38352 -11.88898,-8.820861 -6.90328,-8.437342 -14.957104,-17.258199 -11.88898,-18.02523 z"
     id="path5684"
     inkscape:connector-curvature="0" />
  <path
     style="fill:#000000;stroke:none;stroke-width:1px;stroke-linecap:butt;stroke-linejoin:miter;stroke-opacity:1;fill-opacity:1"
     d="m 79.004202,117.36251 c 0,0 3.835155,-4.98571 15.340622,4.21867 11.505466,9.20437 14.190076,9.9714 9.587886,21.09335 -4.602184,11.12195 -7.670309,6.90328 -6.519762,20.32633 1.150547,13.42304 -4.985702,58.67787 -5.752733,70.56686 -0.767031,11.88898 0.383515,52.92514 0.383515,62.51303 0,9.58789 -0.767031,56.37678 0,62.12952 0.767031,5.75273 -0.767031,29.53069 0.767031,37.201 1.534063,7.67032 3.835156,14.5736 -3.835155,13.80656 -7.670311,-0.76703 -14.957106,-20.32632 -16.874684,-24.16147 -1.917578,-3.83516 -14.957106,-24.545 -3.45164,-26.84609 11.505466,-2.3011 11.888982,0.38351 11.505466,-23.39445 -0.383515,-23.77796 3.068125,-126.56013 3.068125,-130.01177 0,-3.45164 -0.383516,-52.54163 1.150546,-55.60975 1.534063,-3.06813 5.752734,-9.97141 -0.767031,-16.87469 -6.519764,-6.90328 -16.107652,-6.13625 -4.602186,-14.9571 z"
     id="path5686"
     inkscape:connector-curvature="0" />
  <path
     style="fill:#000000;stroke:none;stroke-width:1px;stroke-linecap:butt;stroke-linejoin:miter;stroke-opacity:1;fill-opacity:1"
     d="m 256.95541,75.175797 c 2.68461,0 3.06813,-8.437342 21.86039,4.218671 18.79226,12.656013 17.2582,7.286795 21.09335,21.093352 3.83516,13.80656 0.76704,19.17578 0,28.38015 -0.76703,9.20438 0,31.44828 -1.53406,35.28343 -1.53406,3.83516 0.76703,15.72414 -6.90328,5.75274 -7.67031,-9.97141 -8.82085,-6.90328 -13.03953,-37.58453 -4.21867,-30.68124 -4.21867,-35.666943 -8.82085,-42.186707 -4.60219,-6.519764 -19.94281,-11.121951 -12.65602,-14.957106 z"
     id="path5688"
     inkscape:connector-curvature="0" />
  <path
     style="fill:#000000;stroke:none;stroke-width:1px;stroke-linecap:butt;stroke-linejoin:miter;stroke-opacity:1;fill-opacity:1"
     d="m 297.22455,124.6493 c 0,0 7.28679,0.38352 13.03952,-3.06812 5.75274,-3.45164 10.35492,-10.35492 21.86039,-9.20438 11.50547,1.15055 10.35492,0.38352 17.2582,3.83516 6.90328,3.45164 -2.68461,9.58789 -11.88898,11.12195 -9.20438,1.53406 -23.39445,8.05383 -27.99664,8.43734 -4.60218,0.38352 -19.55929,-5.75273 -12.27249,-11.12195 z"
     id="path5690"
     inkscape:connector-curvature="0" />
  <path
     style="fill:#000000;stroke:none;stroke-width:1px;stroke-linecap:butt;stroke-linejoin:miter;stroke-opacity:1;fill-opacity:1"
     d="m 259.64002,176.4239 c 0,0 5.36922,-3.83516 18.02523,-0.76703 12.65602,3.06812 23.77797,-5.36922 33.74937,-6.90328 9.9714,-1.53406 21.09336,-7.2868 34.5164,-3.45164 13.42304,3.83515 16.49117,5.36922 9.58789,9.20437 -6.90328,3.83516 -20.70984,6.51977 -31.06476,7.67031 -10.35492,1.15055 -38.35156,8.82086 -43.72077,9.97141 -5.36922,1.15054 -15.34062,1.53406 -21.09336,-15.72414 z"
     id="path5692"
     inkscape:connector-curvature="0" />
  <path
     style="fill:#000000;stroke:none;stroke-width:1px;stroke-linecap:butt;stroke-linejoin:miter;stroke-opacity:1;fill-opacity:1"
     d="m 293.77291,59.068144 c 1.53406,0.767031 14.9571,9.204373 27.61311,5.369218 12.65602,-3.835156 37.58453,-4.985703 42.18671,-10.35492 4.60219,-5.369218 8.05383,-13.80656 17.2582,-3.45164 9.20438,10.35492 21.47687,15.724137 24.92851,25.312026 3.45164,9.587888 -3.83515,10.354919 -7.28679,16.874684 -3.45164,6.519764 -10.73844,18.025228 -9.97141,37.201008 0.76704,19.17578 0,94.34482 -0.38351,101.63162 -0.38352,7.28679 2.68461,79.0042 3.06812,83.60639 0.38352,4.60218 1.91758,65.58115 2.3011,67.49873 0.38351,1.91758 0.76703,11.12195 0.76703,11.12195 0,0 9.20437,9.58789 5.75273,30.68125 -3.45164,21.09335 -2.30109,40.65264 -10.35492,42.57022 -8.05382,1.91758 -5.75273,-16.10765 -15.34062,-25.31202 -9.58789,-9.20438 -16.10765,-37.58453 -24.16148,-42.95375 -8.05383,-5.36921 -18.79226,-14.57359 7.2868,-8.05382 26.07905,6.51976 26.07905,-6.51977 27.99663,-14.57359 1.91758,-8.05383 -2.68461,-35.66695 -2.68461,-38.73507 0,-3.06813 -6.90328,-124.25904 -6.90328,-128.86122 0,-4.60219 -3.06812,-94.72834 -3.83515,-100.48108 -0.76703,-5.75273 -0.38352,-26.846085 -4.21867,-29.914209 -3.83516,-3.068124 -22.62742,-0.767031 -35.28343,5.752733 -12.65602,6.519764 -11.50547,10.35492 -17.64172,8.053827 -6.13625,-2.301094 -12.65601,-16.874684 -16.49117,-20.326324 -3.83515,-3.45164 -8.82086,-12.656013 -1.53406,-12.656013 7.2868,0 -3.06812,0 -3.06812,0 z"
     id="path5694"
     inkscape:connector-curvature="0" />
  <path
     style="fill:#000000;stroke:none;stroke-width:1px;stroke-linecap:butt;stroke-linejoin:miter;stroke-opacity:1;fill-opacity:1"
     d="m 195.59293,202.50296 c 0,0 23.39444,0 34.13288,6.13625 10.73844,6.13624 9.58789,7.67031 11.12195,15.34062 1.53406,7.67031 -2.30109,11.50546 1.15055,12.65601 3.45164,1.15055 34.13288,-7.67031 39.88561,-9.9714 5.75274,-2.3011 16.10766,-11.12195 23.77797,-8.82086 7.67031,2.30109 13.80656,5.36922 14.57359,10.73843 0.76703,5.36922 -6.51977,3.83516 -20.70984,6.13625 -14.19008,2.3011 -28.38015,5.75274 -39.5021,8.05383 -11.12195,2.30109 -19.94281,5.75273 -20.32633,9.9714 -0.38351,4.21867 2.68461,70.95038 1.91758,75.93608 -0.76703,4.9857 -1.15054,15.34062 -1.15054,18.79226 0,3.45164 -1.91758,13.42305 -3.83516,14.95711 -1.91758,1.53406 -3.45164,-3.83516 -8.82086,-9.97141 -5.36922,-6.13624 -17.64171,-16.49116 -20.32632,-20.70984 -2.68461,-4.21867 -14.19008,-9.20437 1.91758,-6.90327 16.10765,2.30109 14.9571,2.30109 15.72413,-8.05383 0.76703,-10.35492 1.91758,-38.35156 0.38352,-41.8032 -1.53406,-3.45164 1.53406,-19.17577 -5.75273,-20.70983 -7.2868,-1.53407 -12.65602,1.53406 -29.14719,8.05382 -16.49116,6.51977 -15.34062,6.13625 -22.62741,13.03953 -7.2868,6.90328 -11.50547,8.05383 -19.94281,-1.91758 -8.43734,-9.9714 -16.49117,-23.39445 -16.87468,-27.2296 -0.38352,-3.83516 -1.91758,-4.21867 10.35492,1.15055 12.27249,5.36921 16.87468,7.28679 35.28343,3.45164 18.40874,-3.83516 33.74936,-6.13625 38.73507,-8.05383 4.9857,-1.91758 3.83515,-4.9857 2.30109,-11.88898 -1.53406,-6.90328 -3.06813,-13.42305 -13.03953,-19.5593 -9.9714,-6.13624 -15.34062,-5.36921 -9.20437,-8.82085 z"
     id="path5696"
     inkscape:connector-curvature="0" />
  <path
     style="fill:#000000;stroke:none;stroke-width:1px;stroke-linecap:butt;stroke-linejoin:miter;stroke-opacity:1;fill-opacity:1"
     d="m 176.80067,289.17747 c 0.76703,1.53406 1.15054,8.05383 1.53406,17.64171 0.38351,9.58789 -1.53406,23.39445 -3.06813,26.84609 -1.53406,3.45164 -2.30109,5.75274 -8.05382,6.90328 -5.75274,1.15055 -11.12195,-4.9857 -11.12195,-8.43734 0,-3.45164 -1.91758,-9.58789 4.9857,-21.86039 6.90328,-12.27249 11.50546,-20.32632 15.72414,-21.09335 z"
     id="path5698"
     inkscape:connector-curvature="0" />
  <path
     style="fill:#000000;stroke:none;stroke-width:1px;stroke-linecap:butt;stroke-linejoin:miter;stroke-opacity:1;fill-opacity:1"
     d="m 281.88392,278.05552 c 1.91758,2.68461 20.70984,4.60219 26.07906,16.49117 5.36922,11.88898 6.90328,21.86038 6.13625,25.31202 -0.76703,3.45164 0.38352,7.67031 -4.9857,7.67031 -5.36922,0 -11.50547,-3.45164 -14.57359,-6.51976 -3.06813,-3.06812 -4.21867,-10.73844 -5.75274,-19.55929 -1.53406,-8.82086 -9.20437,-20.32633 -6.90328,-23.39445 z"
     id="path5700"
     inkscape:connector-curvature="0" />
</svg>
