<?xml version="1.0" standalone="no"?>
<!DOCTYPE svg PUBLIC "-//W3C//DTD SVG 1.1//EN" "http://www.w3.org/Graphics/SVG/1.1/DTD/svg11.dtd" >
<svg xmlns="http://www.w3.org/2000/svg" xmlns:xlink="http://www.w3.org/1999/xlink" version="1.1" viewBox="0 0 256 256">
  <g transform="matrix(1 0 0 -1 0 204)">
   <path fill="currentColor"
d="M147 137q6 -4 12 -9q3 -2 2 -7q-5 -6 -4 -32q27 7 28 12q1 4 7 4q10 0 20 -3q1 -1 1 -3q-1 -2 -3 -2q-20 -1 -52 -13q-1 -8 -2 -27v-27q12 1 27 1q7 11 15 9l24 -22q2 -3 2 -5t-3 -2q-9 0 -14 8q-7 11 -51 7q-3 -6 -5 -5q-3 2 -4 3q-11 -1 -34 -6q-8 0 -4 8q3 4 4 1
q-2 -5 5 -3q4 0 11 2q11 2 19 3q1 8 2 23q0 14 1 30q-6 -3 -16 -6q-7 -2 -9 -2q-7 -5 -23 -1q-3 0 -3 1t3 2q22 2 47 11q-1 15 -2 28q-2 13 -4 20q-2 3 -1 4q1 0 4 -2zM81 139q1 -1 2 -3q6 -5 10 -6q5 -4 1 -8q-2 -4 -3 -17q-1 -8 -2 -27q-1 -26 -3 -77q-2 -4 14 -22
q3 -6 -5 -7q-9 3 -21 23q-5 5 9 10q-1 11 -1 38q1 10 1 14q-12 -6 -18 -10q-4 -28 -26 -47q-2 -1 -4 -1q-1 1 1 1q16 19 20 44q-1 -1 -7 -3l-7 -3q-4 -3 -13 1q-3 0 -3 1t3 2q22 6 54 20q1 13 1 29q-24 -8 -32 -19q-2 -3 -3 -2q-2 0 -2 3q-1 7 1 10q3 2 5 10q2 10 -1 19
q-3 4 2 2q10 -9 8 -10q-3 -4 -5 -17q-2 -4 2 -2q14 6 25 10q2 27 -5 41q-2 2 -1 3t3 0zM145 212q10 -5 7 -12q-5 -14 -14 -28q4 1 13 4q8 3 13 5q7 2 10 8q3 4 9 2q1 -1 3 -1q9 -2 14 -3q3 -4 -2 -8q-10 1 -20 -2q-4 -2 -18 -7q-7 -2 -9 -3q-5 -1 -1 2l2 2q2 2 -2 1
q-5 -3 -11 -5q-3 -2 -5 -2q-16 -22 -32 -36q-6 -4 -1 2q16 18 23 32q-5 -2 -14 -4t-13 -3q1 -2 3 -4q4 -11 -1 -13l-1 -1q-4 -2 -7 3q-6 8 -7 12q-28 -5 -34 1q-3 0 -3 1t3 2q16 -1 31 3q-5 11 -15 25q-5 4 2 2q20 -15 26 -25q21 4 34 8q18 35 13 39q-2 2 -1 3t5 0z" />
  </g>

</svg>
