<?xml version="1.0" standalone="no"?>
<!DOCTYPE svg PUBLIC "-//W3C//DTD SVG 1.1//EN" "http://www.w3.org/Graphics/SVG/1.1/DTD/svg11.dtd" >
<svg xmlns="http://www.w3.org/2000/svg" xmlns:xlink="http://www.w3.org/1999/xlink" version="1.1" viewBox="0 0 256 256">
  <g transform="matrix(1 0 0 -1 0 204)">
   <path fill="currentColor"
d="M156 155q-4 4 2 2q8 -2 19 -6q3 -2 2 -4q0 -2 -3 -2q-5 4 -18 -24q24 9 31 9q5 3 25 -12q3 -3 2 -4q0 -2 -3 -3q-6 -3 -5 -10q-1 -6 -1 -16q-2 -29 -1 -44q0 -12 -4 -20q-2 -4 -4 -2q-1 0 -3 1q-3 2 -5 3q-4 1 -7 3t-4 3q-4 3 1 2q16 -3 19 2t3 16q-21 -2 -25 -10
q-24 -39 -66 -60q-4 -2 -5 -1q-1 2 3 4q38 23 64 57q0 1 -1 2q-1 0 -2 -1q-31 -12 -44 -14q-8 0 -7 5q1 3 5 1q3 -2 9 1l6 2q7 1 10 3q-7 4 -14 9q-4 4 0 5q2 1 4 6q4 17 3 39q0 11 -3 19q-1 3 0 3q2 0 6 -3q18 27 11 39zM186 127q-3 -1 -10 -4q-14 -4 -20 -6l-7 -7
q-7 -67 5 -71q13 4 27 10q3 1 8 2q11 1 13 0q0 31 -3 48q-3 8 -2 22q-3 9 -11 6zM75 190q16 -13 12 -15q-3 -5 -3 -11v-24q9 1 17 5q3 9 25 -1q2 -2 1 -5q-1 -2 -3 -1q-19 1 -41 -6q-1 -5 -3 -18q-2 -9 -2 -12q9 2 21 5q1 4 8 1q3 -2 5 -2l6 -2q2 -6 -5 -6q-9 1 -17 -2
q-3 -1 -8 -2q-4 -2 -4 -1q0 2 5 5q-7 0 -22 -6q-11 -6 -22 -1q-5 1 0 2q6 1 16 4q6 2 10 3q1 3 3 22q1 5 2 8q-14 -4 -17 -6q-4 -1 -5 -1q-8 -4 -22 2q-3 0 -3 1q1 2 5 3q5 0 16 2t27 7q1 23 0 33q-1 11 -4 17q-2 5 2 2zM105 71q1 -2 2 -3q4 -3 6 -5q3 -4 -1 -5q-5 -1 -9 -6
v-1q-10 -19 -12 -20q11 2 16 -2q2 -2 1 -4q0 -1 -2 -1q-4 -2 -9 0q-5 0 -19 -3q-4 -1 -8 -1q6 -6 0 -9q-6 -1 -15 8q-7 4 -3 12q0 2 -1 4q-5 7 -3 20q2 4 2 1q-1 -8 5 -20q0 -2 1 -2v-2q4 -8 11 -9q9 4 22 8q-2 4 1 8q5 7 10 23q0 4 -3 4q-21 -10 -40 -12q-4 0 0 2
q18 8 39 13q5 4 9 2zM188 187q5 5 12 1q8 -3 16 -4q3 -1 3 -4q1 -2 -2 -2q-29 2 -57 -10q-4 -2 -5 -1q0 1 4 4l2 2q-1 1 -4 1q-11 -2 -22 0q-3 0 0 2q46 3 53 11zM186 12q39 -17 50 -29q3 -3 1 -5t-6 -2q-10 0 -13 5q-20 19 -34 29q-5 3 2 2zM182 98q2 -1 2 -2q0 -2 -2 -2
q-4 0 -15 -5q-5 -3 -2 0q-2 0 -5 -1t-4 0q-4 0 0 2q6 1 10 5q5 3 16 3zM172 71q5 2 10 1q3 -3 0 -4q-5 -1 -9 -2q-1 0 -3 -1q-5 0 -8 1q-6 0 0 1q4 0 10 4z" />
  </g>

</svg>
