
<svg version="1.1" baseProfile="full" xmlns="http://www.w3.org/2000/svg" width="512" height="512" viewBox="0,0,512,512">

  <rect width="512" height="512" stroke="red" fill="white"></rect>

  <text x="2" y="12" font-size="12" text-anchor="start" fill="red">0</text>
  <path d="M256  64 H0 H512" stroke="lightgray" fill="white"></path>
  <text x="2" y="64" font-size="12" text-anchor="start" fill="red">64</text>
  <path d="M256 128 H0 H512" stroke="lightgray" fill="white"></path>
  <text x="2" y="128" font-size="12" text-anchor="start" fill="red">128</text>
  <path d="M256 192 H0 H512" stroke="lightgray" fill="white"></path>
  <text x="2" y="192" font-size="12" text-anchor="start" fill="red">192</text>
  <path d="M256 256 H0 H512" stroke="lightgray" fill="white"></path>
  <text x="2" y="256" font-size="12" text-anchor="start" fill="red">256</text>
  <path d="M256 320 H0 H512" stroke="lightgray" fill="white"></path>
  <text x="2" y="320" font-size="12" text-anchor="start" fill="red">320</text>
  <path d="M256 384 H0 H512" stroke="lightgray" fill="white"></path>
  <text x="2" y="384" font-size="12" text-anchor="start" fill="red">384</text>
  <path d="M256 448 H0 H512" stroke="lightgray" fill="white"></path>
  <text x="2" y="448" font-size="12" text-anchor="start" fill="red">448</text>
  <text x="2" y="512" font-size="12" text-anchor="start" fill="red">512</text>

  <path d="M64  0 V512" stroke="lightgray" fill="white"></path>
  <text x="64" y="12" font-size="12" text-anchor="start" fill="red">64</text>
  <path d="M128  0 V512" stroke="lightgray" fill="white"></path>
  <text x="128" y="12" font-size="12" text-anchor="start" fill="red">128</text>
  <path d="M195  0 V512" stroke="lightgray" fill="white"></path>
  <text x="192" y="12" font-size="12" text-anchor="start" fill="red">192</text>
  <path d="M256  0 V512" stroke="lightgray" fill="white"></path>
  <text x="256" y="12" font-size="12" text-anchor="start" fill="red">256</text>
  <path d="M320  0 V512" stroke="lightgray" fill="white"></path>
  <text x="320" y="12" font-size="12" text-anchor="start" fill="red">320</text>
  <path d="M384  0 V512" stroke="lightgray" fill="white"></path>
  <text x="384" y="12" font-size="12" text-anchor="start" fill="red">384</text>
  <path d="M448  0 V512" stroke="lightgray" fill="white"></path>
  <text x="448" y="12" font-size="12" text-anchor="start" fill="red">448</text>
  <text x="512" y="12" font-size="12" text-anchor="start" fill="red">512</text>


  <ellipse
 style="fill:#00ccfb;fill-opacity:1;stroke:#000000;stroke-width:3.77952756;stroke-miterlimit:4;stroke-dasharray:none;stroke-opacity:1"
 id="path4676"
 cx="250.35713"
 cy="298.53333"
 rx="129.64285"
 ry="122.14286" />
<ellipse
 style="fill:#fdfdfd;fill-opacity:1;stroke:#000000;stroke-width:3.77952756;stroke-miterlimit:4;stroke-dasharray:none;stroke-opacity:1"
 id="path4680"
 cx="247.85716"
 cy="327.10477"
 rx="104.41625"
 ry="95.130524" />
<ellipse
 style="fill:#fdfdfd;fill-opacity:1;stroke:#000000;stroke-width:3.77952756;stroke-miterlimit:4;stroke-dasharray:none;stroke-opacity:1"
 id="path4684"
 cx="210.6425"
 cy="247.73238"
 rx="31.844183"
 ry="37.558472" />
<ellipse
 style="fill:#fdfdfd;fill-opacity:1;stroke:#000000;stroke-width:3.77952756;stroke-miterlimit:4;stroke-dasharray:none;stroke-opacity:1"
 id="path4684-1"
 cx="278.98984"
 cy="248.23746"
 rx="31.844183"
 ry="37.558472" />
<ellipse
 style="fill:#ff0000;fill-opacity:1;stroke:#000000;stroke-width:3.77952756;stroke-miterlimit:4;stroke-dasharray:none;stroke-opacity:1"
 id="path4716"
 cx="244.85713"
 cy="306.03329"
 rx="17.69289"
 ry="14.478605" />
<ellipse
 style="fill:#000000;fill-opacity:1;stroke:#000000;stroke-width:3.77952756;stroke-miterlimit:4;stroke-dasharray:none;stroke-opacity:1"
 id="path4720"
 cx="221.2234"
 cy="257.85556"
 rx="8.0812206"
 ry="10.606602" />
<ellipse
 style="fill:#000000;fill-opacity:1;stroke:#000000;stroke-width:3.77952756;stroke-miterlimit:4;stroke-dasharray:none;stroke-opacity:1"
 id="path4720-8"
 cx="267.69043"
 cy="258.36063"
 rx="8.0812206"
 ry="10.606602" />
<path
 style="fill:none;stroke:#000000;stroke-width:1.88976378;stroke-linecap:butt;stroke-linejoin:miter;stroke-opacity:1;stroke-miterlimit:4;stroke-dasharray:none"
 d="M 161.6041,302.80734 C 161.6041,302.80734 195.94929,285.12967 228.27417,304.82764"
 id="path4737"
 />
<path
 style="fill:none;stroke:#000000;stroke-width:1.88976378;stroke-linecap:butt;stroke-linejoin:miter;stroke-opacity:1;stroke-miterlimit:4;stroke-dasharray:none"
 d="M 162.61425,331.09161 C 165.64471,331.09161 204.53559,310.38348 227.26402,315.93932"
 id="path4741"
 />
<path
 style="fill:none;stroke:#000000;stroke-width:1.88976378;stroke-linecap:butt;stroke-linejoin:miter;stroke-opacity:1;stroke-miterlimit:4;stroke-dasharray:none"
 d="M 166.65486,356.8505 C 166.65486,356.8505 194.93914,318.4647 236.86047,321.49516"
 id="path4743"
 />
<path
 style="fill:none;stroke:#000000;stroke-width:1.88976378;stroke-linecap:butt;stroke-linejoin:miter;stroke-opacity:1;stroke-miterlimit:4;stroke-dasharray:none"
 d="M 326.41512,302.7658 C 326.41512,302.7658 292.06993,285.08813 259.74505,304.7861"
 id="path4737-9"
 />
<path
 style="fill:none;stroke:#000000;stroke-width:1.88976378;stroke-linecap:butt;stroke-linejoin:miter;stroke-opacity:1;stroke-miterlimit:4;stroke-dasharray:none"
 d="M 325.40497,331.05007 C 322.37451,331.05007 283.48363,310.34194 260.7552,315.89778"
 id="path4741-8"
 />
<path
 style="fill:none;stroke:#000000;stroke-width:1.88976378;stroke-linecap:butt;stroke-linejoin:miter;stroke-opacity:1;stroke-miterlimit:4;stroke-dasharray:none"
 d="M 321.36436,356.80896 C 321.36436,356.80896 293.08008,318.42316 251.15875,321.45362"
 id="path4743-8"
 />
<path
 style="fill:none;stroke:#000000;stroke-width:3.77952756;stroke-linecap:butt;stroke-linejoin:miter;stroke-opacity:1;stroke-miterlimit:4;stroke-dasharray:none"
 d="M 164.65486,342.70836 C 164.65486,342.70836 191.42391,392.20584 241.42646,392.20584 291.42901,392.20584 331.83511,343.21344 331.83511,343.21344"
 id="path4768"
 />
<path
 style="fill:none;stroke:#000000;stroke-width:3.77952756;stroke-linecap:butt;stroke-linejoin:miter;stroke-opacity:1;stroke-miterlimit:4;stroke-dasharray:none"
 d="M 245.15875,321.45362 C 243.82147,391.83044 244.37188,391.37363 244.37188,391.37363"
 id="path4770"
 />
</svg>
